<svg width="486" height="480" viewBox="0 0 486 480" fill="none" xmlns="http://www.w3.org/2000/svg">
<path d="M298.476 32.2788L119.075 296.617" stroke="#454545"/>
<path d="M361.633 75.8242L144.704 310.723M422.959 119.369L164.841 327.896M483.369 161.688L188.639 344.455M483.369 232.832L209.691 361.015M483.369 289.257L234.405 376.347M483.369 335.255L255.457 392.294M483.369 372.668L279.255 409.466M483.369 405.786L297.561 424.186M483.369 432.159L323.19 440.132M483.369 457.305H345.157" stroke="#454545"/>
<path d="M234.405 1.61328L97.1079 280.671" stroke="#454545"/>
<path d="M44.9354 1L27.5444 234.059M98.0234 1L50.4272 248.778M160.265 1L73.31 264.724" stroke="#454545"/>
<path d="M1 1L3.74593 218.113L368.955 473.864L480.623 478.771" stroke="#454545"/>
<path d="M4.66113 200.327L397.33 475.091M4.66113 179.474L425.704 475.091M4.66113 156.781L464.147 476.931M4.66113 127.342L481.538 461.598M4.66113 89.9303L481.538 426.639M4.66113 50.0649L481.538 383.707" stroke="#454545"/>
<path d="M256.371 2.22656L485.199 161.688M115.414 2.22656L479.707 257.365M13.814 2.22656L485.199 331.575" stroke="#454545"/>
</svg>
