<svg width="700" height="730" viewBox="0 0 700 730" fill="none" xmlns="http://www.w3.org/2000/svg">
<g opacity="0.5">
<path d="M700 729.725L689.06 718.323L678.12 706.921L667.19 695.519L656.25 684.117L645.31 672.715L634.37 661.313L623.44 649.911L612.5 638.509L601.56 627.108L590.62 615.706L579.69 604.304L568.75 592.902L557.81 581.5L546.87 570.098L535.94 558.696L525 547.294L514.06 535.892L503.12 524.49L492.19 513.088L481.25 501.686L470.31 490.284L459.37 478.882L448.44 467.48L437.5 456.078L426.56 444.676L415.62 433.274L404.69 421.872L393.75 410.47L382.81 399.068L371.88 387.666L360.94 376.264L350 364.862L339.06 353.46L328.12 342.058L317.19 330.657L306.25 319.255L295.31 307.853L284.37 296.451L273.44 285.049L262.5 273.647L251.56 262.245L240.62 250.843L229.69 239.441L218.75 228.039L207.81 216.637L196.88 205.235L185.94 193.833L175 182.431L164.06 171.029L153.12 159.627L142.19 148.225L131.25 136.823L120.31 125.421L109.38 114.019L98.4399 102.617L87.5 91.2153L76.5601 79.813L65.62 68.411L54.6899 57.009L43.75 45.607L32.8101 34.205L21.88 22.804L10.9399 11.402L0 0V0.0239868V0.048996V0.0739899V0.098999V0.123993V0.147995V0.172989V0.197998V0.222992V0.246994V0.271988V0.296997V0.321991V0.347V0.370987V0.395996V0.42099V0.445999V0.470993V0.494995V0.519989V0.544998V0.569992V0.593994V0.618988V0.643997V0.668991V0.694V0.717987V0.742996V0.76799V0.792999V0.817993V0.841995V0.866989V0.891998V0.916992V0.940994V0.965988V0.990997V1.01599V1.041V1.06499V1.09V1.11499V1.14V1.16499V1.189V1.21399V1.239V1.26399V1.289V1.31299V1.338V1.36299V1.388V1.41199V1.437V1.46199V1.487V1.51199V1.536V1.56099V1.586L0.130005 8.7L0.26001 15.814L0.390015 22.927L0.52002 30.041L0.650024 37.155L0.780029 44.269L0.910034 51.383L1.04004 58.497L1.17004 65.61L1.30005 72.724L1.43005 79.838L1.56006 86.952L1.68994 94.0658L1.81995 101.18L1.94995 108.293L2.07996 115.407L2.20996 122.521L2.33997 129.635L2.46997 136.749L2.59998 143.863L2.72998 150.976L2.85999 158.09L2.98999 165.204L3.12 172.318L3.25 179.432L3.38 186.546L3.51001 193.659L3.64001 200.773L3.77002 207.887L3.90002 215.001L4.03003 222.115L4.16003 229.229L4.29004 236.342L4.42004 243.456L4.55005 250.57L4.68005 257.684L4.81006 264.798L4.93994 271.912L5.06995 279.025L5.19995 286.139L5.32996 293.253L5.45996 300.367L5.58997 307.481L5.71997 314.595L5.84998 321.708L5.97998 328.822L6.10999 335.936L6.23999 343.05L6.37 350.164L6.48999 357.278L6.62 364.391L6.75 371.505L6.88 378.619L7.01001 385.733L7.14001 392.847L7.27002 399.961L7.40002 407.074L7.53003 414.188L7.66003 421.302L7.79004 428.416L7.92004 435.53L8.05005 442.644L8.18005 449.757L8.31006 456.871L11.87 460.589L15.4301 464.307L18.99 468.025L22.55 471.743L26.11 475.461L29.67 479.179L33.23 482.897L36.79 486.615L40.35 490.334L43.91 494.052L47.47 497.77L51.02 501.488L54.58 505.206L58.14 508.924L61.7 512.642L65.26 516.36L68.8199 520.078L72.38 523.796L75.9399 527.514L79.5 531.232L83.0601 534.95L86.62 538.668L90.1801 542.386L93.74 546.104L97.29 549.822L100.85 553.54L104.41 557.258L107.97 560.976L111.53 564.694L115.09 568.412L118.65 572.13L122.21 575.848L125.77 579.566L129.33 583.284L132.89 587.002L136.45 590.72L140.01 594.438L143.56 598.156L147.12 601.874L150.68 605.592L154.24 609.311L157.8 613.029L161.36 616.747L164.92 620.465L168.48 624.183L172.04 627.901L175.6 631.619L179.16 635.337L182.72 639.055L186.28 642.773L189.83 646.491L193.39 650.209L196.95 653.927L200.51 657.645L204.07 661.363L207.63 665.081L211.19 668.799L214.75 672.517L218.31 676.235L221.87 679.953L225.43 683.671L228.99 687.389L232.55 691.107L236.1 694.825L243.35 695.371L250.6 695.916L257.85 696.461L265.1 697.006L272.35 697.552L279.59 698.097L286.84 698.642L294.09 699.188L301.34 699.733L308.59 700.278L315.84 700.824L323.08 701.369L330.33 701.914L337.58 702.46L344.83 703.005L352.08 703.55L359.33 704.096L366.58 704.641L373.82 705.186L381.07 705.731L388.32 706.277L395.57 706.822L402.82 707.367L410.07 707.913L417.31 708.458L424.56 709.003L431.81 709.549L439.06 710.094L446.31 710.639L453.56 711.185L460.8 711.73L468.05 712.275L475.3 712.821L482.55 713.366L489.8 713.911L497.05 714.456L504.37 714.729L511.62 715.274L518.87 715.82L526.12 716.365L533.37 716.91L540.61 717.456L547.86 718.001L555.11 718.546L562.36 719.092L569.61 719.637L576.86 720.182L584.1 720.728L591.35 721.273L598.6 721.818L605.85 722.363L613.1 722.909L620.35 723.454L627.59 723.999L634.84 724.545L642.09 725.09L649.34 725.635L656.59 726.181L663.84 726.726L671.08 727.271L678.33 727.817L685.58 728.362L692.83 728.907L700 729.725ZM0.98999 2.50299L11.87 13.855L22.76 25.208L33.64 36.56L44.53 47.913L55.41 59.265L66.3 70.617L77.1899 81.97L88.0699 93.3222L98.96 104.675L109.84 116.027L120.73 127.379L131.61 138.732L142.5 150.084L153.38 161.436L164.27 172.789L175.16 184.141L186.04 195.494L196.93 206.846L207.81 218.198L218.7 229.551L229.58 240.903L240.47 252.256L251.35 263.608L262.24 274.96L273.13 286.313L284.01 297.665L294.9 309.018L305.78 320.37L316.67 331.722L327.55 343.075L338.44 354.427L349.32 365.78L360.21 377.132L371.1 388.484L381.98 399.837L392.87 411.189L403.75 422.541L414.64 433.894L425.52 445.246L436.41 456.599L446.96 467.604L457.84 478.956L468.73 490.309L479.61 501.661L490.5 513.014L501.38 524.366L512.27 535.718L523.16 547.071L534.04 558.423L544.93 569.775L555.81 581.128L566.7 592.48L577.58 603.833L588.47 615.185L599.35 626.537L610.24 637.89L621.13 649.242L632.01 660.595L642.9 671.947L653.78 683.299L664.67 694.652L675.37 705.806L686.26 717.158L697.14 728.486L689.95 727.941L682.75 727.395L675.55 726.85L668.36 726.305L661.16 725.759L653.96 725.214L646.77 724.669L639.57 724.123L632.37 723.578L625.18 723.033L617.98 722.487L610.79 721.942L603.59 721.397L596.39 720.851L589.2 720.306L582 719.761L574.8 719.216L567.61 718.67L560.41 718.125L553.21 717.58L546.02 717.034L538.82 716.489L531.62 715.944L524.43 715.398L517.23 714.853L510.04 714.308L502.84 713.762L495.64 713.217L488.45 712.672L481.25 712.126L474.05 711.581L466.86 711.036L459.66 710.491L452.46 709.945L445.27 709.4L438.07 708.855L430.88 708.309L423.68 707.764L416.48 707.219L409.29 706.673L402.09 706.128L394.89 705.583L387.7 705.037L380.5 704.492L373.3 703.947L366.11 703.402L358.91 702.856L351.71 702.311L344.52 701.766L337.32 701.22L330.13 700.675L322.93 700.13L315.73 699.584L308.54 699.039L301.34 698.494L294.14 697.948L286.95 697.403L279.75 696.858L272.55 696.312L265.36 695.767L258.16 695.222L250.96 694.677L243.77 694.131L236.57 693.586L233.01 689.868L229.45 686.15L225.89 682.432L222.34 678.714L218.78 674.996L215.22 671.278L211.66 667.56L208.1 663.842L204.54 660.124L200.98 656.406L197.42 652.688L193.86 648.97L190.3 645.251L186.74 641.533L183.18 637.815L179.62 634.097L176.07 630.379L172.51 626.661L168.95 622.943L165.39 619.225L161.83 615.507L158.27 611.789L154.71 608.071L151.15 604.353L147.59 600.635L144.03 596.917L140.47 593.199L136.91 589.481L133.35 585.763L129.8 582.045L126.24 578.327L122.68 574.609L119.12 570.891L115.56 567.173L112 563.455L108.44 559.737L104.88 556.019L101.32 552.301L97.76 548.583L94.2 544.865L90.64 541.147L87.08 537.429L83.53 533.711L79.97 529.993L76.41 526.274L72.85 522.556L69.29 518.838L65.73 515.12L62.17 511.402L58.61 507.684L55.05 503.966L51.49 500.248L47.9301 496.53L44.37 492.812L40.8101 489.094L37.26 485.376L33.7 481.658L30.14 477.94L26.58 474.222L23.02 470.504L19.46 466.786L15.9 463.068L12.34 459.35L8.78003 455.632L8.65002 448.568L8.52002 441.503L8.39001 434.439L8.26001 427.375L8.13 420.311L8 413.246L7.87 406.182L7.73999 399.118L7.60999 392.054L7.47998 384.989L7.34998 377.925L7.21997 370.861L7.08997 363.797L6.95996 356.732L6.82996 349.668L6.69995 342.604L6.56995 335.54L6.43994 328.475L6.31006 321.411L6.18005 314.347L6.05005 307.282L5.92004 300.218L5.79004 293.154L5.66003 286.09L5.53003 279.025L5.40002 271.961L5.27002 264.897L5.14001 257.833L5.01001 250.768L4.88 243.704L4.75 236.64L4.62 229.576L4.48999 222.511L4.35999 215.447L4.22998 208.383L4.09998 201.319L3.96997 194.254L3.83997 187.19L3.71997 180.126L3.58997 173.062L3.45996 165.997L3.32996 158.933L3.19995 151.869L3.06995 144.804L2.93994 137.74L2.81006 130.676L2.68005 123.612L2.55005 116.547L2.42004 109.483L2.29004 102.419L2.16003 95.3547L2.03003 88.29L1.90002 81.226L1.77002 74.162L1.64001 67.098L1.51001 60.033L1.38 52.969L1.25 45.905L1.12 38.841L0.98999 31.776L0.859985 24.712L0.72998 17.648L0.599976 10.584L0.98999 2.50299Z" fill="url(#paint0_linear_400_2)"/>
<path d="M251.64 694.379L247.85 690.413L244.05 686.447L240.24 682.481L236.44 678.516L232.65 674.55L228.83 670.584L225.04 666.643L221.24 662.677L217.43 658.711L213.63 654.745L209.84 650.779L206.02 646.813L202.23 642.847L198.43 638.881L194.61 634.915L190.82 630.95L187.03 626.984L183.21 623.018L179.42 619.052L175.62 615.086L171.8 611.12L168.01 607.154L164.22 603.213L160.43 599.247L156.61 595.281L152.81 591.315L149.02 587.349L145.2 583.384L141.41 579.418L137.62 575.452L133.8 571.486L130 567.52L126.21 563.554L122.39 559.588L118.6 555.622L114.8 551.656L110.99 547.69L107.19 543.725L103.4 539.783L99.58 535.818L95.79 531.852L91.99 527.886L88.1801 523.92L84.38 519.954L80.59 515.988L76.77 512.022L72.98 508.056L69.1801 504.09L65.37 500.124L61.5699 496.159L57.78 492.193L53.96 488.227L50.17 484.261L46.37 480.295L42.55 476.354L38.76 472.388L34.97 468.422L31.1801 464.456L27.36 460.49L23.5601 456.524L19.77 452.558L15.95 448.593L12.16 444.627L8.37 440.661L8.33997 440.686H8.31006V440.71H8.29004V440.735H8.26001V440.76H8.23999V440.785H8.20996V440.809H8.18005V440.834H8.16003V440.859H8.13L8.10999 440.884L8.07996 440.909L8.05005 440.933L8.03003 440.958V440.983H8V441.008H7.97998V441.033H7.94995L7.92004 441.057L7.90002 441.082L7.87 441.107L7.84998 441.132L7.81995 441.156L7.79004 441.181L7.77002 441.206L7.73999 441.231H7.71997V441.256H7.68994V441.28H7.66003V441.305L7.64001 441.33L7.60999 441.355L7.58997 441.38L7.56006 441.404H7.53003V441.429H7.51001V441.454H7.47998V441.479H7.45996L11.28 445.445L15.0699 449.41L18.86 453.376L22.6801 457.342L26.47 461.308L30.27 465.274L34.09 469.24L37.88 473.206L41.67 477.172L45.46 481.138L49.28 485.104L53.08 489.069L56.87 493.011L60.6899 496.976L64.48 500.942L68.27 504.908L72.09 508.874L75.89 512.84L79.6801 516.806L83.5 520.772L87.29 524.738L91.09 528.704L94.9 532.67L98.7 536.635L102.49 540.601L106.31 544.567L110.1 548.533L113.9 552.474L117.71 556.44L121.51 560.406L125.3 564.372L129.12 568.338L132.91 572.304L136.71 576.27L140.52 580.236L144.32 584.201L148.11 588.167L151.93 592.133L155.72 596.099L159.52 600.065L163.34 604.031L167.13 607.997L170.92 611.963L174.74 615.904L178.53 619.87L182.33 623.836L186.12 627.802L189.94 631.768L193.73 635.733L197.52 639.699L201.34 643.665L205.14 647.631L208.93 651.597L212.75 655.563L216.54 659.529L220.33 663.495L224.15 667.461L227.95 671.427L231.74 675.392L235.56 679.334L239.35 683.299L243.15 687.265L246.96 691.231L250.76 695.197H250.78V695.172H250.81V695.148H250.84V695.123H250.86V695.098H250.89V695.073H250.91V695.048L250.94 695.024H250.97V694.999H250.99V694.974H251.02V694.949H251.04V694.925H251.07V694.9H251.09V694.875H251.12V694.85H251.15L251.17 694.825L251.2 694.801L251.22 694.776L251.25 694.751L251.28 694.726L251.3 694.701V694.677H251.33L251.35 694.652L251.38 694.627L251.41 694.602L251.43 694.577L251.46 694.553L251.48 694.528L251.51 694.503L251.54 694.478H251.56V694.454H251.59V694.429H251.61V694.404H251.64V694.379Z" fill="url(#paint1_linear_400_2)"/>
<path d="M268.32 695.668L264.27 691.43L260.19 687.191L256.14 682.928L252.06 678.689L248 674.451L243.92 670.212L239.87 665.973L235.79 661.735L231.74 657.496L227.66 653.258L223.58 649.019L219.53 644.781L215.45 640.542L211.4 636.304L207.32 632.04L203.27 627.802L199.19 623.563L195.13 619.325L191.06 615.086L187 610.847L182.92 606.609L178.87 602.37L174.79 598.132L170.74 593.893L166.66 589.655L162.61 585.416L158.53 581.153L154.48 576.914L150.4 572.676L146.34 568.437L142.27 564.198L138.21 559.96L134.13 555.721L130.06 551.483L126 547.244L121.92 543.006L117.87 538.767L113.79 534.529L109.74 530.265L105.66 526.027L101.61 521.788L97.5303 517.55L93.4802 513.311L89.4003 509.072L85.3402 504.834L81.2603 500.595L77.2102 496.357L73.1302 492.118L69.0802 487.88L65.0002 483.641L60.9502 479.378L56.8702 475.139L52.8202 470.901L48.7402 466.662L44.6902 462.424L40.6102 458.185L36.5303 453.946L32.4702 449.708L28.4003 445.469L24.3402 441.231L20.2603 436.992L16.2102 432.754L12.1302 428.49L8.0802 424.252L8.05029 424.277L8.03027 424.301L8.00024 424.326L7.98022 424.351V424.376H7.9502L7.92029 424.401L7.90027 424.425L7.87024 424.45L7.85022 424.475L7.82019 424.5L7.79028 424.524L7.77026 424.549H7.74023V424.574H7.72021V424.599H7.69019V424.624H7.66028V424.648H7.64026V424.673H7.61023V424.698L7.59021 424.723L7.5603 424.748H7.53027V424.772H7.51025V424.797H7.48022V424.822H7.46021V424.847H7.4303V424.871H7.40027V424.896H7.38025L7.35022 424.921L7.3302 424.946L7.30029 424.971L7.27026 424.995L7.25024 425.02L7.22021 425.045V425.07H7.2002V425.095L11.2502 429.333L15.3302 433.572L19.3802 437.81L23.4602 442.049L27.5103 446.287L31.5902 450.526L35.6403 454.764L39.7202 459.003L43.7803 463.242L47.8502 467.48L51.9103 471.719L55.9902 475.982L60.0403 480.221L64.1202 484.459L68.1703 488.698L72.2502 492.936L76.3003 497.175L80.3802 501.413L84.4303 505.652L88.5103 509.89L92.5702 514.129L96.6503 518.368L100.72 522.606L104.78 526.869L108.86 531.108L112.91 535.347L116.99 539.585L121.04 543.824L125.12 548.062L129.17 552.301L133.25 556.539L137.3 560.778L141.38 565.016L145.44 569.255L149.51 573.494L153.57 577.757L157.65 581.995L161.7 586.234L165.78 590.473L169.83 594.711L173.91 598.95L177.96 603.188L182.04 607.427L186.09 611.665L190.17 615.904L194.25 620.142L198.3 624.381L202.38 628.644L206.44 632.883L210.51 637.121L214.57 641.36L218.65 645.599L222.7 649.837L226.78 654.076L230.83 658.314L234.91 662.553L238.96 666.791L243.04 671.03L247.09 675.268L251.17 679.532L255.23 683.77L259.3 688.009L263.36 692.247L267.44 696.486V696.461H267.46V696.436H267.49L267.51 696.412L267.54 696.387L267.57 696.362L267.59 696.337L267.62 696.313L267.64 696.288L267.67 696.263H267.7V696.238L267.72 696.213L267.75 696.189L267.77 696.164L267.8 696.139L267.83 696.114L267.85 696.089H267.88V696.065H267.9V696.04H267.93V696.015H267.96V695.99H267.98V695.966H268.01V695.941H268.03V695.916H268.06L268.09 695.891V695.866H268.11V695.842H268.14V695.817H268.16V695.792H268.19V695.767H268.22V695.742H268.24L268.27 695.718L268.29 695.693L268.32 695.668Z" fill="url(#paint2_linear_400_2)"/>
<path d="M287.49 697.13L283.13 692.57L278.76 688.009L274.4 683.448L270.01 678.887L265.64 674.351L261.28 669.791L256.91 665.23L252.52 660.669L248.16 656.108L243.8 651.547L239.43 646.987L235.04 642.426L230.68 637.865L226.31 633.304L221.95 628.768L217.56 624.208L213.19 619.647L208.83 615.086L204.46 610.525L200.07 605.964L195.71 601.404L191.34 596.843L186.98 592.282L182.59 587.721L178.22 583.185L173.86 578.624L169.49 574.064L165.1 569.503L160.74 564.942L156.37 560.381L152.01 555.821L147.62 551.26L143.25 546.699L138.89 542.138L134.52 537.602L130.13 533.041L125.77 528.481L121.4 523.92L117.04 519.359L112.65 514.798L108.28 510.237L103.92 505.677L99.5604 501.116L95.1604 496.555L90.8004 492.019L86.4403 487.458L82.0703 482.898L77.6804 478.337L73.3203 473.776L68.9503 469.215L64.5903 464.654L60.2003 460.094L55.8303 455.533L51.4703 450.972L47.1003 446.436L42.7103 441.875L38.3503 437.315L33.9803 432.754L29.6204 428.193L25.2504 423.632L20.8604 419.071L16.5004 414.511L12.1304 409.95L7.77039 405.389L7.74036 405.414L7.72034 405.439L7.69031 405.463L7.6604 405.488L7.64038 405.513L7.61035 405.538L7.59033 405.562L7.56042 405.587H7.5304V405.612H7.51038V405.637H7.48035V405.662H7.46033V405.686H7.43042V405.711H7.40039V405.736H7.38037V405.761H7.35034L7.33032 405.786V405.81H7.30042V405.835H7.27039V405.86H7.25037V405.885H7.22034V405.91H7.20032V405.934H7.17041L7.14038 405.959L7.12036 405.984L7.09033 406.009L7.07031 406.033L7.04041 406.058L7.02039 406.083L6.99036 406.108H6.96033V406.133L6.94031 406.157L6.9104 406.182L6.89038 406.207L6.86035 406.232L11.2203 410.793L15.6104 415.329L19.9803 419.889L24.3403 424.45L28.7103 429.011L33.1003 433.572L37.4603 438.132L41.8303 442.693L46.1903 447.254L50.5803 451.815L54.9503 456.376L59.3104 460.912L63.6804 465.472L68.0703 470.033L72.4304 474.594L76.8004 479.155L81.1604 483.716L85.5504 488.276L89.9204 492.837L94.2804 497.398L98.6504 501.959L103.04 506.495L107.4 511.055L111.77 515.616L116.13 520.177L120.52 524.738L124.89 529.299L129.25 533.859L133.61 538.42L138.01 542.981L142.37 547.542L146.73 552.078L151.1 556.638L155.49 561.199L159.85 565.76L164.22 570.321L168.58 574.882L172.97 579.442L177.34 584.003L181.7 588.564L186.07 593.1L190.46 597.661L194.82 602.222L199.19 606.782L203.55 611.343L207.94 615.904L212.31 620.465L216.67 625.026L221.04 629.586L225.43 634.147L229.79 638.683L234.16 643.244L238.52 647.805L242.91 652.365L247.28 656.926L251.64 661.487L256.01 666.048L260.4 670.609L264.76 675.169L269.13 679.73L273.49 684.266L277.88 688.827L282.25 693.388L286.61 697.948H286.64V697.924H286.66V697.899H286.69V697.874H286.71V697.849H286.74V697.825L286.77 697.8L286.79 697.775H286.82V697.75H286.84V697.725H286.87V697.701H286.9V697.676H286.92V697.651H286.95V697.626H286.97V697.601H287L287.03 697.577L287.05 697.552L287.08 697.527L287.1 697.502L287.13 697.477V697.453H287.16V697.428H287.18L287.21 697.403L287.23 697.378L287.26 697.354L287.29 697.329L287.31 697.304L287.34 697.279L287.36 697.254L287.39 697.23H287.42V697.205H287.44V697.18H287.47V697.155H287.49V697.13Z" fill="url(#paint3_linear_400_2)"/>
<path d="M309.78 698.841L305.05 693.908L300.33 688.976L295.6 684.068L290.87 679.135L286.17 674.203L281.44 669.27L276.71 664.337L271.98 659.43L267.25 654.497L262.53 649.565L257.8 644.632L253.07 639.699L248.37 634.792L243.64 629.859L238.91 624.926L234.18 619.994L229.45 615.086L224.73 610.153L220 605.221L215.29 600.288L210.57 595.356L205.84 590.448L201.11 585.515L196.38 580.583L191.65 575.65L186.92 570.717L182.2 565.81L177.49 560.877L172.77 555.944L168.04 551.012L163.31 546.079L158.58 541.171L153.85 536.239L149.12 531.306L144.4 526.374L139.69 521.441L134.97 516.533L130.24 511.601L125.51 506.668L120.78 501.736L116.05 496.828L111.32 491.895L106.6 486.963L101.89 482.03L97.1603 477.097L92.4402 472.19L87.7102 467.257L82.9802 462.324L78.2502 457.392L73.5203 452.459L68.8202 447.551L64.0902 442.619L59.3602 437.686L54.6403 432.754L49.9103 427.821L45.1803 422.913L40.4502 417.981L35.7202 413.048L31.0203 408.116L26.2903 403.183L21.5603 398.275L16.8302 393.343L12.1102 388.41L7.38025 383.477V383.502H7.35022V383.527H7.3302V383.552H7.30029L7.27026 383.577L7.25024 383.601V383.626H7.22021V383.651H7.2002V383.676H7.17029V383.7H7.14026V383.725H7.12024L7.09021 383.75L7.07019 383.775L7.04028 383.8L7.01025 383.824L6.99023 383.849L6.96021 383.874L6.94019 383.899H6.91028V383.924H6.88025V383.948L6.86023 383.973L6.8302 383.998L6.8103 384.023L6.78027 384.047L6.75024 384.072L6.73022 384.097H6.7002V384.122H6.6803V384.147H6.65027V384.171H6.62024V384.196H6.60022V384.221H6.57019V384.246H6.55029L6.52026 384.271L6.49023 384.295L11.2202 389.228L15.9502 394.161L20.6503 399.093L25.3802 404.026L30.1102 408.934L34.8402 413.866L39.5702 418.799L44.3003 423.731L49.0203 428.664L53.7502 433.572L58.4502 438.504L63.1803 443.437L67.9103 448.369L72.6403 453.302L77.3702 458.21L82.1002 463.142L86.8202 468.075L91.5503 473.008L96.2603 477.94L100.98 482.848L105.71 487.781L110.44 492.713L115.17 497.646L119.9 502.554L124.63 507.486L129.35 512.419L134.06 517.351L138.78 522.284L143.51 527.192L148.24 532.124L152.97 537.057L157.7 541.989L162.43 546.922L167.15 551.83L171.86 556.762L176.58 561.695L181.31 566.628L186.04 571.56L190.77 576.468L195.5 581.401L200.23 586.333L204.93 591.266L209.66 596.198L214.39 601.106L219.11 606.039L223.84 610.971L228.57 615.904L233.3 620.812L238.03 625.744L242.73 630.677L247.46 635.609L252.19 640.542L256.91 645.45L261.64 650.382L266.37 655.315L271.1 660.248L275.83 665.18L280.53 670.088L285.26 675.021L289.99 679.953L294.71 684.886L299.44 689.818L304.17 694.726L308.9 699.659L308.93 699.634L308.95 699.609L308.98 699.584L309 699.56V699.535H309.03L309.06 699.51L309.08 699.485L309.11 699.46L309.13 699.436L309.16 699.411L309.19 699.386L309.21 699.361H309.24V699.337H309.26V699.312H309.29V699.287H309.32V699.262H309.34V699.237H309.37V699.213L309.39 699.188L309.42 699.163H309.45V699.138H309.47V699.113H309.5V699.089H309.52V699.064H309.55V699.039H309.58V699.014H309.6L309.63 698.99L309.65 698.965L309.68 698.94L309.71 698.915L309.73 698.89L309.76 698.866V698.841H309.78Z" fill="url(#paint4_linear_400_2)"/>
<path d="M336 700.848L330.85 695.494L325.71 690.116L320.56 684.762L315.42 679.408L310.28 674.054L305.13 668.675L299.99 663.321L294.87 657.967L289.73 652.588L284.58 647.234L279.44 641.88L274.29 636.502L269.15 631.148L264.01 625.794L258.86 620.44L253.72 615.061L248.57 609.707L243.46 604.353L238.31 598.974L233.17 593.62L228.02 588.266L222.88 582.888L217.74 577.534L212.59 572.18L207.45 566.801L202.3 561.447L197.16 556.093L192.04 550.739L186.9 545.36L181.75 540.006L176.61 534.652L171.47 529.274L166.32 523.92L161.18 518.566L156.03 513.187L150.89 507.833L145.77 502.479L140.63 497.1L135.48 491.746L130.34 486.392L125.2 481.038L120.05 475.66L114.91 470.306L109.76 464.952L104.62 459.573L99.4797 454.219L94.3597 448.865L89.2097 443.486L84.0697 438.132L78.9298 432.778L73.7798 427.4L68.6398 422.046L63.4897 416.692L58.3497 411.338L53.2097 405.959L48.0598 400.605L42.9397 395.251L37.7998 389.872L32.6598 384.518L27.5098 379.164L22.3698 373.786L17.2197 368.432L12.0797 363.078L6.9397 357.699V357.724H6.90979V357.749L6.87976 357.773L6.85974 357.798L6.82971 357.823H6.80981V357.848H6.77979V357.872H6.74976V357.897H6.72974V357.922H6.69971V357.947H6.67981V357.972H6.64978V357.996H6.61975L6.59973 358.021L6.5697 358.046L6.5498 358.071L6.51978 358.096V358.12H6.49976V358.145H6.46973V358.17H6.4397L6.4198 358.195L6.38977 358.219L6.36975 358.244L6.33972 358.269L6.30981 358.294L6.28979 358.319L6.25977 358.343L6.23975 358.368H6.20972V358.393H6.17981V358.418H6.15979V358.443L6.12976 358.467L6.10974 358.492L6.07971 358.517L6.0498 358.542L11.1997 363.896L16.3397 369.25L21.4897 374.628L26.6298 379.982L31.7498 385.336L36.8898 390.69L42.0398 396.069L47.1798 401.423L52.3197 406.777L57.4697 412.156L62.6097 417.51L67.7598 422.864L72.8998 428.242L78.0398 433.596L83.1598 438.95L88.3098 444.329L93.4497 449.683L98.5897 455.037L103.74 460.391L108.88 465.77L114.03 471.124L119.17 476.478L124.31 481.856L129.46 487.21L134.58 492.564L139.72 497.943L144.86 503.297L150.01 508.651L155.15 514.03L160.3 519.384L165.44 524.738L170.58 530.092L175.73 535.47L180.85 540.824L185.99 546.178L191.13 551.557L196.28 556.911L201.42 562.265L206.57 567.644L211.71 572.998L216.85 578.352L222 583.73L227.14 589.084L232.26 594.438L237.4 599.792L242.55 605.171L247.69 610.525L252.84 615.879L257.98 621.258L263.12 626.612L268.27 631.966L273.41 637.344L278.53 642.698L283.67 648.052L288.82 653.431L293.96 658.785L299.11 664.139L304.25 669.493L309.39 674.872L314.54 680.226L319.68 685.58L324.83 690.958L329.94 696.312L335.09 701.666H335.11V701.642H335.14L335.17 701.617L335.19 701.592L335.22 701.567L335.24 701.542L335.27 701.518L335.3 701.493V701.468H335.32V701.443H335.35L335.37 701.419L335.4 701.394L335.43 701.369L335.45 701.344L335.48 701.319L335.5 701.295L335.53 701.27H335.56V701.245H335.58V701.22H335.61V701.195H335.63V701.171H335.66V701.146H335.69V701.121L335.71 701.096L335.74 701.071H335.76V701.047H335.79V701.022H335.82V700.997H335.84V700.972H335.87V700.948H335.89V700.923H335.92L335.94 700.898L335.97 700.873L336 700.848Z" fill="url(#paint5_linear_400_2)"/>
<path d="M367.25 703.253L361.61 697.378L355.98 691.479L350.34 685.605L344.7 679.73L339.06 673.856L333.42 667.981L327.79 662.082L322.15 656.207L316.51 650.333L310.87 644.458L305.24 638.584L299.6 632.685L293.96 626.81L288.32 620.936L282.69 615.061L277.05 609.187L271.41 603.287L265.77 597.413L260.14 591.538L254.5 585.664L248.86 579.765L243.22 573.89L237.59 568.016L231.95 562.141L226.31 556.267L220.67 550.367L215.03 544.493L209.4 538.618L203.76 532.744L198.12 526.869L192.48 520.97L186.85 515.096L181.21 509.221L175.57 503.347L169.93 497.472L164.3 491.573L158.66 485.698L153.02 479.824L147.38 473.949L141.75 468.075L136.11 462.176L130.47 456.301L124.83 450.427L119.19 444.552L113.56 438.653L107.92 432.778L102.28 426.904L96.6403 421.029L91.0103 415.155L85.3402 409.256L79.7102 403.381L74.0702 397.507L68.4303 391.632L62.7903 385.758L57.1603 379.858L51.5203 373.984L45.8802 368.109L40.2402 362.235L34.6002 356.36L28.9702 350.461L23.3302 344.587L17.6902 338.712L12.0503 332.838L6.42029 326.963L6.39026 326.988L6.36023 327.013L6.34021 327.038H6.3103V327.062H6.29028V327.087H6.26025V327.112H6.23022V327.137H6.21021V327.162H6.1803V327.186H6.16028V327.211H6.13025L6.10022 327.236L6.0802 327.261L6.05029 327.285V327.31H6.03027V327.335H6.00024V327.36H5.98022V327.385H5.9502L5.92029 327.409L5.90027 327.434L5.87024 327.459L5.85022 327.484L5.82019 327.509L5.79028 327.533L5.77026 327.558H5.74023V327.583H5.72021V327.608H5.69019V327.632L5.66028 327.657L5.64026 327.682L5.61023 327.707L5.59021 327.732L5.5603 327.756H5.53027V327.781L11.1703 333.656L16.8103 339.53L22.4502 345.405L28.0802 351.304L33.7202 357.178L39.3602 363.053L45.0002 368.927L50.6302 374.802L56.2703 380.701L61.9103 386.576L67.5503 392.45L73.1803 398.325L78.8202 404.199L84.4602 410.098L90.1002 415.973L95.7402 421.847L101.37 427.722L107.01 433.596L112.65 439.496L118.29 445.37L123.92 451.245L129.56 457.119L135.2 462.994L140.84 468.893L146.47 474.767L152.11 480.642L157.75 486.516L163.39 492.416L169.02 498.29L174.66 504.165L180.3 510.039L185.96 515.914L191.6 521.813L197.24 527.687L202.88 533.562L208.51 539.436L214.15 545.311L219.79 551.21L225.43 557.085L231.06 562.959L236.7 568.834L242.34 574.708L247.98 580.607L253.61 586.482L259.25 592.356L264.89 598.231L270.53 604.105L276.17 610.005L281.8 615.879L287.44 621.754L293.08 627.628L298.72 633.527L304.35 639.402L309.99 645.276L315.63 651.151L321.27 657.025L326.9 662.925L332.54 668.799L338.18 674.673L343.82 680.548L349.45 686.423L355.09 692.322L360.73 698.196L366.37 704.071H366.39V704.046L366.42 704.021L366.44 703.996L366.47 703.972L366.5 703.947L366.52 703.922H366.55V703.897H366.57V703.872H366.6V703.848H366.63V703.823H366.65V703.798H366.68V703.773H366.7L366.73 703.749L366.76 703.724L366.78 703.699V703.674H366.81V703.649H366.83V703.625H366.86V703.6H366.89V703.575H366.91L366.94 703.55L366.96 703.525L366.99 703.501L367.02 703.476L367.04 703.451L367.07 703.426L367.09 703.402H367.12V703.377H367.15V703.352L367.17 703.327L367.2 703.302L367.22 703.278L367.25 703.253Z" fill="url(#paint6_linear_400_2)"/>
<path d="M405.23 706.153L398.97 699.659L392.74 693.14L386.5 686.646L380.27 680.127L374.01 673.608L367.77 667.114L361.54 660.595L355.3 654.1L349.06 647.582L342.8 641.087L336.57 634.568L330.33 628.049L324.1 621.555L317.84 615.036L311.6 608.542L305.37 602.023L299.13 595.504L292.87 589.01L286.64 582.491L280.4 575.997L274.17 569.478L267.93 562.984L261.67 556.465L255.43 549.946L249.2 543.452L242.96 536.933L236.7 530.439L230.47 523.92L224.23 517.426L218 510.907L211.74 504.388L205.5 497.894L199.27 491.375L193.03 484.88L186.79 478.362L180.53 471.843L174.3 465.348L168.06 458.829L161.83 452.335L155.57 445.816L149.33 439.322L143.1 432.803L136.86 426.284L130.6 419.79L124.37 413.271L118.13 406.777L111.9 400.258L105.66 393.739L99.3999 387.245L93.1599 380.726L86.9299 374.232L80.6898 367.713L74.4299 361.219L68.1998 354.7L61.9598 348.181L55.7299 341.687L49.4698 335.168L43.2299 328.674L36.9999 322.155L30.7599 315.66L24.5199 309.141L18.2599 302.623L12.0299 296.128L5.78992 289.609L5.7699 289.634L5.73987 289.659L5.71985 289.684L5.68982 289.709L5.65991 289.733H5.63989V289.758H5.60986V289.783H5.58984V289.808H5.55994V289.832L5.52991 289.857L5.50989 289.882L5.47986 289.907H5.45984V289.932H5.42993V289.956H5.3999V289.981H5.37988V290.006H5.34985V290.031H5.32983V290.056H5.29993V290.08H5.2699L5.24988 290.105L5.21985 290.13L5.19983 290.155L5.16992 290.179V290.204H5.13989V290.229H5.11987V290.254H5.08984L5.06982 290.279L5.03992 290.303L5.00989 290.328L4.98987 290.353L4.95984 290.378L4.93982 290.403L4.90991 290.427H4.87988L11.1499 296.946L17.3799 303.465L23.6199 309.959L29.8499 316.478L36.1099 322.973L42.3499 329.492L48.5798 335.986L54.8198 342.505L61.0798 349.024L67.3099 355.518L73.5499 362.037L79.7799 368.531L86.0499 375.05L92.2799 381.544L98.5199 388.063L104.75 394.582L110.99 401.076L117.25 407.595L123.48 414.089L129.72 420.608L135.95 427.127L142.21 433.621L148.45 440.14L154.68 446.634L160.92 453.153L167.18 459.647L173.42 466.166L179.65 472.685L185.89 479.179L192.12 485.698L198.38 492.193L204.62 498.712L210.85 505.23L217.09 511.725L223.35 518.244L229.58 524.738L235.82 531.257L242.05 537.751L248.32 544.27L254.55 550.789L260.79 557.283L267.02 563.802L273.26 570.296L279.52 576.815L285.75 583.309L291.99 589.828L298.22 596.347L304.48 602.841L310.72 609.36L316.95 615.854L323.19 622.373L329.45 628.892L335.69 635.386L341.92 641.905L348.16 648.399L354.39 654.918L360.65 661.413L366.89 667.932L373.12 674.45L379.36 680.945L385.62 687.464L391.85 693.958L398.09 700.477L404.32 706.996L404.35 706.971V706.946H404.38V706.921H404.4L404.43 706.896L404.45 706.872L404.48 706.847L404.51 706.822L404.53 706.797L404.56 706.773L404.58 706.748H404.61V706.723H404.64V706.698H404.66V706.673H404.69V706.649H404.71V706.624L404.74 706.599L404.77 706.574L404.79 706.549H404.82V706.525H404.84V706.5H404.87V706.475H404.9V706.45H404.92V706.426H404.95V706.401H404.97L405 706.376L405.03 706.351L405.05 706.326L405.08 706.302L405.1 706.277L405.13 706.252V706.227H405.16V706.202H405.18L405.21 706.178L405.23 706.153Z" fill="url(#paint7_linear_400_2)"/>
<path d="M452.28 709.772L445.29 702.484L438.31 695.197L431.32 687.91L424.33 680.622L417.34 673.335L410.35 666.048L403.36 658.76L396.37 651.473L389.39 644.186L382.4 636.898L375.41 629.611L368.42 622.324L361.43 615.036L354.44 607.749L347.45 600.462L340.47 593.174L333.48 585.862L326.49 578.575L319.5 571.288L312.51 564L305.52 556.713L298.53 549.426L291.55 542.138L284.56 534.851L277.57 527.563L270.58 520.276L263.59 512.989L256.6 505.701L249.61 498.414L242.63 491.127L235.64 483.839L228.65 476.552L221.66 469.265L214.67 461.977L207.68 454.69L200.69 447.403L193.71 440.115L186.72 432.828L179.73 425.541L172.74 418.253L165.75 410.966L158.76 403.679L151.77 396.391L144.79 389.104L137.8 381.817L130.81 374.529L123.82 367.242L116.83 359.955L109.84 352.642L102.85 345.355L95.8696 338.068L88.8796 330.78L81.8896 323.493L74.8997 316.206L67.9097 308.918L60.9197 301.631L53.9297 294.344L46.9496 287.056L39.9596 279.769L32.9696 272.482L25.9796 265.194L18.9896 257.907L11.9996 250.62L5.00964 243.332L4.98962 243.357H4.95959V243.382H4.93958V243.407H4.90967V243.431H4.87964V243.456H4.85962V243.481H4.82959V243.506H4.80969L4.77966 243.531L4.74963 243.555L4.72961 243.58L4.69958 243.605L4.67969 243.63L4.64966 243.655L4.61963 243.679V243.704H4.59961L4.56958 243.729L4.54968 243.754L4.51965 243.778L4.48962 243.803L4.4696 243.828L4.43958 243.853L4.41968 243.878H4.38965V243.902H4.35962V243.927H4.3396V243.952H4.30969V243.977H4.28967V244.002H4.25964V244.026L4.22961 244.051H4.20959V244.076H4.17969V244.101H4.15967V244.125H4.12964V244.15H4.09961L11.0896 251.438L18.0796 258.725L25.0696 266.012L32.0597 273.3L39.0497 280.587L46.0397 287.874L53.0197 295.162L60.0096 302.449L66.9996 309.736L73.9896 317.049L80.9796 324.336L87.9696 331.623L94.9596 338.911L101.94 346.198L108.93 353.485L115.92 360.773L122.91 368.06L129.9 375.347L136.89 382.635L143.88 389.922L150.86 397.209L157.85 404.497L164.84 411.784L171.83 419.071L178.82 426.359L185.81 433.646L192.8 440.933L199.78 448.221L206.77 455.508L213.76 462.795L220.75 470.083L227.74 477.37L234.73 484.657L241.72 491.945L248.7 499.232L255.69 506.519L262.68 513.807L269.67 521.094L276.66 528.381L283.65 535.669L290.64 542.956L297.62 550.268L304.61 557.556L311.6 564.843L318.59 572.13L325.58 579.418L332.57 586.705L339.56 593.992L346.54 601.28L353.53 608.567L360.52 615.854L367.51 623.142L374.5 630.429L381.49 637.716L388.48 645.004L395.46 652.291L402.48 659.578L409.47 666.866L416.46 674.153L423.45 681.44L430.43 688.728L437.42 696.015L444.41 703.302L451.4 710.59L451.43 710.565L451.45 710.54L451.48 710.515L451.5 710.491L451.53 710.466V710.441H451.56L451.58 710.416L451.61 710.391L451.63 710.367L451.66 710.342L451.69 710.317L451.71 710.292L451.74 710.268L451.76 710.243H451.79V710.218H451.82V710.193H451.84V710.168H451.87V710.144H451.89V710.119H451.92V710.094L451.94 710.069H451.97V710.044H452V710.02H452.02V709.995H452.05V709.97H452.07V709.945H452.1V709.921H452.13V709.896H452.15L452.18 709.871L452.2 709.846L452.23 709.821L452.26 709.797L452.28 709.772Z" fill="url(#paint8_linear_400_2)"/>
<path d="M512.14 714.357L504.19 706.079L496.27 697.8L488.32 689.521L480.39 681.242L472.44 672.963L464.49 664.684L456.57 656.406L448.62 648.127L440.7 639.848L432.75 631.569L424.8 623.29L416.87 615.011L408.92 606.733L401 598.454L393.05 590.175L385.1 581.896L377.18 573.617L369.23 565.339L361.28 557.06L353.35 548.756L345.4 540.477L337.48 532.199L329.53 523.92L321.58 515.641L313.65 507.362L305.71 499.083L297.78 490.804L289.83 482.526L281.88 474.247L273.96 465.968L266.01 457.689L258.08 449.41L250.13 441.132L242.18 432.853L234.26 424.574L226.31 416.295L218.39 408.016L210.44 399.737L202.49 391.459L194.56 383.18L186.61 374.901L178.66 366.622L170.74 358.343L162.79 350.04L154.87 341.761L146.92 333.482L138.97 325.203L131.04 316.925L123.09 308.646L115.17 300.367L107.22 292.088L99.2701 283.809L91.3501 275.53L83.4001 267.252L75.4701 258.973L67.5201 250.694L59.5701 242.415L51.6501 234.136L43.7001 225.857L35.7501 217.579L27.8201 209.3L19.8801 201.021L11.9501 192.742L4.00012 184.463L3.9801 184.488H3.95007V184.513H3.92017V184.538H3.90015V184.563H3.87012V184.587H3.8501V184.612H3.82007V184.637H3.79016L3.77014 184.662L3.74011 184.687V184.711H3.72009V184.736H3.69006V184.761H3.66016V184.786H3.64014V184.81H3.61011V184.835H3.59009L3.56018 184.86L3.53015 184.885L3.51013 184.91L3.4801 184.934L3.46008 184.959L3.43018 184.984L3.40015 185.009H3.38013V185.034L3.3501 185.058L3.33008 185.083L3.30017 185.108L3.27014 185.133L3.25012 185.157L3.22009 185.182H3.20007V185.207H3.17017V185.232H3.14014V185.257H3.12012V185.281L11.0402 193.56L18.9901 201.839L26.9401 210.118L34.8701 218.397L42.8201 226.675L50.7401 234.954L58.6901 243.233L66.6401 251.512L74.5602 259.791L82.5101 268.07L90.4401 276.348L98.3901 284.627L106.34 292.906L114.26 301.185L122.21 309.464L130.13 317.767L138.08 326.046L146.03 334.325L153.96 342.604L161.91 350.883L169.86 359.161L177.78 367.44L185.73 375.719L193.65 383.998L201.6 392.277L209.55 400.555L217.48 408.834L225.43 417.113L233.35 425.392L241.3 433.671L249.25 441.95L257.17 450.228L265.12 458.507L273.05 466.786L281 475.065L288.95 483.344L296.87 491.622L304.82 499.901L312.77 508.18L320.7 516.459L328.65 524.763L336.57 533.041L344.52 541.32L352.47 549.599L360.39 557.878L368.34 566.157L376.27 574.435L384.22 582.714L392.17 590.993L400.09 599.272L408.04 607.551L415.96 615.829L423.91 624.108L431.86 632.387L439.79 640.666L447.74 648.945L455.66 657.224L463.61 665.502L471.56 673.781L479.48 682.06L487.43 690.339L495.38 698.618L503.31 706.896L511.26 715.175L511.28 715.15L511.31 715.126L511.34 715.101L511.36 715.076H511.39V715.051H511.41V715.027H511.44V715.002H511.47V714.977H511.49V714.952H511.52V714.927H511.54L511.57 714.903L511.6 714.878L511.62 714.853V714.828H511.65V714.803H511.67V714.779H511.7V714.754H511.72L511.75 714.729L511.78 714.704L511.8 714.68L511.83 714.655L511.85 714.63L511.88 714.605L511.91 714.58L511.93 714.556H511.96V714.531H511.98V714.506L512.01 714.481L512.04 714.456L512.06 714.432L512.09 714.407L512.11 714.382H512.14V714.357Z" fill="url(#paint9_linear_400_2)"/>
<path d="M590.86 720.405L581.66 710.813L572.49 701.245L563.29 691.653L554.1 682.06L544.9 672.492L535.73 662.9L526.53 653.307L517.34 643.74L508.14 634.147L498.97 624.555L489.77 614.987L480.57 605.394L471.38 595.802L462.21 586.234L453.01 576.642L443.81 567.049L434.62 557.481L425.44 547.889L416.25 538.321L407.05 528.729L397.85 519.136L388.68 509.568L379.49 499.976L370.29 490.383L361.09 480.815L351.92 471.223L342.73 461.63L333.53 452.063L324.33 442.47L315.16 432.878L305.96 423.31L296.77 413.717L287.57 404.125L278.4 394.557L269.2 384.965L260.01 375.372L250.83 365.804L241.64 356.212L232.44 346.619L223.24 337.052L214.07 327.459L204.88 317.867L195.68 308.299L186.48 298.706L177.31 289.139L168.11 279.546L158.92 269.954L149.72 260.386L140.55 250.793L131.35 241.201L122.16 231.633L112.96 222.041L103.79 212.448L94.59 202.88L85.4 193.288L76.2 183.695L67.03 174.128L57.83 164.535L48.63 154.942L39.4399 145.375L30.27 135.782L21.0699 126.19L11.87 116.622L2.68005 107.029V107.054H2.65002V107.079H2.62V107.104H2.59998V107.129H2.56995V107.153H2.55005V107.178H2.52002L2.48999 107.203L2.46997 107.228L2.43994 107.253L2.42004 107.277L2.39001 107.302L2.35999 107.327V107.352H2.33997L2.31006 107.376L2.29004 107.401L2.26001 107.426L2.22998 107.451L2.20996 107.476L2.18005 107.5L2.16003 107.525L2.13 107.55H2.09998V107.575H2.07996V107.6H2.05005V107.624H2.03003V107.649H2V107.674L1.96997 107.699L1.94995 107.723H1.92004V107.748H1.90002V107.773H1.87V107.798H1.83997V107.823H1.81995V107.847H1.79004L10.99 117.44L20.1899 127.032L29.36 136.6L38.55 146.193L47.75 155.785L56.95 165.353L66.12 174.945L75.3199 184.513L84.51 194.106L93.71 203.698L102.88 213.266L112.08 222.858L121.27 232.451L130.47 242.019L139.64 251.611L148.84 261.204L158.03 270.772L167.23 280.364L176.4 289.957L185.6 299.524L194.8 309.117L203.97 318.709L213.16 328.277L222.36 337.87L231.56 347.462L240.73 357.03L249.93 366.622L259.12 376.215L268.32 385.783L277.49 395.375L286.69 404.968L295.88 414.535L305.08 424.128L314.25 433.696L323.45 443.288L332.65 452.881L341.84 462.448L351.01 472.041L360.21 481.633L369.41 491.201L378.6 500.794L387.77 510.386L396.97 519.954L406.17 529.546L415.36 539.139L424.54 548.707L433.73 558.299L442.93 567.892L452.13 577.459L461.3 587.052L470.49 596.645L479.69 606.212L488.89 615.805L498.06 625.397L507.26 634.965L516.45 644.558L525.65 654.15L534.82 663.718L544.02 673.31L553.21 682.878L562.41 692.471L571.58 702.063L580.78 711.631L589.98 721.223L590 721.199L590.03 721.174L590.05 721.149L590.08 721.124L590.1 721.099L590.13 721.075L590.16 721.05L590.18 721.025L590.21 721L590.23 720.975L590.26 720.951H590.29V720.926H590.31V720.901H590.34V720.876H590.36V720.852H590.39V720.827H590.42V720.802L590.44 720.777H590.47V720.752H590.49V720.728H590.52V720.703H590.55V720.678H590.57V720.653H590.6V720.628H590.62V720.604H590.65L590.68 720.579L590.7 720.554L590.73 720.529L590.75 720.505L590.78 720.48L590.81 720.455V720.43H590.83L590.86 720.405Z" fill="url(#paint10_linear_400_2)"/>
<path d="M44.5796 46.376H44.5597L44.5297 46.401H44.4996H44.4796V46.425H44.4496H44.4297L44.3997 46.45H44.3696H44.3496V46.475H44.3196H44.2997L44.2697 46.5H44.2396H44.2196V46.525H44.1896H44.1697L44.1396 46.549H44.1096H44.0896V46.574H44.0597H44.0397L44.0096 46.599H43.9796H43.9596V46.624H43.9297H43.9097L43.8796 46.648H43.8496L43.8296 46.673H43.7997H43.7797L43.7496 46.698H43.7196L43.6996 46.723H43.6697H43.6497L43.6196 46.748H43.5896V46.772H43.5696H43.5397L43.1996 53.39L42.8696 60.009L42.5297 66.627L42.1896 73.27L41.8496 79.888L41.5197 86.506L41.1797 93.1239L40.8396 99.742L40.4996 106.36L40.1697 112.978L39.8296 119.621L39.4896 126.239L39.1497 132.857L38.8097 139.475L38.4796 146.093L38.1396 152.711L37.7997 159.33L37.4596 165.972L37.1296 172.591L36.7897 179.209L36.4496 185.827L36.1096 192.445L35.7697 199.063L35.4396 205.681L35.0996 212.324L34.7596 218.942L34.4197 225.56L34.0896 232.178L33.7496 238.796L33.4097 245.414L33.0696 252.032L32.7296 258.675L32.3997 265.293L32.0597 271.912L31.7196 278.53L31.3796 285.148L31.0497 291.766L30.7096 298.384L30.3696 305.027L30.0297 311.645L29.6996 318.263L29.3596 324.881L29.0197 331.499L28.6797 338.117L28.3396 344.735L28.0096 351.378L27.6697 357.996L27.3296 364.615L26.9896 371.233L26.6597 377.851L26.3196 384.469L25.9796 391.087L25.6396 397.73L25.2997 404.348L24.9696 410.966L24.6296 417.584L24.2897 424.202L23.9496 430.82L23.6196 437.438L23.2797 444.081L22.9396 450.699L22.5996 457.317L22.2697 463.936L21.9297 470.554H21.9496V470.529H21.9796H22.0096L22.0297 470.504H22.0597H22.0796V470.479H22.1096H22.1396L22.1597 470.454H22.1896H22.2096V470.43H22.2396H22.2697L22.2897 470.405H22.3196H22.3396V470.38H22.3696H22.3896L22.4197 470.355H22.4496H22.4696V470.331H22.4996H22.5197L22.5497 470.306H22.5796L22.5996 470.281H22.6296H22.6497L22.6797 470.256H22.7096L22.7296 470.231H22.7596H22.7797L22.8097 470.207H22.8396L22.8596 470.182H22.8896H22.9097V470.157H22.9396L23.2797 463.539L23.6196 456.921L23.9496 450.303L24.2897 443.66L24.6296 437.042L24.9696 430.424L25.2997 423.806L25.6396 417.187L25.9796 410.569L26.3196 403.951L26.6597 397.308L26.9896 390.69L27.3296 384.072L27.6697 377.454L28.0096 370.836L28.3396 364.218L28.6797 357.6L29.0197 350.957L29.3596 344.339L29.6996 337.721L30.0297 331.103L30.3696 324.485L30.7096 317.866L31.0497 311.248L31.3796 304.605L31.7196 297.987L32.0597 291.369L32.4197 284.751L32.7596 278.133L33.0996 271.515L33.4396 264.897L33.7697 258.254L34.1096 251.636L34.4496 245.018L34.7897 238.4L35.1296 231.782L35.4596 225.164L35.7997 218.545L36.1396 211.903L36.4796 205.284L36.8097 198.666L37.1497 192.048L37.4896 185.43L37.8296 178.812L38.1597 172.194L38.4996 165.551L38.8396 158.933L39.1797 152.315L39.5197 145.697L39.8496 139.079L40.1896 132.461L40.5297 125.842L40.8696 119.2L41.1996 112.582L41.5397 105.963L41.8796 99.3454L42.2196 92.7273L42.5597 86.109L42.8896 79.491L43.2296 72.848L43.5696 66.23L43.9097 59.612L44.2396 52.994L44.5796 46.376Z" fill="url(#paint11_linear_400_2)"/>
<path d="M88.1995 91.9094H88.1796V91.9342H88.1495H88.1195H88.0995L88.0695 91.959H88.0496H88.0195L87.9895 91.9837H87.9695L87.9395 92.0085H87.9196H87.8895H87.8595V92.0333H87.8395H87.8096H87.7896V92.0581H87.7595H87.7295H87.7095V92.0829H87.6796H87.6595L87.6295 92.1077H87.5995H87.5795L87.5496 92.1325H87.5295H87.4995L87.4695 92.1573H87.4495H87.4196L87.3995 92.182H87.3695H87.3395V92.2068H87.3195H87.2896H87.2695L87.2395 92.2316H87.2095H87.1895L86.3795 98.3788L85.5995 104.526L84.7996 110.673L83.9895 116.82L83.2095 122.967L82.4095 129.115L81.5995 135.237L80.8195 141.384L80.0195 147.531L79.2095 153.678L78.4296 159.825L77.6295 165.973L76.8195 172.095L76.0396 178.242L75.2395 184.389L74.4296 190.536L73.6495 196.684L72.8495 202.831L72.0396 208.953L71.2595 215.1L70.4595 221.247L69.6495 227.394L68.8695 233.542L68.0695 239.689L67.2595 245.836L66.4795 251.958L65.6796 258.105L64.8695 264.253L64.0895 270.4L63.2896 276.547L62.4795 282.694L61.6995 288.816L60.8995 294.963L60.0895 301.111L59.3096 307.258L58.5095 313.405L57.6995 319.552L56.9196 325.699L56.1195 331.822L55.3096 337.969L54.5295 344.116L53.7295 350.263L52.9196 356.41L52.1395 362.557L51.3395 368.68L50.5295 374.827L49.7495 380.974L48.9495 387.121L48.1395 393.268L47.3595 399.415L46.5596 405.562L45.7495 411.685L44.9695 417.832L44.1696 423.979L43.3595 430.126L42.5596 436.273L41.7795 442.421L40.9695 448.543L40.1696 454.69L39.3895 460.837L38.5795 466.984L37.7695 473.132L36.9995 479.279L36.1895 485.401H36.2195H36.2395H36.2695V485.376H36.2896H36.3195H36.3495V485.351H36.3695H36.3995H36.4196V485.327H36.4495H36.4795L36.4995 485.302H36.5295H36.5496L36.5795 485.277H36.6095H36.6295L36.6595 485.252H36.6796H36.7095L36.7395 485.228H36.7595H36.7896L36.8096 485.203H36.8395H36.8695L36.8895 485.178H36.9196H36.9395L36.9695 485.153H36.9995H37.0195L37.0496 485.128H37.0695H37.0995V485.104H37.1295H37.1495H37.1796V485.079H37.1995L38.0095 478.932L38.8096 472.785L39.6195 466.637L40.3995 460.515L41.1995 454.368L42.0095 448.221L42.7896 442.074L43.5895 435.926L44.3995 429.779L45.1796 423.657L45.9795 417.51L46.7896 411.363L47.5695 405.215L48.3695 399.068L49.1796 392.921L49.9595 386.774L50.7595 380.652L51.5695 374.505L52.3495 368.357L53.1495 362.21L53.9595 356.063L54.7395 349.916L55.5496 343.794L56.3495 337.646L57.1295 331.499L57.9395 325.352L58.7395 319.205L59.5195 313.058L60.3295 306.911L61.1295 300.788L61.9095 294.641L62.7195 288.494L63.5195 282.347L64.2996 276.2L65.1095 270.053L65.9095 263.93L66.6895 257.783L67.4995 251.636L68.2996 245.489L69.0795 239.342L69.8895 233.195L70.6895 227.047L71.4695 220.925L72.2795 214.778L73.0795 208.631L73.8595 202.484L74.6696 196.337L75.4695 190.189L76.2495 184.067L77.0596 177.92L77.8595 171.773L78.6395 165.626L79.4495 159.478L80.2495 153.331L81.0295 147.209L81.8395 141.062L82.6395 134.915L83.4196 128.768L84.2295 122.62L85.0295 116.473L85.8096 110.326L86.6195 104.204L87.4196 98.0565L88.1995 91.9094Z" fill="url(#paint12_linear_400_2)"/>
<path d="M131.85 137.443L131.82 137.468H131.801H131.771H131.74H131.72V137.492H131.69H131.671H131.641L131.61 137.517H131.59H131.561H131.541L131.51 137.542H131.48H131.46H131.431L131.411 137.567H131.38H131.35H131.33V137.592H131.301H131.281H131.25L131.22 137.616H131.2H131.171H131.151H131.12V137.641H131.09H131.07H131.041L131.021 137.666H130.99H130.96H130.94L130.911 137.691H130.891H130.86H130.83L129.561 143.367L128.311 149.043L127.07 154.695L125.791 160.371L124.551 166.022L123.301 171.698L122.051 177.35L120.781 183.026L119.531 188.677L118.291 194.354L117.01 200.005L115.771 205.681L114.521 211.357L113.25 217.009L112 222.685L110.75 228.336L109.48 234.013L108.23 239.664L106.98 245.34L105.71 250.992L104.46 256.668L103.22 262.319L101.94 267.995L100.7 273.672L99.4504 279.323L98.1805 284.999L96.9305 290.651L95.6805 296.327L94.4105 301.978L93.1605 307.654L91.9205 313.306L90.6405 318.982L89.4005 324.633L88.1505 330.309L86.8805 335.986L85.6305 341.637L84.3805 347.313L83.1105 352.965L81.8605 358.641L80.6205 364.292L79.3405 369.968L78.1005 375.62L76.8505 381.296L75.5804 386.948L74.3304 392.624L73.0804 398.3L71.8105 403.951L70.5605 409.627L69.3105 415.279L68.0405 420.955L66.7905 426.606L65.5505 432.283L64.2705 437.934L63.0305 443.61L61.7805 449.262L60.5105 454.938L59.2605 460.614L58.0105 466.265L56.7705 471.942L55.4905 477.593L54.2505 483.269L53.0005 488.921L51.7305 494.597L50.4805 500.248H50.5005H50.5305H50.5605L50.5804 500.224H50.6105H50.6305H50.6605V500.199H50.6904H50.7104H50.7405H50.7605V500.174H50.7905H50.8204H50.8405L50.8705 500.149H50.8905H50.9205H50.9504L50.9705 500.124H51.0005H51.0205H51.0505L51.0804 500.1H51.1005H51.1305H51.1505L51.1805 500.075H51.2104H51.2305H51.2605V500.05H51.2805H51.3105H51.3405H51.3605V500.025H51.3905H51.4105H51.4404L51.4705 500H51.4905L52.7405 494.349L53.9905 488.673L55.2605 483.021L56.5105 477.345L57.7505 471.694L59.0305 466.018L60.2705 460.341L61.5205 454.69L62.7905 449.014L64.0405 443.362L65.2905 437.686L66.5605 432.035L67.8105 426.359L69.0505 420.707L70.3304 415.031L71.5704 409.38L72.8204 403.703L74.0905 398.027L75.3405 392.376L76.5905 386.7L77.8605 381.048L79.1105 375.372L80.3605 369.721L81.6305 364.044L82.8805 358.393L84.1205 352.717L85.4005 347.065L86.6405 341.389L87.8905 335.713L89.1605 330.062L90.4105 324.385L91.6605 318.734L92.9005 313.058L94.1805 307.406L95.4205 301.73L96.6705 296.079L97.9404 290.403L99.1904 284.751L100.44 279.075L101.71 273.399L102.96 267.747L104.2 262.071L105.48 256.42L106.73 250.744L107.97 245.092L109.25 239.416L110.49 233.765L111.74 228.088L113.01 222.437L114.26 216.761L115.51 211.085L116.781 205.433L118.031 199.757L119.271 194.106L120.551 188.429L121.791 182.778L123.041 177.102L124.311 171.45L125.561 165.774L126.811 160.123L128.08 154.447L129.33 148.77L130.57 143.119L131.85 137.443Z" fill="url(#paint13_linear_400_2)"/>
<path d="M175.469 183.001H175.439H175.42V183.026H175.39H175.359H175.339H175.31H175.29H175.26L175.229 183.051H175.209H175.18H175.16H175.13H175.099H175.079V183.075H175.05H175.03H175H174.969H174.949H174.92L174.9 183.1H174.87H174.839H174.819H174.79H174.77H174.74V183.125H174.709H174.689H174.66H174.64H174.609H174.579L174.56 183.15H174.53H174.51H174.479L172.77 188.33L171.05 193.535L169.339 198.716L167.62 203.896L165.91 209.077L164.189 214.282L162.479 219.463L160.76 224.643L159.05 229.823L157.329 235.029L155.62 240.209L153.9 245.39L152.189 250.57L150.469 255.775L148.76 260.956L147.05 266.136L145.329 271.317L143.62 276.522L141.9 281.702L140.189 286.883L138.469 292.063L136.76 297.244L135.04 302.449L133.329 307.629L131.609 312.81L129.9 317.99L128.18 323.196L126.469 328.376L124.75 333.557L123.04 338.737L121.329 343.942L119.609 349.123L117.9 354.303L116.18 359.484L114.469 364.689L112.78 369.869L111.06 375.05L109.349 380.23L107.63 385.435L105.92 390.616L104.199 395.796L102.49 400.977L100.78 406.182L99.0596 411.363L97.3495 416.543L95.6295 421.723L93.9196 426.929L92.1995 432.109L90.4895 437.29L88.7695 442.47L87.0596 447.675L85.3395 452.856L83.6295 458.036L81.9095 463.217L80.1995 468.422L78.4795 473.602L76.7695 478.783L75.0596 483.963L73.3395 489.169L71.6295 494.349L69.9095 499.529L68.1995 504.71L66.4795 509.915L64.7695 515.096H64.7896H64.8195V515.071H64.8495H64.8695H64.8995H64.9196H64.9495H64.9795L64.9995 515.046H65.0295H65.0496H65.0795H65.1095H65.1295H65.1595V515.021H65.1796H65.2095H65.2395H65.2595H65.2896H65.3096H65.3395V514.996H65.3695H65.3895H65.4196H65.4395H65.4695H65.4895L65.5195 514.972H65.5496H65.5695H65.5995H65.6195H65.6495H65.6796V514.947H65.6995H65.7295H65.7495L67.4695 509.766L69.1796 504.586L70.8995 499.381L72.6095 494.2L74.3295 489.02L76.0396 483.839L77.7295 478.634L79.4495 473.454L81.1595 468.273L82.8795 463.093L84.5895 457.888L86.2996 452.707L88.0195 447.527L89.7295 442.346L91.4495 437.141L93.1595 431.96L94.8795 426.78L96.5895 421.6L98.3096 416.394L100.02 411.214L101.74 406.033L103.449 400.853L105.17 395.648L106.88 390.467L108.599 385.287L110.31 380.106L112.02 374.901L113.74 369.721L115.449 364.54L117.17 359.36L118.88 354.154L120.599 348.974L122.31 343.794L124.03 338.613L125.74 333.408L127.459 328.227L129.17 323.047L130.89 317.866L132.599 312.661L134.319 307.481L136.03 302.3L137.74 297.12L139.459 291.915L141.17 286.734L142.89 281.554L144.599 276.373L146.319 271.193L148.03 265.987L149.75 260.807L151.459 255.627L153.18 250.446L154.89 245.241L156.609 240.06L158.319 234.88L160.04 229.699L161.75 224.494L163.459 219.314L165.18 214.133L166.89 208.953L168.609 203.748L170.319 198.567L172.04 193.387L173.75 188.206L175.469 183.001Z" fill="url(#paint14_linear_400_2)"/>
<path d="M219.061 228.584H219.041H219.01H218.98H218.96H218.931H218.911H218.88H218.85H218.83H218.801H218.781H218.75H218.72H218.7H218.671H218.651H218.62H218.59H218.57H218.541H218.521H218.49H218.46H218.44H218.411H218.391H218.36H218.33H218.311H218.281H218.26H218.23H218.2H218.181H218.151H218.13L215.97 233.294L213.791 238.003L211.63 242.713L209.45 247.422L207.271 252.132L205.11 256.841L202.931 261.551L200.75 266.26L198.59 270.97L196.411 275.679L194.22 280.389L192.07 285.074L189.891 289.783L187.7 294.492L185.551 299.202L183.37 303.911L181.21 308.621L179.031 313.331L176.84 318.04L174.69 322.75L172.51 327.459L170.32 332.169L168.171 336.878L165.98 341.588L163.801 346.297L161.651 351.007L159.46 355.716L157.311 360.426L155.13 365.135L152.94 369.845L150.791 374.529L148.6 379.239L146.421 383.948L144.271 388.658L142.08 393.367L139.901 398.077L137.74 402.786L135.561 407.496L133.38 412.205L131.22 416.915L129.041 421.624L126.891 426.334L124.7 431.043L122.521 435.753L120.36 440.462L118.181 445.172L116 449.881L113.84 454.591L111.661 459.3L109.48 463.985L107.32 468.695L105.141 473.404L102.98 478.114L100.801 482.823L98.6205 487.533L96.4604 492.242L94.2805 496.952L92.1005 501.661L89.9404 506.371L87.7605 511.08L85.5804 515.79L83.4205 520.499L81.2405 525.209L79.0605 529.918H79.0804H79.1105H79.1305H79.1605H79.1904H79.2104H79.2405H79.2605H79.2905H79.3204H79.3405H79.3705H79.3905H79.4205H79.4504H79.4705H79.5005H79.5205H79.5505H79.5804H79.6005H79.6305H79.6505H79.6805H79.7104H79.7305H79.7605V529.893H79.7805H79.8105H79.8405H79.8605H79.8905H79.9105H79.9404H79.9705H79.9905L82.1705 525.184L84.3304 520.499L86.5105 515.79L88.6904 511.08L90.8505 506.371L93.0305 501.661L95.2205 496.952L97.3705 492.242L99.5505 487.533L101.74 482.823L103.891 478.114L106.08 473.404L108.23 468.695L110.411 463.985L112.6 459.276L114.75 454.566L116.931 449.857L119.12 445.147L121.271 440.438L123.46 435.728L125.641 431.043L127.791 426.334L129.98 421.624L132.13 416.915L134.32 412.205L136.5 407.496L138.651 402.786L140.84 398.077L143.021 393.367L145.181 388.658L147.36 383.948L149.541 379.239L151.7 374.529L153.88 369.82L156.031 365.11L158.22 360.401L160.401 355.691L162.561 350.982L164.74 346.272L166.921 341.588L169.08 336.878L171.26 332.169L173.44 327.459L175.6 322.75L177.781 318.04L179.96 313.331L182.12 308.621L184.301 303.911L186.46 299.202L188.641 294.492L190.82 289.783L192.98 285.074L195.161 280.364L197.34 275.655L199.5 270.945L201.681 266.235L203.86 261.526L206.021 256.816L208.2 252.132L210.36 247.422L212.541 242.713L214.72 238.003L216.88 233.294L219.061 228.584Z" fill="url(#paint15_linear_400_2)"/>
<path d="M262.66 274.167H262.63H262.6V274.142H262.58H262.55H262.53H262.5H262.47V274.118H262.45H262.42H262.4H262.37H262.34L262.32 274.093H262.29H262.27H262.24H262.21L262.19 274.068H262.16H262.14H262.11H262.08L262.06 274.043H262.03H262.01H261.98H261.95L261.93 274.018H261.9H261.88H261.85H261.82L259.17 278.232L256.55 282.471L253.93 286.685L251.28 290.923L248.65 295.162L246.03 299.375L243.4 303.614L240.75 307.853L238.13 312.066L235.51 316.305L232.86 320.543L230.23 324.757L227.61 328.996L224.98 333.234L222.33 337.448L219.71 341.687L217.09 345.925L214.44 350.139L211.81 354.378L209.19 358.591L206.54 362.83L203.91 367.068L201.29 371.282L198.67 375.521L196.02 379.759L193.39 383.973L190.77 388.212L188.12 392.45L185.5 396.664L182.87 400.903L180.22 405.141L177.6 409.355L174.97 413.593L172.35 417.832L169.7 422.046L167.08 426.284L164.45 430.523L161.8 434.737L159.18 438.975L156.55 443.189L153.93 447.427L151.28 451.666L148.66 455.88L146.03 460.118L143.38 464.357L140.76 468.571L138.13 472.809L135.48 477.048L132.86 481.262L130.24 485.5L127.61 489.739L124.96 493.952L122.34 498.191L119.71 502.43L117.06 506.643L114.44 510.882L111.82 515.096L109.17 519.334L106.54 523.573L103.92 527.787L101.29 532.025L98.6404 536.264L96.0204 540.477L93.4004 544.716H93.4204H93.4503V544.741H93.4703H93.5004H93.5304H93.5504H93.5803L93.6003 544.766H93.6304H93.6604H93.6804H93.7103L93.7303 544.79H93.7604H93.7904H93.8104H93.8403L93.8604 544.815H93.8904H93.9204H93.9403H93.9703L93.9904 544.84H94.0204H94.0504H94.0703H94.1003L94.1204 544.865H94.1504H94.1804H94.2003H94.2303L96.8503 540.651L99.4803 536.412L102.13 532.174L104.75 527.96L107.37 523.721L110.02 519.483L112.65 515.269L115.27 511.031L117.92 506.817L120.55 502.578L123.17 498.34L125.79 494.126L128.44 489.887L131.07 485.649L133.69 481.435L136.34 477.197L138.97 472.958L141.59 468.744L144.21 464.506L146.86 460.267L149.49 456.053L152.11 451.815L154.76 447.576L157.39 443.362L160.01 439.124L162.66 434.91L165.28 430.672L167.91 426.433L170.53 422.219L173.18 417.981L175.8 413.742L178.43 409.528L181.08 405.29L183.7 401.051L186.33 396.837L188.98 392.599L191.6 388.36L194.22 384.147L196.85 379.908L199.5 375.669L202.12 371.456L204.75 367.217L207.4 362.979L210.02 358.765L212.64 354.526L215.27 350.313L217.92 346.074L220.54 341.835L223.17 337.622L225.82 333.383L228.44 329.145L231.06 324.931L233.71 320.692L236.34 316.454L238.96 312.24L241.59 308.001L244.24 303.763L246.86 299.549L249.48 295.31L252.13 291.072L254.76 286.858L257.38 282.619L260.03 278.406L262.66 274.167Z" fill="url(#paint16_linear_400_2)"/>
<path d="M306.22 319.75H306.2H306.17V319.726H306.15H306.12L306.09 319.701H306.07V319.676H306.04H306.02V319.651H305.99H305.96V319.626H305.94H305.91V319.602H305.89L305.86 319.577H305.83L305.81 319.552H305.78L305.76 319.527H305.73L305.7 319.502H305.68L305.65 319.478H305.63V319.453H305.6H305.57L305.55 319.428H305.52V319.403L302.43 323.171L299.34 326.914L296.25 330.657L293.16 334.424L290.06 338.167L286.97 341.935L283.88 345.677L280.79 349.42L277.7 353.188L274.61 356.931L271.52 360.673L268.42 364.441L265.33 368.184L262.24 371.927L259.17 375.694L256.08 379.437L252.99 383.18L249.9 386.948L246.81 390.69L243.72 394.433L240.63 398.201L237.53 401.944L234.44 405.686L231.35 409.454L228.26 413.197L225.17 416.964L222.08 420.707L218.98 424.45L215.89 428.218L212.8 431.96L209.71 435.703L206.62 439.471L203.53 443.214L200.43 446.957L197.34 450.724L194.28 454.467L191.19 458.21L188.09 461.977L185 465.72L181.91 469.463L178.82 473.231L175.73 476.973L172.64 480.716L169.54 484.484L166.45 488.227L163.36 491.97L160.27 495.737L157.18 499.48L154.09 503.248L150.99 506.99L147.9 510.733L144.81 514.501L141.72 518.244L138.63 521.986L135.54 525.754L132.45 529.497L129.38 533.24L126.29 537.007L123.2 540.75L120.1 544.493L117.01 548.26L113.92 552.003L110.83 555.746L107.74 559.514H107.76L107.79 559.539H107.82V559.563H107.84H107.87V559.588H107.89H107.92V559.613H107.95H107.97V559.638H108H108.02V559.662H108.05L108.08 559.687H108.1H108.13V559.712H108.15L108.18 559.737H108.21L108.23 559.762H108.26V559.786H108.28H108.31L108.34 559.811H108.36V559.836H108.39H108.41V559.861H108.44L111.53 556.093L114.62 552.35L117.71 548.608L120.81 544.84L123.87 541.097L126.96 537.354L130.06 533.587L133.15 529.844L136.24 526.101L139.33 522.333L142.42 518.591L145.51 514.848L148.6 511.08L151.7 507.337L154.79 503.595L157.88 499.827L160.97 496.084L164.06 492.341L167.15 488.574L170.25 484.831L173.34 481.063L176.43 477.32L179.52 473.578L182.61 469.81L185.7 466.067L188.77 462.324L191.86 458.557L194.95 454.814L198.04 451.071L201.14 447.304L204.23 443.561L207.32 439.818L210.41 436.05L213.5 432.308L216.59 428.565L219.69 424.797L222.78 421.054L225.87 417.311L228.96 413.544L232.05 409.801L235.14 406.058L238.24 402.291L241.33 398.548L244.42 394.78L247.51 391.037L250.6 387.295L253.67 383.527L256.76 379.784L259.85 376.041L262.94 372.274L266.03 368.531L269.13 364.788L272.22 361.02L275.31 357.278L278.4 353.535L281.49 349.767L284.58 346.024L287.67 342.282L290.77 338.514L293.86 334.771L296.95 331.028L300.04 327.261L303.13 323.518L306.22 319.75Z" fill="url(#paint17_linear_400_2)"/>
<path d="M349.77 365.358H349.74V365.333H349.71V365.309L349.69 365.284L349.66 365.259L349.64 365.234L349.61 365.209L349.58 365.185V365.16H349.56V365.135H349.53V365.11H349.51V365.085H349.48V365.061H349.45V365.036H349.43V365.011L349.4 364.986L349.38 364.962L349.35 364.937V364.912H349.32V364.887H349.3V364.862H349.27V364.838H349.25V364.813L345.69 368.085L342.15 371.357L338.59 374.628L335.04 377.925L331.5 381.197L327.94 384.469L324.41 387.741L320.85 391.013L317.29 394.284L313.76 397.556L310.2 400.828L306.64 404.1L303.11 407.372L299.55 410.644L296.01 413.916L292.45 417.187L288.9 420.459L285.36 423.731L281.8 427.003L278.27 430.275L274.71 433.547L271.15 436.819L267.62 440.091L264.06 443.387L260.53 446.659L256.97 449.931L253.41 453.203L249.87 456.475L246.31 459.747L242.78 463.018L239.22 466.29L235.66 469.562L232.13 472.834L228.57 476.106L225.01 479.378L221.48 482.65L217.92 485.921L214.39 489.193L210.83 492.465L207.27 495.737L203.73 499.009L200.17 502.281L196.64 505.553L193.08 508.849L189.52 512.121L185.99 515.393L182.43 518.665L178.9 521.937L175.34 525.209L171.78 528.481L168.24 531.752L164.69 535.024L161.15 538.296L157.59 541.568L154.03 544.84L150.5 548.112L146.94 551.384L143.38 554.655L139.85 557.927L136.29 561.199L132.76 564.471L129.2 567.743L125.64 571.015L122.1 574.311L122.13 574.336L122.16 574.361L122.18 574.386L122.21 574.411L122.23 574.435V574.46H122.26V574.485H122.29V574.51H122.31V574.535H122.34V574.559H122.36V574.584H122.39V574.609H122.42V574.634H122.44V574.658L122.47 574.683V574.708H122.49V574.733H122.52V574.758H122.55V574.782H122.57V574.807H122.6V574.832H122.62L126.16 571.56L129.72 568.288L133.28 565.016L136.81 561.745L140.37 558.473L143.9 555.201L147.46 551.929L151.02 548.657L154.55 545.385L158.11 542.113L161.65 538.841L165.21 535.57L168.76 532.298L172.3 529.026L175.86 525.754L179.39 522.482L182.95 519.186L186.51 515.914L190.04 512.642L193.6 509.37L197.16 506.098L200.69 502.826L204.25 499.554L207.79 496.282L211.35 493.011L214.9 489.739L218.44 486.467L222 483.195L225.53 479.923L229.09 476.651L232.65 473.379L236.18 470.107L239.74 466.836L243.27 463.564L246.83 460.292L250.39 457.02L253.93 453.723L257.49 450.451L261.02 447.18L264.58 443.908L268.14 440.636L271.67 437.364L275.23 434.092L278.79 430.82L282.32 427.548L285.88 424.277L289.41 421.005L292.97 417.733L296.53 414.461L300.07 411.189L303.63 407.917L307.16 404.645L310.72 401.373L314.28 398.102L317.81 394.83L321.37 391.558L324.9 388.261L328.46 384.989L332.02 381.717L335.55 378.446L339.11 375.174L342.65 371.902L346.21 368.63L349.77 365.358Z" fill="url(#paint18_linear_400_2)"/>
<path d="M392.97 410.247L388.97 413.048L384.97 415.824L380.94 418.625L376.94 421.426L372.94 424.227L368.94 427.003L364.91 429.804L360.91 432.605L356.91 435.406L352.91 438.182L348.88 440.983L344.88 443.784L340.88 446.585L336.88 449.361L332.85 452.162L328.85 454.963L324.85 457.764L320.82 460.54L316.82 463.341L312.82 466.142L308.82 468.942L304.8 471.719L300.79 474.52L296.79 477.32L292.79 480.121L288.77 482.897L284.76 485.698L280.76 488.499L276.76 491.3L272.74 494.076L268.74 496.877L264.73 499.678L260.73 502.479L256.71 505.255L252.71 508.056L248.7 510.857L244.68 513.658L240.68 516.434L236.68 519.235L232.68 522.036L228.65 524.837L224.65 527.613L220.65 530.414L216.65 533.215L212.62 536.016L208.62 538.792L204.62 541.593L200.62 544.394L196.59 547.195L192.59 549.971L188.59 552.772L184.56 555.573L180.56 558.374L176.56 561.15L172.56 563.951L168.53 566.751L164.53 569.552L160.53 572.329L156.53 575.129L152.5 577.93L148.5 580.731L144.5 583.507L140.5 586.308L136.47 589.109L136.5 589.134V589.159L136.52 589.184V589.208V589.233H136.55V589.258V589.283L136.58 589.308V589.332V589.357H136.6V589.382V589.407H136.63V589.431V589.456L136.65 589.481V589.506V589.531H136.68V589.555V589.58H136.71V589.605V589.63V589.655H136.73V589.679V589.704H136.76V589.729V589.754H136.78V589.778V589.803L140.81 587.027L144.81 584.226L148.81 581.425L152.81 578.624L156.84 575.824L160.84 573.047L164.84 570.246L168.84 567.446L172.87 564.645L176.87 561.868L180.87 559.068L184.87 556.267L188.9 553.466L192.9 550.69L196.9 547.889L200.93 545.088L204.93 542.287L208.93 539.511L212.93 536.71L216.96 533.909L220.96 531.108L224.96 528.332L228.96 525.531L232.99 522.73L236.99 519.929L240.99 517.153L244.99 514.352L249.02 511.551L253.02 508.75L257.02 505.974L261.02 503.173L265.05 500.372L269.05 497.571L273.05 494.795L277.07 491.994L281.08 489.193L285.08 486.392L289.08 483.616L293.1 480.815L297.11 478.014L301.11 475.214L305.11 472.437L309.13 469.636L313.13 466.836L317.14 464.035L321.14 461.259L325.16 458.458L329.16 455.657L333.17 452.856L337.19 450.08L341.19 447.279L345.19 444.478L349.19 441.677L353.22 438.901L357.22 436.1L361.22 433.299L365.22 430.498L369.25 427.722L373.25 424.921L377.25 422.12L381.25 419.319L385.28 416.543L389.28 413.742L393.28 410.941V410.916V410.892H393.26V410.867V410.842H393.23V410.817V410.792H393.2V410.768V410.743V410.718H393.18V410.693V410.669H393.15V410.644V410.619L393.13 410.594V410.569V410.545H393.1V410.52V410.495H393.07V410.47V410.445L393.05 410.421V410.396V410.371H393.02V410.346V410.322L393 410.297V410.272L392.97 410.247Z" fill="url(#paint19_linear_400_2)"/>
<path d="M436.72 455.681L432.25 458.011L427.78 460.317L423.32 462.622L418.85 464.952L414.38 467.257L409.91 469.587L405.44 471.892L400.97 474.222L396.5 476.527L392.04 478.857L387.59 481.162L383.12 483.468L378.66 485.798L374.19 488.103L369.72 490.433L365.25 492.738L360.78 495.068L356.31 497.373L351.84 499.703L347.38 502.008L342.91 504.338L338.44 506.643L333.97 508.948L329.53 511.278L325.06 513.584L320.59 515.914L316.12 518.219L311.65 520.549L307.19 522.854L302.72 525.184L298.25 527.489L293.78 529.819L289.31 532.124L284.84 534.429L280.37 536.759L275.91 539.065L271.46 541.394L266.99 543.7L262.53 546.03L258.06 548.335L253.59 550.665L249.12 552.97L244.65 555.275L240.18 557.605L235.71 559.91L231.25 562.24L226.78 564.545L222.31 566.875L217.87 569.181L213.4 571.511L208.93 573.816L204.46 576.146L199.99 578.451L195.52 580.756L191.06 583.086L186.59 585.391L182.12 587.721L177.65 590.026L173.18 592.356L168.71 594.662L164.24 596.991L159.8 599.297L155.33 601.627L150.86 603.932V603.957V603.981V604.006V604.031V604.056V604.081L150.89 604.105V604.13V604.155V604.18V604.204V604.229V604.254V604.279L150.92 604.304V604.328V604.353V604.378V604.403V604.428V604.452V604.477L150.94 604.502V604.527V604.551V604.576V604.601V604.626V604.651V604.675L150.97 604.7V604.725V604.75L155.44 602.445L159.91 600.115L164.37 597.809L168.84 595.504L173.29 593.174L177.75 590.869L182.22 588.539L186.69 586.234L191.16 583.904L195.63 581.599L200.1 579.269L204.57 576.964L209.03 574.634L213.5 572.329L217.97 570.023L222.44 567.693L226.91 565.388L231.35 563.058L235.82 560.753L240.29 558.423L244.76 556.118L249.22 553.788L253.69 551.483L258.16 549.153L262.63 546.848L267.1 544.542L271.57 542.212L276.04 539.907L280.5 537.577L284.97 535.272L289.42 532.942L293.88 530.637L298.35 528.307L302.82 526.002L307.29 523.697L311.76 521.367L316.23 519.062L320.69 516.732L325.16 514.426L329.63 512.096L334.1 509.791L338.57 507.461L343.04 505.156L347.48 502.826L351.95 500.521L356.42 498.216L360.89 495.886L365.35 493.581L369.82 491.251L374.29 488.945L378.76 486.615L383.23 484.31L387.7 481.98L392.17 479.675L396.63 477.345L401.08 475.04L405.55 472.735L410.01 470.405L414.48 468.1L418.95 465.77L423.42 463.465L427.89 461.135L432.36 458.829L436.82 456.499V456.475V456.45L436.8 456.425V456.4V456.375V456.351V456.326V456.301V456.276V456.252L436.77 456.227V456.202V456.177V456.152V456.128V456.103V456.078V456.053L436.75 456.029V456.004V455.979V455.954V455.929V455.905V455.88V455.855L436.72 455.83V455.805V455.781V455.756V455.731V455.706V455.681Z" fill="url(#paint20_linear_400_2)"/>
<path d="M480.42 501.141L475.51 502.975L470.57 504.834L465.66 506.668L460.73 508.502L455.82 510.336L450.88 512.171L445.94 514.005L441.03 515.839L436.1 517.698L431.19 519.532L426.25 521.367L421.34 523.201L416.4 525.035L411.47 526.869L406.56 528.728L401.62 530.563L396.71 532.397L391.78 534.231L386.86 536.065L381.93 537.9L376.99 539.734L372.08 541.593L367.15 543.427L362.24 545.261L357.3 547.095L352.36 548.93L347.45 550.764L342.52 552.623L337.61 554.457L332.67 556.291L327.76 558.126L322.82 559.96L317.89 561.794L312.98 563.628L308.04 565.487L303.13 567.322L298.2 569.156L293.29 570.99L288.35 572.824L283.41 574.658L278.5 576.517L273.57 578.352L268.66 580.186L263.72 582.02L258.81 583.854L253.87 585.689L248.94 587.523L244.03 589.382L239.09 591.216L234.18 593.05L229.25 594.885L224.31 596.719L219.4 598.553L214.46 600.387L209.55 602.246L204.62 604.08L199.71 605.915L194.77 607.749L189.83 609.583L184.92 611.417L179.99 613.276L175.08 615.111L170.14 616.945L165.23 618.779L165.21 618.804V618.829V618.853V618.878V618.903V618.928V618.953V618.977V619.002V619.027V619.052V619.077V619.101V619.126V619.151H165.18V619.176V619.2V619.225V619.25V619.275V619.3V619.324V619.349V619.374V619.399V619.424V619.448V619.473V619.498L165.15 619.523V619.547V619.572V619.597V619.622V619.647V619.671V619.696L170.09 617.837L175 616.003L179.94 614.169L184.85 612.334L189.78 610.5L194.69 608.666L199.63 606.807L204.56 604.973L209.47 603.139L214.41 601.304L219.32 599.47L224.26 597.636L229.19 595.802L234.1 593.943L239.04 592.108L243.95 590.274L248.89 588.44L253.8 586.606L258.73 584.771L263.67 582.912L268.58 581.078L273.52 579.244L278.43 577.41L283.36 575.576L288.27 573.741L293.21 571.907L298.14 570.048L303.05 568.214L307.99 566.38L312.9 564.545L317.84 562.711L322.77 560.877L327.68 559.018L332.62 557.184L337.53 555.349L342.47 553.515L347.38 551.681L352.31 549.847L357.25 548.013L362.16 546.154L367.09 544.319L372 542.485L376.94 540.651L381.85 538.817L386.79 536.982L391.72 535.123L396.63 533.289L401.57 531.455L406.48 529.621L411.42 527.786L416.35 525.952L421.26 524.118L426.2 522.259L431.11 520.425L436.04 518.591L440.95 516.756L445.89 514.922L450.83 513.088L455.74 511.254L460.67 509.395L465.58 507.56L470.52 505.726L475.43 503.892L480.37 502.058V502.033V502.008V501.983V501.959V501.934V501.909V501.884H480.39V501.859V501.835V501.81V501.785V501.76V501.735V501.711V501.686V501.661V501.636V501.612V501.587V501.562V501.537L480.42 501.512V501.488V501.463V501.438V501.413V501.388V501.364V501.339V501.314V501.289V501.265V501.24V501.215V501.19V501.165V501.141Z" fill="url(#paint21_linear_400_2)"/>
<path d="M524.14 546.625L518.74 547.988L513.36 549.351L507.98 550.714L502.61 552.078L497.23 553.416L491.82 554.779L486.45 556.143L481.07 557.506L475.69 558.869L470.29 560.233L464.91 561.571L459.53 562.934L454.15 564.298L448.75 565.661L443.37 567.024L437.99 568.387L432.62 569.751L427.21 571.089L421.83 572.453L416.46 573.816L411.08 575.179L405.7 576.542L400.3 577.906L394.92 579.269L389.54 580.607L384.16 581.971L378.76 583.334L373.38 584.697L368 586.06L362.63 587.424L357.22 588.787L351.84 590.126L346.47 591.489L341.09 592.852L335.71 594.215L330.31 595.579L324.93 596.942L319.55 598.305L314.17 599.644L308.77 601.007L303.39 602.37L298.01 603.734L292.64 605.097L287.23 606.46L281.85 607.823L276.48 609.162L271.1 610.525L265.7 611.888L260.32 613.252L254.94 614.615L249.56 615.978L244.18 617.342L238.78 618.68L233.4 620.043L228.02 621.407L222.65 622.77L217.24 624.133L211.87 625.496L206.49 626.835L201.11 628.198L195.71 629.561L190.33 630.925L184.95 632.288L179.57 633.651L179.55 633.676V633.701V633.726V633.75V633.775L179.52 633.8V633.825V633.85V633.874V633.899L179.49 633.924V633.949V633.974V633.998V634.023H179.47V634.048V634.073V634.097V634.122V634.147L179.44 634.172V634.197V634.221V634.246V634.271H179.42V634.296V634.321V634.345V634.37V634.395H179.39V634.42V634.445V634.469V634.494L179.36 634.519V634.544V634.568V634.593L184.74 633.23L190.12 631.867L195.52 630.503L200.9 629.165L206.28 627.802L211.66 626.438L217.04 625.075L222.44 623.712L227.82 622.349L233.19 620.985L238.57 619.647L243.98 618.283L249.35 616.92L254.73 615.557L260.11 614.194L265.51 612.83L270.89 611.467L276.27 610.129L281.65 608.765L287.02 607.402L292.43 606.039L297.81 604.675L303.18 603.312L308.56 601.974L313.97 600.61L319.34 599.247L324.72 597.884L330.1 596.521L335.5 595.157L340.88 593.794L346.26 592.456L351.64 591.092L357.04 589.729L362.42 588.366L367.8 587.002L373.17 585.639L378.55 584.276L383.96 582.937L389.33 581.574L394.71 580.211L400.09 578.848L405.49 577.484L410.87 576.121L416.25 574.758L421.63 573.419L427.03 572.056L432.41 570.693L437.79 569.329L443.16 567.966L448.57 566.603L453.95 565.24L459.32 563.901L464.7 562.538L470.08 561.174L475.48 559.811L480.86 558.448L486.24 557.085L491.62 555.721L497.02 554.383L502.4 553.02L507.78 551.656L513.15 550.293L518.56 548.93L523.93 547.567V547.542V547.517V547.492H523.96V547.467V547.443V547.418V547.393L523.99 547.368V547.343V547.319V547.294V547.269L524.01 547.244V547.219V547.195V547.17V547.145L524.04 547.12V547.096V547.071V547.046V547.021H524.06V546.996V546.972V546.947V546.922V546.897L524.09 546.872V546.848V546.823V546.798V546.773L524.12 546.749V546.724V546.699V546.674V546.649H524.14V546.625Z" fill="url(#paint22_linear_400_2)"/>
<path d="M567.82 592.108L561.97 593.001L556.15 593.868L550.3 594.761L544.46 595.653L538.61 596.521L532.77 597.413L526.92 598.28L521.08 599.173L515.23 600.04L509.39 600.933L503.57 601.8L497.72 602.692L491.88 603.585L486.03 604.452L480.19 605.345L474.34 606.212L468.49 607.105L462.65 607.972L456.8 608.864L450.98 609.732L445.14 610.624L439.29 611.517L433.45 612.384L427.6 613.276L421.76 614.144L415.91 615.036L410.07 615.904L404.22 616.796L398.4 617.664L392.56 618.556L386.71 619.448L380.86 620.316L375.02 621.208L369.17 622.076L363.33 622.968L357.48 623.836L351.64 624.728L345.82 625.596L339.97 626.488L334.13 627.38L328.28 628.248L322.44 629.14L316.59 630.008L310.74 630.9L304.9 631.767L299.05 632.66L293.23 633.527L287.39 634.42L281.54 635.312L275.7 636.18L269.85 637.072L264.01 637.939L258.16 638.832L252.32 639.699L246.47 640.592L240.63 641.459L234.81 642.351L228.96 643.244L223.12 644.111L217.27 645.004L211.42 645.871L205.58 646.764L199.73 647.631L193.89 648.523V648.548V648.573L193.86 648.598V648.623V648.647L193.84 648.672V648.697V648.722V648.746L193.81 648.771V648.796V648.821L193.78 648.846V648.87V648.895L193.76 648.92V648.945V648.97L193.73 648.994V649.019V649.044L193.71 649.069V649.093V649.118V649.143L193.68 649.168V649.193V649.217L193.65 649.242V649.267V649.292L193.63 649.317V649.341V649.366L193.6 649.391V649.416V649.441V649.465L193.58 649.49L199.42 648.623L205.27 647.73L211.11 646.838L216.96 645.97L222.8 645.078L228.65 644.21L234.47 643.318L240.31 642.451L246.16 641.558L252 640.691L257.85 639.798L263.7 638.906L269.54 638.039L275.39 637.146L281.23 636.279L287.05 635.386L292.9 634.519L298.74 633.626L304.59 632.759L310.43 631.867L316.28 630.974L322.12 630.107L327.97 629.214L333.82 628.347L339.63 627.455L345.48 626.587L351.33 625.695L357.17 624.827L363.02 623.935L368.86 623.043L374.71 622.175L380.55 621.283L386.4 620.415L392.22 619.523L398.06 618.655L403.91 617.763L409.75 616.895L415.6 616.003L421.44 615.111L427.29 614.243L433.14 613.351L438.98 612.483L444.8 611.591L450.65 610.723L456.49 609.831L462.34 608.964L468.18 608.071L474.03 607.179L479.87 606.311L485.72 605.419L491.56 604.551L497.38 603.659L503.23 602.792L509.07 601.899L514.92 601.032L520.77 600.139L526.61 599.247L532.46 598.38L538.3 597.487L544.15 596.62L549.97 595.727L555.81 594.86L561.66 593.967L567.5 593.1V593.075L567.53 593.05V593.026V593.001L567.56 592.976V592.951V592.926V592.902H567.58V592.877V592.852V592.827H567.61V592.803V592.778V592.753L567.63 592.728V592.703V592.679L567.66 592.654V592.629V592.604V592.579H567.69V592.555V592.53V592.505H567.71V592.48V592.455V592.431H567.74V592.406V592.381V592.356H567.76V592.332V592.307V592.282V592.257H567.79V592.232V592.208V592.183H567.82V592.158V592.133V592.108Z" fill="url(#paint23_linear_400_2)"/>
<path d="M611.51 637.617L605.2 638.014L598.891 638.41L592.6 638.832L586.291 639.228L580 639.625L573.69 640.046L567.401 640.443L561.09 640.839L554.801 641.236L548.49 641.657L542.2 642.054L535.891 642.451L529.57 642.847L523.291 643.269L516.97 643.665L510.69 644.062L504.37 644.458L498.09 644.88L491.771 645.276L485.48 645.673L479.171 646.069L472.88 646.491L466.57 646.887L460.26 647.284L453.97 647.681L447.661 648.102L441.37 648.499L435.061 648.895L428.771 649.292L422.46 649.713L416.171 650.11L409.86 650.506L403.541 650.903L397.26 651.324L390.94 651.721L384.661 652.117L378.34 652.514L372.061 652.935L365.74 653.332L359.46 653.729L353.141 654.125L346.86 654.547L340.541 654.943L334.23 655.34L327.94 655.736L321.63 656.158L315.34 656.554L309.031 656.951L302.74 657.372L296.431 657.769L290.141 658.166L283.83 658.562L277.541 658.983L271.23 659.38L264.921 659.777L258.63 660.173L252.32 660.595L246.031 660.991L239.72 661.388L233.431 661.784L227.12 662.206L220.83 662.602L214.521 662.999L208.23 663.395L208.2 663.42V663.445V663.47H208.181V663.495V663.519L208.151 663.544V663.569V663.594H208.12V663.619V663.643L208.1 663.668V663.693V663.718H208.07V663.743V663.767L208.051 663.792V663.817V663.842H208.021V663.866V663.891V663.916H207.99V663.941V663.966L207.97 663.99V664.015V664.04H207.94V664.065V664.09L207.921 664.114V664.139V664.164H207.891V664.189V664.213L207.86 664.238V664.263V664.288H207.84V664.313V664.337L207.811 664.362V664.387L214.13 663.99L220.411 663.569L226.73 663.172L233.01 662.776L239.33 662.379L245.61 661.958L251.931 661.561L258.21 661.165L264.531 660.768L270.811 660.347L277.13 659.95L283.44 659.554L289.73 659.157L296.041 658.736L302.33 658.339L308.641 657.942L314.931 657.546L321.24 657.124L327.531 656.728L333.84 656.331L340.13 655.935L346.44 655.513L352.75 655.117L359.041 654.72L365.35 654.324L371.641 653.902L377.95 653.506L384.24 653.109L390.551 652.688L396.84 652.291L403.151 651.894L409.47 651.498L415.76 651.076L422.07 650.68L428.36 650.283L434.671 649.887L440.96 649.465L447.271 649.069L453.561 648.672L459.87 648.276L466.161 647.854L472.47 647.458L478.781 647.061L485.07 646.664L491.38 646.243L497.671 645.846L503.98 645.45L510.271 645.053L516.58 644.632L522.87 644.235L529.181 643.839L535.47 643.442L541.781 643.021L548.1 642.624L554.38 642.228L560.7 641.831L566.98 641.41L573.301 641.013L579.58 640.616L585.901 640.22L592.181 639.798L598.5 639.402L604.781 639.005L611.1 638.609V638.584V638.559H611.12V638.534V638.509L611.151 638.485V638.46V638.435H611.181V638.41V638.386L611.2 638.361V638.336V638.311H611.23V638.286V638.262L611.25 638.237V638.212V638.187H611.281V638.163V638.138L611.311 638.113V638.088L611.33 638.063V638.039V638.014V637.989H611.36V637.964V637.939L611.38 637.915V637.89V637.865H611.411V637.84V637.815L611.44 637.791V637.766L611.46 637.741V637.716V637.692L611.49 637.667V637.642L611.51 637.617Z" fill="url(#paint24_linear_400_2)"/>
<path d="M655.16 683.127L648.4 683.052L641.65 682.978L634.89 682.903L628.14 682.829L621.36 682.73L614.6 682.656L607.85 682.581L601.09 682.507L594.34 682.432L587.56 682.358L580.8 682.284L574.05 682.209L567.3 682.135L560.54 682.061L553.76 681.986L547 681.912L540.25 681.838L533.5 681.763L526.71 681.689L519.96 681.614L513.21 681.54L506.45 681.466L499.7 681.391L492.92 681.317L486.16 681.243L479.41 681.168L472.65 681.094L465.9 680.995L459.12 680.92L452.36 680.846L445.61 680.772L438.85 680.697L432.1 680.623L425.32 680.548L418.56 680.474L411.81 680.4L405.05 680.325L398.3 680.251L391.52 680.177L384.76 680.102L378.01 680.028L371.25 679.953L364.5 679.879L357.72 679.805L350.96 679.73L344.21 679.656L337.45 679.582L330.7 679.507L323.92 679.433L317.16 679.359L310.41 679.259L303.65 679.185L296.9 679.111L290.12 679.036L283.36 678.962L276.61 678.887L269.85 678.813L263.1 678.739L256.32 678.664L249.56 678.59L242.81 678.516L236.05 678.441L229.3 678.367L222.52 678.293V678.317L222.49 678.342V678.367V678.392H222.47V678.417L222.44 678.441V678.466V678.491L222.41 678.516V678.54H222.39V678.565V678.59L222.36 678.615V678.64V678.664H222.34V678.689V678.714H222.31V678.739V678.764L222.28 678.788V678.813L222.26 678.838V678.863L222.23 678.887V678.912L222.21 678.937V678.962V678.987H222.18V679.011V679.036H222.15V679.061V679.086L222.13 679.111V679.135L222.1 679.16V679.185L222.08 679.21V679.235L222.05 679.259V679.284L228.8 679.359L235.58 679.433L242.34 679.507L249.09 679.582L255.85 679.656L262.6 679.73L269.38 679.805L276.14 679.879L282.89 679.953L289.65 680.028L296.4 680.102L303.18 680.177L309.94 680.251L316.69 680.325L323.45 680.4L330.2 680.474L336.98 680.548L343.74 680.623L350.49 680.697L357.25 680.772L364 680.846L370.78 680.945L377.54 681.019L384.29 681.094L391.05 681.168L397.8 681.243L404.58 681.317L411.34 681.391L418.09 681.466L424.85 681.54L431.6 681.614L438.38 681.689L445.14 681.763L451.89 681.838L458.65 681.912L465.43 681.986L472.18 682.061L478.94 682.135L485.69 682.209L492.45 682.284L499.23 682.358L505.98 682.432L512.74 682.507L519.49 682.581L526.25 682.656L533.03 682.755L539.78 682.829L546.54 682.903L553.29 682.978L560.05 683.052L566.83 683.127L573.58 683.201L580.34 683.275L587.09 683.35L593.85 683.424L600.63 683.498L607.38 683.573L614.14 683.647L620.89 683.721L627.65 683.796L634.43 683.87L641.18 683.945L647.94 684.019L654.69 684.093H654.72V684.069V684.044L654.74 684.019V683.994V683.969H654.77V683.945L654.8 683.92V683.895V683.87L654.82 683.845V683.821H654.85V683.796V683.771L654.87 683.746V683.721L654.9 683.697V683.672V683.647H654.93V683.622V683.598H654.95V683.573V683.548L654.98 683.523V683.498H655V683.474V683.449L655.03 683.424V683.399L655.06 683.374V683.35V683.325H655.08V683.3V683.275H655.11V683.251V683.226L655.13 683.201V683.176H655.16V683.151V683.127Z" fill="url(#paint25_linear_400_2)"/>
</g>
<defs>
<linearGradient id="paint0_linear_400_2" x1="346.31" y1="367.967" x2="-16.24" y2="727.61" gradientUnits="userSpaceOnUse">
<stop offset="0.1449" stop-color="#CCCCCC"/>
<stop offset="0.1781" stop-color="#B3B3B3"/>
<stop offset="0.2402" stop-color="#898989"/>
<stop offset="0.3077" stop-color="#646464"/>
<stop offset="0.3801" stop-color="#454545"/>
<stop offset="0.4586" stop-color="#2C2C2C"/>
<stop offset="0.5457" stop-color="#181818"/>
<stop offset="0.6459" stop-color="#0A0A0A"/>
<stop offset="0.7713" stop-color="#020202"/>
<stop offset="1"/>
</linearGradient>
<linearGradient id="paint1_linear_400_2" x1="1389.4" y1="-569.683" x2="-679.542" y2="1482.69" gradientUnits="userSpaceOnUse">
<stop offset="0.1449" stop-color="#CCCCCC"/>
<stop offset="0.1781" stop-color="#B3B3B3"/>
<stop offset="0.2402" stop-color="#898989"/>
<stop offset="0.3077" stop-color="#646464"/>
<stop offset="0.3801" stop-color="#454545"/>
<stop offset="0.4586" stop-color="#2C2C2C"/>
<stop offset="0.5457" stop-color="#181818"/>
<stop offset="0.6459" stop-color="#0A0A0A"/>
<stop offset="0.7713" stop-color="#020202"/>
<stop offset="1"/>
</linearGradient>
<linearGradient id="paint2_linear_400_2" x1="1418.75" y1="-596.343" x2="-770.043" y2="1574.92" gradientUnits="userSpaceOnUse">
<stop offset="0.1449" stop-color="#CCCCCC"/>
<stop offset="0.1781" stop-color="#B3B3B3"/>
<stop offset="0.2402" stop-color="#898989"/>
<stop offset="0.3077" stop-color="#646464"/>
<stop offset="0.3801" stop-color="#454545"/>
<stop offset="0.4586" stop-color="#2C2C2C"/>
<stop offset="0.5457" stop-color="#181818"/>
<stop offset="0.6459" stop-color="#0A0A0A"/>
<stop offset="0.7713" stop-color="#020202"/>
<stop offset="1"/>
</linearGradient>
<linearGradient id="paint3_linear_400_2" x1="1445.45" y1="-620.633" x2="-881.106" y2="1687.29" gradientUnits="userSpaceOnUse">
<stop offset="0.1449" stop-color="#CCCCCC"/>
<stop offset="0.1781" stop-color="#B3B3B3"/>
<stop offset="0.2402" stop-color="#898989"/>
<stop offset="0.3077" stop-color="#646464"/>
<stop offset="0.3801" stop-color="#454545"/>
<stop offset="0.4586" stop-color="#2C2C2C"/>
<stop offset="0.5457" stop-color="#181818"/>
<stop offset="0.6459" stop-color="#0A0A0A"/>
<stop offset="0.7713" stop-color="#020202"/>
<stop offset="1"/>
</linearGradient>
<linearGradient id="paint4_linear_400_2" x1="1467.07" y1="-640.37" x2="-1019.59" y2="1826.38" gradientUnits="userSpaceOnUse">
<stop offset="0.1449" stop-color="#CCCCCC"/>
<stop offset="0.1781" stop-color="#B3B3B3"/>
<stop offset="0.2402" stop-color="#898989"/>
<stop offset="0.3077" stop-color="#646464"/>
<stop offset="0.3801" stop-color="#454545"/>
<stop offset="0.4586" stop-color="#2C2C2C"/>
<stop offset="0.5457" stop-color="#181818"/>
<stop offset="0.6459" stop-color="#0A0A0A"/>
<stop offset="0.7713" stop-color="#020202"/>
<stop offset="1"/>
</linearGradient>
<linearGradient id="paint5_linear_400_2" x1="1479.53" y1="-651.87" x2="-1195.43" y2="2001.67" gradientUnits="userSpaceOnUse">
<stop offset="0.1449" stop-color="#CCCCCC"/>
<stop offset="0.1781" stop-color="#B3B3B3"/>
<stop offset="0.2402" stop-color="#898989"/>
<stop offset="0.3077" stop-color="#646464"/>
<stop offset="0.3801" stop-color="#454545"/>
<stop offset="0.4586" stop-color="#2C2C2C"/>
<stop offset="0.5457" stop-color="#181818"/>
<stop offset="0.6459" stop-color="#0A0A0A"/>
<stop offset="0.7713" stop-color="#020202"/>
<stop offset="1"/>
</linearGradient>
<linearGradient id="paint6_linear_400_2" x1="1476.05" y1="-649.026" x2="-1423.61" y2="2227.42" gradientUnits="userSpaceOnUse">
<stop offset="0.1449" stop-color="#CCCCCC"/>
<stop offset="0.1781" stop-color="#B3B3B3"/>
<stop offset="0.2402" stop-color="#898989"/>
<stop offset="0.3077" stop-color="#646464"/>
<stop offset="0.3801" stop-color="#454545"/>
<stop offset="0.4586" stop-color="#2C2C2C"/>
<stop offset="0.5457" stop-color="#181818"/>
<stop offset="0.6459" stop-color="#0A0A0A"/>
<stop offset="0.7713" stop-color="#020202"/>
<stop offset="1"/>
</linearGradient>
<linearGradient id="paint7_linear_400_2" x1="1444.99" y1="-621.336" x2="-1727.36" y2="2525.61" gradientUnits="userSpaceOnUse">
<stop offset="0.1449" stop-color="#CCCCCC"/>
<stop offset="0.1781" stop-color="#B3B3B3"/>
<stop offset="0.2402" stop-color="#898989"/>
<stop offset="0.3077" stop-color="#646464"/>
<stop offset="0.3801" stop-color="#454545"/>
<stop offset="0.4586" stop-color="#2C2C2C"/>
<stop offset="0.5457" stop-color="#181818"/>
<stop offset="0.6459" stop-color="#0A0A0A"/>
<stop offset="0.7713" stop-color="#020202"/>
<stop offset="1"/>
</linearGradient>
<linearGradient id="paint8_linear_400_2" x1="1365.71" y1="-550.191" x2="-2144.72" y2="2932.13" gradientUnits="userSpaceOnUse">
<stop offset="0.1449" stop-color="#CCCCCC"/>
<stop offset="0.1781" stop-color="#B3B3B3"/>
<stop offset="0.2402" stop-color="#898989"/>
<stop offset="0.3077" stop-color="#646464"/>
<stop offset="0.3801" stop-color="#454545"/>
<stop offset="0.4586" stop-color="#2C2C2C"/>
<stop offset="0.5457" stop-color="#181818"/>
<stop offset="0.6459" stop-color="#0A0A0A"/>
<stop offset="0.7713" stop-color="#020202"/>
<stop offset="1"/>
</linearGradient>
<linearGradient id="paint9_linear_400_2" x1="1199.55" y1="-400.721" x2="-2741.01" y2="3508.28" gradientUnits="userSpaceOnUse">
<stop offset="0.1449" stop-color="#CCCCCC"/>
<stop offset="0.1781" stop-color="#B3B3B3"/>
<stop offset="0.2402" stop-color="#898989"/>
<stop offset="0.3077" stop-color="#646464"/>
<stop offset="0.3801" stop-color="#454545"/>
<stop offset="0.4586" stop-color="#2C2C2C"/>
<stop offset="0.5457" stop-color="#181818"/>
<stop offset="0.6459" stop-color="#0A0A0A"/>
<stop offset="0.7713" stop-color="#020202"/>
<stop offset="1"/>
</linearGradient>
<linearGradient id="paint10_linear_400_2" x1="869.75" y1="-103.658" x2="-3636.39" y2="4366.39" gradientUnits="userSpaceOnUse">
<stop offset="0.1449" stop-color="#CCCCCC"/>
<stop offset="0.1781" stop-color="#B3B3B3"/>
<stop offset="0.2402" stop-color="#898989"/>
<stop offset="0.3077" stop-color="#646464"/>
<stop offset="0.3801" stop-color="#454545"/>
<stop offset="0.4586" stop-color="#2C2C2C"/>
<stop offset="0.5457" stop-color="#181818"/>
<stop offset="0.6459" stop-color="#0A0A0A"/>
<stop offset="0.7713" stop-color="#020202"/>
<stop offset="1"/>
</linearGradient>
<linearGradient id="paint11_linear_400_2" x1="140.469" y1="161.646" x2="-214.926" y2="514.191" gradientUnits="userSpaceOnUse">
<stop offset="0.1449" stop-color="#CCCCCC"/>
<stop offset="0.1781" stop-color="#B3B3B3"/>
<stop offset="0.2402" stop-color="#898989"/>
<stop offset="0.3077" stop-color="#646464"/>
<stop offset="0.3801" stop-color="#454545"/>
<stop offset="0.4586" stop-color="#2C2C2C"/>
<stop offset="0.5457" stop-color="#181818"/>
<stop offset="0.6459" stop-color="#0A0A0A"/>
<stop offset="0.7713" stop-color="#020202"/>
<stop offset="1"/>
</linearGradient>
<linearGradient id="paint12_linear_400_2" x1="169.179" y1="192.062" x2="-185.403" y2="543.805" gradientUnits="userSpaceOnUse">
<stop offset="0.1449" stop-color="#CCCCCC"/>
<stop offset="0.1781" stop-color="#B3B3B3"/>
<stop offset="0.2402" stop-color="#898989"/>
<stop offset="0.3077" stop-color="#646464"/>
<stop offset="0.3801" stop-color="#454545"/>
<stop offset="0.4586" stop-color="#2C2C2C"/>
<stop offset="0.5457" stop-color="#181818"/>
<stop offset="0.6459" stop-color="#0A0A0A"/>
<stop offset="0.7713" stop-color="#020202"/>
<stop offset="1"/>
</linearGradient>
<linearGradient id="paint13_linear_400_2" x1="197.89" y1="222.478" x2="-155.883" y2="573.416" gradientUnits="userSpaceOnUse">
<stop offset="0.1449" stop-color="#CCCCCC"/>
<stop offset="0.1781" stop-color="#B3B3B3"/>
<stop offset="0.2402" stop-color="#898989"/>
<stop offset="0.3077" stop-color="#646464"/>
<stop offset="0.3801" stop-color="#454545"/>
<stop offset="0.4586" stop-color="#2C2C2C"/>
<stop offset="0.5457" stop-color="#181818"/>
<stop offset="0.6459" stop-color="#0A0A0A"/>
<stop offset="0.7713" stop-color="#020202"/>
<stop offset="1"/>
</linearGradient>
<linearGradient id="paint14_linear_400_2" x1="226.599" y1="252.894" x2="-126.362" y2="603.027" gradientUnits="userSpaceOnUse">
<stop offset="0.1449" stop-color="#CCCCCC"/>
<stop offset="0.1781" stop-color="#B3B3B3"/>
<stop offset="0.2402" stop-color="#898989"/>
<stop offset="0.3077" stop-color="#646464"/>
<stop offset="0.3801" stop-color="#454545"/>
<stop offset="0.4586" stop-color="#2C2C2C"/>
<stop offset="0.5457" stop-color="#181818"/>
<stop offset="0.6459" stop-color="#0A0A0A"/>
<stop offset="0.7713" stop-color="#020202"/>
<stop offset="1"/>
</linearGradient>
<linearGradient id="paint15_linear_400_2" x1="255.311" y1="283.311" x2="-96.8374" y2="632.636" gradientUnits="userSpaceOnUse">
<stop offset="0.1449" stop-color="#CCCCCC"/>
<stop offset="0.1781" stop-color="#B3B3B3"/>
<stop offset="0.2402" stop-color="#898989"/>
<stop offset="0.3077" stop-color="#646464"/>
<stop offset="0.3801" stop-color="#454545"/>
<stop offset="0.4586" stop-color="#2C2C2C"/>
<stop offset="0.5457" stop-color="#181818"/>
<stop offset="0.6459" stop-color="#0A0A0A"/>
<stop offset="0.7713" stop-color="#020202"/>
<stop offset="1"/>
</linearGradient>
<linearGradient id="paint16_linear_400_2" x1="284.02" y1="313.727" x2="-67.3196" y2="662.246" gradientUnits="userSpaceOnUse">
<stop offset="0.1449" stop-color="#CCCCCC"/>
<stop offset="0.1781" stop-color="#B3B3B3"/>
<stop offset="0.2402" stop-color="#898989"/>
<stop offset="0.3077" stop-color="#646464"/>
<stop offset="0.3801" stop-color="#454545"/>
<stop offset="0.4586" stop-color="#2C2C2C"/>
<stop offset="0.5457" stop-color="#181818"/>
<stop offset="0.6459" stop-color="#0A0A0A"/>
<stop offset="0.7713" stop-color="#020202"/>
<stop offset="1"/>
</linearGradient>
<linearGradient id="paint17_linear_400_2" x1="312.73" y1="344.144" x2="-37.7898" y2="691.857" gradientUnits="userSpaceOnUse">
<stop offset="0.1449" stop-color="#CCCCCC"/>
<stop offset="0.1781" stop-color="#B3B3B3"/>
<stop offset="0.2402" stop-color="#898989"/>
<stop offset="0.3077" stop-color="#646464"/>
<stop offset="0.3801" stop-color="#454545"/>
<stop offset="0.4586" stop-color="#2C2C2C"/>
<stop offset="0.5457" stop-color="#181818"/>
<stop offset="0.6459" stop-color="#0A0A0A"/>
<stop offset="0.7713" stop-color="#020202"/>
<stop offset="1"/>
</linearGradient>
<linearGradient id="paint18_linear_400_2" x1="341.44" y1="374.553" x2="-8.29034" y2="721.487" gradientUnits="userSpaceOnUse">
<stop offset="0.1449" stop-color="#CCCCCC"/>
<stop offset="0.1781" stop-color="#B3B3B3"/>
<stop offset="0.2402" stop-color="#898989"/>
<stop offset="0.3077" stop-color="#646464"/>
<stop offset="0.3801" stop-color="#454545"/>
<stop offset="0.4586" stop-color="#2C2C2C"/>
<stop offset="0.5457" stop-color="#181818"/>
<stop offset="0.6459" stop-color="#0A0A0A"/>
<stop offset="0.7713" stop-color="#020202"/>
<stop offset="1"/>
</linearGradient>
<linearGradient id="paint19_linear_400_2" x1="370.15" y1="404.969" x2="21.2298" y2="751.096" gradientUnits="userSpaceOnUse">
<stop offset="0.1449" stop-color="#CCCCCC"/>
<stop offset="0.1781" stop-color="#B3B3B3"/>
<stop offset="0.2402" stop-color="#898989"/>
<stop offset="0.3077" stop-color="#646464"/>
<stop offset="0.3801" stop-color="#454545"/>
<stop offset="0.4586" stop-color="#2C2C2C"/>
<stop offset="0.5457" stop-color="#181818"/>
<stop offset="0.6459" stop-color="#0A0A0A"/>
<stop offset="0.7713" stop-color="#020202"/>
<stop offset="1"/>
</linearGradient>
<linearGradient id="paint20_linear_400_2" x1="398.86" y1="435.386" x2="50.7503" y2="780.706" gradientUnits="userSpaceOnUse">
<stop offset="0.1449" stop-color="#CCCCCC"/>
<stop offset="0.1781" stop-color="#B3B3B3"/>
<stop offset="0.2402" stop-color="#898989"/>
<stop offset="0.3077" stop-color="#646464"/>
<stop offset="0.3801" stop-color="#454545"/>
<stop offset="0.4586" stop-color="#2C2C2C"/>
<stop offset="0.5457" stop-color="#181818"/>
<stop offset="0.6459" stop-color="#0A0A0A"/>
<stop offset="0.7713" stop-color="#020202"/>
<stop offset="1"/>
</linearGradient>
<linearGradient id="paint21_linear_400_2" x1="427.57" y1="465.803" x2="80.2804" y2="810.316" gradientUnits="userSpaceOnUse">
<stop offset="0.1449" stop-color="#CCCCCC"/>
<stop offset="0.1781" stop-color="#B3B3B3"/>
<stop offset="0.2402" stop-color="#898989"/>
<stop offset="0.3077" stop-color="#646464"/>
<stop offset="0.3801" stop-color="#454545"/>
<stop offset="0.4586" stop-color="#2C2C2C"/>
<stop offset="0.5457" stop-color="#181818"/>
<stop offset="0.6459" stop-color="#0A0A0A"/>
<stop offset="0.7713" stop-color="#020202"/>
<stop offset="1"/>
</linearGradient>
<linearGradient id="paint22_linear_400_2" x1="456.28" y1="496.218" x2="109.8" y2="839.928" gradientUnits="userSpaceOnUse">
<stop offset="0.1449" stop-color="#CCCCCC"/>
<stop offset="0.1781" stop-color="#B3B3B3"/>
<stop offset="0.2402" stop-color="#898989"/>
<stop offset="0.3077" stop-color="#646464"/>
<stop offset="0.3801" stop-color="#454545"/>
<stop offset="0.4586" stop-color="#2C2C2C"/>
<stop offset="0.5457" stop-color="#181818"/>
<stop offset="0.6459" stop-color="#0A0A0A"/>
<stop offset="0.7713" stop-color="#020202"/>
<stop offset="1"/>
</linearGradient>
<linearGradient id="paint23_linear_400_2" x1="484.99" y1="526.635" x2="139.32" y2="869.539" gradientUnits="userSpaceOnUse">
<stop offset="0.1449" stop-color="#CCCCCC"/>
<stop offset="0.1781" stop-color="#B3B3B3"/>
<stop offset="0.2402" stop-color="#898989"/>
<stop offset="0.3077" stop-color="#646464"/>
<stop offset="0.3801" stop-color="#454545"/>
<stop offset="0.4586" stop-color="#2C2C2C"/>
<stop offset="0.5457" stop-color="#181818"/>
<stop offset="0.6459" stop-color="#0A0A0A"/>
<stop offset="0.7713" stop-color="#020202"/>
<stop offset="1"/>
</linearGradient>
<linearGradient id="paint24_linear_400_2" x1="513.701" y1="557.051" x2="168.84" y2="899.15" gradientUnits="userSpaceOnUse">
<stop offset="0.1449" stop-color="#CCCCCC"/>
<stop offset="0.1781" stop-color="#B3B3B3"/>
<stop offset="0.2402" stop-color="#898989"/>
<stop offset="0.3077" stop-color="#646464"/>
<stop offset="0.3801" stop-color="#454545"/>
<stop offset="0.4586" stop-color="#2C2C2C"/>
<stop offset="0.5457" stop-color="#181818"/>
<stop offset="0.6459" stop-color="#0A0A0A"/>
<stop offset="0.7713" stop-color="#020202"/>
<stop offset="1"/>
</linearGradient>
<linearGradient id="paint25_linear_400_2" x1="542.41" y1="587.457" x2="198.319" y2="928.75" gradientUnits="userSpaceOnUse">
<stop offset="0.1449" stop-color="#CCCCCC"/>
<stop offset="0.1781" stop-color="#B3B3B3"/>
<stop offset="0.2402" stop-color="#898989"/>
<stop offset="0.3077" stop-color="#646464"/>
<stop offset="0.3801" stop-color="#454545"/>
<stop offset="0.4586" stop-color="#2C2C2C"/>
<stop offset="0.5457" stop-color="#181818"/>
<stop offset="0.6459" stop-color="#0A0A0A"/>
<stop offset="0.7713" stop-color="#020202"/>
<stop offset="1"/>
</linearGradient>
</defs>
</svg>
