<svg width="700" height="730" viewBox="0 0 700 730" fill="none" xmlns="http://www.w3.org/2000/svg">
<g opacity="0.5">
<path d="M0 729.725L10.938 718.323L21.875 706.921L32.813 695.519L43.75 684.117L54.688 672.715L65.625 661.313L76.563 649.911L87.5 638.509L98.438 627.108L109.375 615.706L120.313 604.304L131.25 592.902L142.188 581.5L153.125 570.098L164.062 558.696L175 547.294L185.938 535.892L196.875 524.49L207.813 513.088L218.75 501.686L229.688 490.284L240.625 478.882L251.562 467.48L262.5 456.078L273.438 444.676L284.375 433.274L295.312 421.872L306.25 410.47L317.188 399.068L328.125 387.666L339.062 376.264L350 364.862L360.938 353.46L371.875 342.058L382.812 330.657L393.75 319.255L404.688 307.853L415.625 296.451L426.562 285.049L437.5 273.647L448.438 262.245L459.375 250.843L470.313 239.441L481.25 228.039L492.188 216.637L503.125 205.235L514.062 193.833L525 182.431L535.938 171.029L546.875 159.627L557.813 148.225L568.75 136.823L579.688 125.421L590.625 114.019L601.562 102.617L612.5 91.2153L623.438 79.813L634.375 68.411L645.312 57.009L656.25 45.607L667.188 34.205L678.125 22.804L689.063 11.402L700 0V0.0239868V0.048996V0.0739899V0.098999V0.123993V0.147995V0.172989V0.197998V0.222992V0.246994V0.271988V0.296997V0.321991V0.347V0.370987V0.395996V0.42099V0.445999V0.470993V0.494995V0.519989V0.544998V0.569992V0.593994V0.618988V0.643997V0.668991V0.694V0.717987V0.742996V0.76799V0.792999V0.817993V0.841995V0.866989V0.891998V0.916992V0.940994V0.965988V0.990997V1.01599V1.041V1.06499V1.09V1.11499V1.14V1.16499V1.189V1.21399V1.239V1.26399V1.289V1.31299V1.338V1.36299V1.388V1.41199V1.437V1.46199V1.487V1.51199V1.536V1.56099V1.586L699.87 8.7L699.74 15.814L699.61 22.927L699.48 30.041L699.351 37.155L699.221 44.269L699.091 51.383L698.961 58.497L698.831 65.61L698.701 72.724L698.571 79.838L698.441 86.952L698.311 94.0658L698.181 101.18L698.052 108.293L697.922 115.407L697.792 122.521L697.662 129.635L697.532 136.749L697.402 143.863L697.272 150.976L697.142 158.09L697.012 165.204L696.882 172.318L696.753 179.432L696.623 186.546L696.493 193.659L696.363 200.773L696.233 207.887L696.103 215.001L695.973 222.115L695.843 229.229L695.713 236.342L695.583 243.456L695.454 250.57L695.324 257.684L695.194 264.798L695.064 271.912L694.934 279.025L694.804 286.139L694.674 293.253L694.544 300.367L694.414 307.481L694.284 314.595L694.155 321.708L694.025 328.822L693.895 335.936L693.765 343.05L693.635 350.164L693.505 357.278L693.375 364.391L693.245 371.505L693.115 378.619L692.985 385.733L692.856 392.847L692.726 399.961L692.596 407.074L692.466 414.188L692.336 421.302L692.206 428.416L692.076 435.53L691.946 442.644L691.816 449.757L691.686 456.871L688.127 460.589L684.568 464.307L681.009 468.025L677.45 471.743L673.89 475.461L670.331 479.179L666.772 482.897L663.213 486.615L659.653 490.334L656.094 494.052L652.535 497.77L648.976 501.488L645.416 505.206L641.857 508.924L638.298 512.642L634.739 516.36L631.18 520.078L627.62 523.796L624.061 527.514L620.502 531.232L616.943 534.95L613.383 538.668L609.824 542.386L606.265 546.104L602.706 549.822L599.146 553.54L595.587 557.258L592.028 560.976L588.469 564.694L584.909 568.412L581.35 572.13L577.791 575.848L574.232 579.566L570.673 583.284L567.113 587.002L563.554 590.72L559.995 594.438L556.436 598.156L552.876 601.874L549.317 605.592L545.758 609.311L542.199 613.029L538.639 616.747L535.08 620.465L531.521 624.183L527.962 627.901L524.402 631.619L520.843 635.337L517.284 639.055L513.725 642.773L510.166 646.491L506.606 650.209L503.047 653.927L499.488 657.645L495.929 661.363L492.369 665.081L488.81 668.799L485.251 672.517L481.692 676.235L478.132 679.953L474.573 683.671L471.014 687.389L467.455 691.107L463.896 694.825L456.647 695.371L449.399 695.916L442.15 696.461L434.902 697.006L427.654 697.552L420.405 698.097L413.157 698.642L405.909 699.188L398.66 699.733L391.412 700.278L384.164 700.824L376.915 701.369L369.667 701.914L362.418 702.46L355.17 703.005L347.922 703.55L340.673 704.096L333.425 704.641L326.177 705.186L318.928 705.731L311.68 706.277L304.431 706.822L297.183 707.367L289.935 707.913L282.686 708.458L275.438 709.003L268.19 709.549L260.941 710.094L253.693 710.639L246.444 711.185L239.196 711.73L231.948 712.275L224.699 712.821L217.451 713.366L210.203 713.911L202.954 714.456L195.628 714.729L188.38 715.274L181.131 715.82L173.883 716.365L166.635 716.91L159.386 717.456L152.138 718.001L144.889 718.546L137.641 719.092L130.393 719.637L123.144 720.182L115.896 720.728L108.648 721.273L101.399 721.818L94.151 722.363L86.902 722.909L79.654 723.454L72.406 723.999L65.157 724.545L57.909 725.09L50.661 725.635L43.412 726.181L36.164 726.726L28.916 727.271L21.667 727.817L14.419 728.362L7.17001 728.907L0 729.725ZM699.013 2.50299L688.127 13.855L677.242 25.208L666.356 36.56L655.471 47.913L644.585 59.265L633.7 70.617L622.814 81.97L611.928 93.3222L601.043 104.675L590.157 116.027L579.272 127.379L568.386 138.732L557.501 150.084L546.615 161.436L535.73 172.789L524.844 184.141L513.959 195.494L503.073 206.846L492.188 218.198L481.302 229.551L470.416 240.903L459.531 252.256L448.645 263.608L437.76 274.96L426.874 286.313L415.989 297.665L405.103 309.018L394.218 320.37L383.332 331.722L372.447 343.075L361.561 354.427L350.676 365.78L339.79 377.132L328.904 388.484L318.019 399.837L307.133 411.189L296.248 422.541L285.362 433.894L274.477 445.246L263.591 456.599L253.043 467.604L242.158 478.956L231.272 490.309L220.387 501.661L209.501 513.014L198.616 524.366L187.73 535.718L176.845 547.071L165.959 558.423L155.074 569.775L144.188 581.128L133.302 592.48L122.417 603.833L111.531 615.185L100.646 626.537L89.76 637.89L78.875 649.242L67.989 660.595L57.104 671.947L46.218 683.299L35.333 694.652L24.629 705.806L13.743 717.158L2.858 728.486L10.054 727.941L17.251 727.395L24.447 726.85L31.643 726.305L38.84 725.759L46.036 725.214L53.233 724.669L60.429 724.123L67.625 723.578L74.822 723.033L82.018 722.487L89.215 721.942L96.411 721.397L103.607 720.851L110.804 720.306L118 719.761L125.197 719.216L132.393 718.67L139.59 718.125L146.786 717.58L153.982 717.034L161.179 716.489L168.375 715.944L175.572 715.398L182.768 714.853L189.964 714.308L197.161 713.762L204.357 713.217L211.554 712.672L218.75 712.126L225.946 711.581L233.143 711.036L240.339 710.491L247.536 709.945L254.732 709.4L261.928 708.855L269.125 708.309L276.321 707.764L283.518 707.219L290.714 706.673L297.91 706.128L305.107 705.583L312.303 705.037L319.5 704.492L326.696 703.947L333.892 703.402L341.089 702.856L348.285 702.311L355.482 701.766L362.678 701.22L369.875 700.675L377.071 700.13L384.267 699.584L391.464 699.039L398.66 698.494L405.857 697.948L413.053 697.403L420.249 696.858L427.446 696.312L434.642 695.767L441.839 695.222L449.035 694.677L456.231 694.131L463.428 693.586L466.987 689.868L470.546 686.15L474.106 682.432L477.665 678.714L481.224 674.996L484.783 671.278L488.342 667.56L491.902 663.842L495.461 660.124L499.02 656.406L502.579 652.688L506.139 648.97L509.698 645.251L513.257 641.533L516.816 637.815L520.376 634.097L523.935 630.379L527.494 626.661L531.053 622.943L534.613 619.225L538.172 615.507L541.731 611.789L545.29 608.071L548.849 604.353L552.409 600.635L555.968 596.917L559.527 593.199L563.086 589.481L566.646 585.763L570.205 582.045L573.764 578.327L577.323 574.609L580.883 570.891L584.442 567.173L588.001 563.455L591.56 559.737L595.12 556.019L598.679 552.301L602.238 548.583L605.797 544.865L609.356 541.147L612.916 537.429L616.475 533.711L620.034 529.993L623.593 526.274L627.153 522.556L630.712 518.838L634.271 515.12L637.83 511.402L641.39 507.684L644.949 503.966L648.508 500.248L652.067 496.53L655.627 492.812L659.186 489.094L662.745 485.376L666.304 481.658L669.863 477.94L673.423 474.222L676.982 470.504L680.541 466.786L684.1 463.068L687.66 459.35L691.219 455.632L691.349 448.568L691.479 441.503L691.609 434.439L691.738 427.375L691.868 420.311L691.998 413.246L692.128 406.182L692.258 399.118L692.388 392.054L692.518 384.989L692.648 377.925L692.778 370.861L692.908 363.797L693.037 356.732L693.167 349.668L693.297 342.604L693.427 335.54L693.557 328.475L693.687 321.411L693.817 314.347L693.947 307.282L694.077 300.218L694.207 293.154L694.336 286.09L694.466 279.025L694.596 271.961L694.726 264.897L694.856 257.833L694.986 250.768L695.116 243.704L695.246 236.64L695.376 229.576L695.506 222.511L695.635 215.447L695.765 208.383L695.895 201.319L696.025 194.254L696.155 187.19L696.285 180.126L696.415 173.062L696.545 165.997L696.675 158.933L696.805 151.869L696.934 144.804L697.064 137.74L697.194 130.676L697.324 123.612L697.454 116.547L697.584 109.483L697.714 102.419L697.844 95.3547L697.974 88.29L698.104 81.226L698.233 74.162L698.363 67.098L698.493 60.033L698.623 52.969L698.753 45.905L698.883 38.841L699.013 31.776L699.143 24.712L699.273 17.648L699.403 10.584L699.013 2.50299Z" fill="url(#paint0_linear_400_29)"/>
<path d="M448.359 694.379L452.153 690.413L455.946 686.447L459.765 682.481L463.558 678.516L467.351 674.55L471.17 670.584L474.963 666.643L478.756 662.677L482.575 658.711L486.368 654.745L490.161 650.779L493.98 646.813L497.773 642.847L501.566 638.881L505.385 634.915L509.178 630.95L512.971 626.984L516.79 623.018L520.583 619.052L524.376 615.086L528.195 611.12L531.988 607.154L535.782 603.213L539.575 599.247L543.394 595.281L547.187 591.315L550.98 587.349L554.799 583.384L558.592 579.418L562.385 575.452L566.204 571.486L569.997 567.52L573.79 563.554L577.609 559.588L581.402 555.622L585.195 551.656L589.014 547.69L592.807 543.725L596.6 539.783L600.419 535.818L604.212 531.852L608.005 527.886L611.824 523.92L615.618 519.954L619.411 515.988L623.23 512.022L627.023 508.056L630.816 504.09L634.635 500.124L638.428 496.159L642.221 492.193L646.04 488.227L649.833 484.261L653.626 480.295L657.445 476.354L661.238 472.388L665.031 468.422L668.824 464.456L672.643 460.49L676.436 456.524L680.229 452.558L684.048 448.593L687.841 444.627L691.634 440.661L691.66 440.686H691.686V440.71H691.712V440.735H691.738V440.76H691.764V440.785H691.79V440.809H691.816V440.834H691.842V440.859H691.868L691.894 440.884L691.92 440.909L691.946 440.933L691.972 440.958V440.983H691.998V441.008H692.024V441.033H692.05L692.076 441.057L692.102 441.082L692.128 441.107L692.154 441.132L692.18 441.156L692.206 441.181L692.232 441.206L692.258 441.231H692.284V441.256H692.31V441.28H692.336V441.305L692.362 441.33L692.388 441.355L692.414 441.38L692.44 441.404H692.466V441.429H692.492V441.454H692.518V441.479H692.544L688.725 445.445L684.932 449.41L681.139 453.376L677.32 457.342L673.527 461.308L669.733 465.274L665.914 469.24L662.121 473.206L658.328 477.172L654.535 481.138L650.716 485.104L646.923 489.069L643.13 493.011L639.311 496.976L635.518 500.942L631.725 504.908L627.906 508.874L624.113 512.84L620.32 516.806L616.501 520.772L612.708 524.738L608.915 528.704L605.096 532.67L601.303 536.635L597.51 540.601L593.691 544.567L589.898 548.533L586.104 552.474L582.285 556.44L578.492 560.406L574.699 564.372L570.88 568.338L567.087 572.304L563.294 576.27L559.475 580.236L555.682 584.201L551.889 588.167L548.07 592.133L544.277 596.099L540.484 600.065L536.665 604.031L532.872 607.997L529.079 611.963L525.26 615.904L521.467 619.87L517.674 623.836L513.881 627.802L510.062 631.768L506.268 635.733L502.475 639.699L498.656 643.665L494.863 647.631L491.07 651.597L487.251 655.563L483.458 659.529L479.665 663.495L475.846 667.461L472.053 671.427L468.26 675.392L464.441 679.334L460.648 683.299L456.855 687.265L453.036 691.231L449.243 695.197H449.217V695.172H449.191V695.148H449.165V695.123H449.139V695.098H449.113V695.073H449.087V695.048L449.061 695.024H449.035V694.999H449.009V694.974H448.983V694.949H448.957V694.925H448.931V694.9H448.905V694.875H448.879V694.85H448.853L448.827 694.825L448.801 694.801L448.775 694.776L448.749 694.751L448.723 694.726L448.697 694.701V694.677H448.671L448.645 694.652L448.619 694.627L448.593 694.602L448.567 694.577L448.541 694.553L448.515 694.528L448.489 694.503L448.463 694.478H448.437V694.454H448.411V694.429H448.385V694.404H448.359V694.379Z" fill="url(#paint1_linear_400_29)"/>
<path d="M431.681 695.668L435.734 691.43L439.812 687.191L443.865 682.928L447.944 678.689L451.997 674.451L456.075 670.212L460.128 665.973L464.207 661.735L468.26 657.496L472.339 653.258L476.418 649.019L480.471 644.781L484.549 640.542L488.602 636.304L492.681 632.04L496.734 627.802L500.813 623.563L504.866 619.325L508.944 615.086L512.997 610.847L517.076 606.609L521.129 602.37L525.208 598.132L529.261 593.893L533.339 589.655L537.392 585.416L541.471 581.153L545.524 576.914L549.603 572.676L553.656 568.437L557.734 564.198L561.787 559.96L565.866 555.721L569.945 551.483L573.998 547.244L578.077 543.006L582.13 538.767L586.208 534.529L590.261 530.265L594.34 526.027L598.393 521.788L602.472 517.55L606.525 513.311L610.603 509.072L614.656 504.834L618.735 500.595L622.788 496.357L626.867 492.118L630.92 487.88L634.998 483.641L639.051 479.378L643.13 475.139L647.183 470.901L651.262 466.662L655.315 462.424L659.393 458.185L663.472 453.946L667.525 449.708L671.604 445.469L675.657 441.231L679.736 436.992L683.789 432.754L687.867 428.49L691.92 424.252L691.946 424.277L691.972 424.301L691.998 424.326L692.024 424.351V424.376H692.05L692.076 424.401L692.102 424.425L692.128 424.45L692.154 424.475L692.18 424.5L692.206 424.524L692.232 424.549H692.258V424.574H692.284V424.599H692.31V424.624H692.336V424.648H692.362V424.673H692.388V424.698L692.414 424.723L692.44 424.748H692.466V424.772H692.492V424.797H692.518V424.822H692.544V424.847H692.57V424.871H692.596V424.896H692.622L692.648 424.921L692.674 424.946L692.7 424.971L692.726 424.995L692.752 425.02L692.778 425.045V425.07H692.803V425.095L688.751 429.333L684.672 433.572L680.619 437.81L676.54 442.049L672.487 446.287L668.408 450.526L664.356 454.764L660.277 459.003L656.224 463.242L652.145 467.48L648.092 471.719L644.013 475.982L639.961 480.221L635.882 484.459L631.829 488.698L627.75 492.936L623.697 497.175L619.618 501.413L615.566 505.652L611.487 509.89L607.434 514.129L603.355 518.368L599.276 522.606L595.223 526.869L591.144 531.108L587.092 535.347L583.013 539.585L578.96 543.824L574.881 548.062L570.828 552.301L566.749 556.539L562.697 560.778L558.618 565.016L554.565 569.255L550.486 573.494L546.433 577.757L542.354 581.995L538.302 586.234L534.223 590.473L530.17 594.711L526.091 598.95L522.038 603.188L517.959 607.427L513.907 611.665L509.828 615.904L505.749 620.142L501.696 624.381L497.617 628.644L493.564 632.883L489.486 637.121L485.433 641.36L481.354 645.599L477.301 649.837L473.222 654.076L469.169 658.314L465.09 662.553L461.038 666.791L456.959 671.03L452.906 675.268L448.827 679.532L444.775 683.77L440.696 688.009L436.643 692.247L432.564 696.486V696.461H432.538V696.436H432.512L432.486 696.412L432.46 696.387L432.434 696.362L432.408 696.337L432.382 696.313L432.356 696.288L432.33 696.263H432.304V696.238L432.278 696.213L432.252 696.189L432.226 696.164L432.2 696.139L432.174 696.114L432.148 696.089H432.122V696.065H432.096V696.04H432.07V696.015H432.044V695.99H432.018V695.966H431.992V695.941H431.966V695.916H431.94L431.914 695.891V695.866H431.889V695.842H431.863V695.817H431.837V695.792H431.811V695.767H431.785V695.742H431.759L431.733 695.718L431.707 695.693L431.681 695.668Z" fill="url(#paint2_linear_400_29)"/>
<path d="M412.507 697.13L416.871 692.57L421.236 688.009L425.601 683.448L429.991 678.887L434.356 674.351L438.72 669.791L443.085 665.23L447.476 660.669L451.84 656.108L456.205 651.547L460.57 646.987L464.96 642.426L469.325 637.865L473.689 633.304L478.054 628.768L482.445 624.208L486.809 619.647L491.174 615.086L495.538 610.525L499.929 605.964L504.294 601.404L508.658 596.843L513.023 592.282L517.413 587.721L521.778 583.185L526.143 578.624L530.507 574.064L534.898 569.503L539.262 564.942L543.627 560.381L547.992 555.821L552.382 551.26L556.747 546.699L561.111 542.138L565.476 537.602L569.867 533.041L574.231 528.481L578.596 523.92L582.96 519.359L587.351 514.798L591.716 510.237L596.08 505.677L600.445 501.116L604.836 496.555L609.2 492.019L613.565 487.458L617.929 482.898L622.32 478.337L626.684 473.776L631.049 469.215L635.414 464.654L639.804 460.094L644.169 455.533L648.534 450.972L652.898 446.436L657.289 441.875L661.653 437.315L666.018 432.754L670.383 428.193L674.747 423.632L679.138 419.071L683.502 414.511L687.867 409.95L692.232 405.389L692.258 405.414L692.284 405.439L692.31 405.463L692.335 405.488L692.361 405.513L692.387 405.538L692.413 405.562L692.439 405.587H692.465V405.612H692.491V405.637H692.517V405.662H692.543V405.686H692.569V405.711H692.595V405.736H692.621V405.761H692.647L692.673 405.786V405.81H692.699V405.835H692.725V405.86H692.751V405.885H692.777V405.91H692.803V405.934H692.829L692.855 405.959L692.881 405.984L692.907 406.009L692.933 406.033L692.959 406.058L692.985 406.083L693.011 406.108H693.037V406.133L693.063 406.157L693.089 406.182L693.115 406.207L693.141 406.232L688.776 410.793L684.386 415.329L680.021 419.889L675.656 424.45L671.292 429.011L666.901 433.572L662.537 438.132L658.172 442.693L653.807 447.254L649.417 451.815L645.052 456.376L640.688 460.912L636.323 465.472L631.932 470.033L627.568 474.594L623.203 479.155L618.839 483.716L614.448 488.276L610.083 492.837L605.719 497.398L601.354 501.959L596.964 506.495L592.599 511.055L588.234 515.616L583.87 520.177L579.479 524.738L575.115 529.299L570.75 533.859L566.385 538.42L561.995 542.981L557.63 547.542L553.266 552.078L548.901 556.638L544.51 561.199L540.146 565.76L535.781 570.321L531.417 574.882L527.026 579.442L522.661 584.003L518.297 588.564L513.932 593.1L509.542 597.661L505.177 602.222L500.812 606.782L496.448 611.343L492.057 615.904L487.693 620.465L483.328 625.026L478.963 629.586L474.573 634.147L470.208 638.683L465.843 643.244L461.479 647.805L457.088 652.365L452.724 656.926L448.359 661.487L443.994 666.048L439.604 670.609L435.239 675.169L430.875 679.73L426.51 684.266L422.119 688.827L417.755 693.388L413.39 697.948H413.364V697.924H413.338V697.899H413.312V697.874H413.286V697.849H413.26V697.825L413.234 697.8L413.208 697.775H413.182V697.75H413.156V697.725H413.13V697.701H413.104V697.676H413.078V697.651H413.052V697.626H413.026V697.601H413L412.974 697.577L412.948 697.552L412.922 697.527L412.897 697.502L412.87 697.477V697.453H412.845V697.428H412.819L412.793 697.403L412.767 697.378L412.741 697.354L412.715 697.329L412.689 697.304L412.663 697.279L412.637 697.254L412.611 697.23H412.585V697.205H412.559V697.18H412.533V697.155H412.507V697.13Z" fill="url(#paint3_linear_400_29)"/>
<path d="M390.217 698.841L394.945 693.908L399.673 688.976L404.402 684.068L409.13 679.135L413.832 674.203L418.561 669.27L423.289 664.337L428.017 659.43L432.746 654.497L437.474 649.565L442.202 644.632L446.931 639.699L451.633 634.792L456.361 629.859L461.09 624.926L465.818 619.994L470.546 615.086L475.275 610.153L480.003 605.221L484.705 600.288L489.434 595.356L494.162 590.448L498.89 585.515L503.619 580.583L508.347 575.65L513.075 570.717L517.804 565.81L522.506 560.877L527.234 555.944L531.963 551.012L536.691 546.079L541.419 541.171L546.148 536.239L550.876 531.306L555.604 526.374L560.307 521.441L565.035 516.533L569.763 511.601L574.492 506.668L579.22 501.736L583.948 496.828L588.677 491.895L593.405 486.963L598.107 482.03L602.836 477.097L607.564 472.19L612.292 467.257L617.021 462.324L621.749 457.392L626.477 452.459L631.18 447.551L635.908 442.619L640.636 437.686L645.365 432.754L650.093 427.821L654.821 422.913L659.549 417.981L664.278 413.048L668.98 408.116L673.708 403.183L678.437 398.275L683.165 393.343L687.893 388.41L692.622 383.477V383.502H692.648V383.527H692.674V383.552H692.7L692.726 383.577L692.752 383.601V383.626H692.778V383.651H692.804V383.676H692.83V383.7H692.856V383.725H692.882L692.908 383.75L692.934 383.775L692.96 383.8L692.985 383.824L693.012 383.849L693.038 383.874L693.063 383.899H693.089V383.924H693.115V383.948L693.141 383.973L693.167 383.998L693.193 384.023L693.219 384.047L693.245 384.072L693.271 384.097H693.297V384.122H693.323V384.147H693.349V384.171H693.375V384.196H693.401V384.221H693.427V384.246H693.453L693.479 384.271L693.505 384.295L688.777 389.228L684.048 394.161L679.346 399.093L674.618 404.026L669.889 408.934L665.161 413.866L660.433 418.799L655.704 423.731L650.976 428.664L646.248 433.572L641.545 438.504L636.817 443.437L632.089 448.369L627.361 453.302L622.632 458.21L617.904 463.142L613.176 468.075L608.447 473.008L603.745 477.94L599.017 482.848L594.288 487.781L589.56 492.713L584.832 497.646L580.103 502.554L575.375 507.486L570.647 512.419L565.944 517.351L561.216 522.284L556.488 527.192L551.759 532.124L547.031 537.057L542.303 541.989L537.574 546.922L532.846 551.83L528.144 556.762L523.415 561.695L518.687 566.628L513.959 571.56L509.23 576.468L504.502 581.401L499.774 586.333L495.071 591.266L490.343 596.198L485.615 601.106L480.886 606.039L476.158 610.971L471.43 615.904L466.701 620.812L461.973 625.744L457.271 630.677L452.542 635.609L447.814 640.542L443.086 645.45L438.357 650.382L433.629 655.315L428.901 660.248L424.172 665.18L419.47 670.088L414.742 675.021L410.013 679.953L405.285 684.886L400.557 689.818L395.828 694.726L391.1 699.659L391.074 699.634L391.048 699.609L391.022 699.584L390.996 699.56V699.535H390.97L390.944 699.51L390.918 699.485L390.892 699.46L390.866 699.436L390.84 699.411L390.814 699.386L390.788 699.361H390.762V699.337H390.736V699.312H390.71V699.287H390.684V699.262H390.658V699.237H390.632V699.213L390.606 699.188L390.58 699.163H390.554V699.138H390.528V699.113H390.503V699.089H390.477V699.064H390.451V699.039H390.425V699.014H390.399L390.373 698.99L390.347 698.965L390.321 698.94L390.295 698.915L390.269 698.89L390.243 698.866V698.841H390.217Z" fill="url(#paint4_linear_400_29)"/>
<path d="M364.003 700.848L369.147 695.494L374.291 690.116L379.435 684.762L384.579 679.408L389.723 674.054L394.867 668.675L400.011 663.321L405.129 657.967L410.273 652.588L415.417 647.234L420.561 641.88L425.705 636.502L430.849 631.148L435.993 625.794L441.137 620.44L446.281 615.061L451.425 609.707L456.543 604.353L461.687 598.974L466.831 593.62L471.975 588.266L477.119 582.888L482.263 577.534L487.407 572.18L492.551 566.801L497.695 561.447L502.839 556.093L507.957 550.739L513.101 545.36L518.245 540.006L523.389 534.652L528.533 529.274L533.677 523.92L538.821 518.566L543.965 513.187L549.109 507.833L554.227 502.479L559.371 497.1L564.515 491.746L569.659 486.392L574.803 481.038L579.947 475.66L585.091 470.306L590.235 464.952L595.379 459.573L600.523 454.219L605.641 448.865L610.785 443.486L615.929 438.132L621.073 432.778L626.217 427.4L631.361 422.046L636.505 416.692L641.649 411.338L646.793 405.959L651.937 400.605L657.055 395.251L662.199 389.872L667.343 384.518L672.487 379.164L677.631 373.786L682.775 368.432L687.919 363.078L693.063 357.699V357.724H693.089V357.749L693.115 357.773L693.141 357.798L693.167 357.823H693.193V357.848H693.219V357.872H693.245V357.897H693.271V357.922H693.297V357.947H693.323V357.972H693.349V357.996H693.375L693.401 358.021L693.427 358.046L693.453 358.071L693.479 358.096V358.12H693.505V358.145H693.531V358.17H693.557L693.583 358.195L693.609 358.219L693.635 358.244L693.661 358.269L693.687 358.294L693.713 358.319L693.739 358.343L693.765 358.368H693.791V358.393H693.817V358.418H693.843V358.443L693.869 358.467L693.895 358.492L693.921 358.517L693.947 358.542L688.803 363.896L683.659 369.25L678.515 374.628L673.371 379.982L668.253 385.336L663.109 390.69L657.965 396.069L652.821 401.423L647.677 406.777L642.533 412.156L637.389 417.51L632.245 422.864L627.101 428.242L621.957 433.596L616.839 438.95L611.695 444.329L606.551 449.683L601.407 455.037L596.263 460.391L591.119 465.77L585.975 471.124L580.831 476.478L575.687 481.856L570.543 487.21L565.424 492.564L560.281 497.943L555.137 503.297L549.993 508.651L544.849 514.03L539.704 519.384L534.561 524.738L529.417 530.092L524.273 535.47L519.154 540.824L514.01 546.178L508.866 551.557L503.722 556.911L498.578 562.265L493.434 567.644L488.29 572.998L483.146 578.352L478.002 583.73L472.858 589.084L467.74 594.438L462.596 599.792L457.452 605.171L452.308 610.525L447.164 615.879L442.02 621.258L436.876 626.612L431.732 631.966L426.588 637.344L421.47 642.698L416.326 648.052L411.182 653.431L406.038 658.785L400.894 664.139L395.75 669.493L390.606 674.872L385.462 680.226L380.318 685.58L375.174 690.958L370.056 696.312L364.912 701.666H364.886V701.642H364.86L364.834 701.617L364.808 701.592L364.782 701.567L364.756 701.542L364.73 701.518L364.704 701.493V701.468H364.678V701.443H364.652L364.626 701.419L364.6 701.394L364.574 701.369L364.548 701.344L364.522 701.319L364.497 701.295L364.471 701.27H364.445V701.245H364.419V701.22H364.393V701.195H364.367V701.171H364.341V701.146H364.315V701.121L364.289 701.096L364.263 701.071H364.237V701.047H364.211V701.022H364.185V700.997H364.159V700.972H364.133V700.948H364.107V700.923H364.081L364.055 700.898L364.029 700.873L364.003 700.848Z" fill="url(#paint5_linear_400_29)"/>
<path d="M332.75 703.253L338.388 697.378L344.025 691.479L349.663 685.605L355.3 679.73L360.938 673.856L366.576 667.981L372.213 662.082L377.851 656.207L383.489 650.333L389.126 644.458L394.764 638.584L400.401 632.685L406.039 626.81L411.677 620.936L417.314 615.061L422.952 609.187L428.59 603.287L434.227 597.413L439.865 591.538L445.502 585.664L451.14 579.765L456.777 573.89L462.415 568.016L468.053 562.141L473.69 556.267L479.328 550.367L484.965 544.493L490.603 538.618L496.241 532.744L501.878 526.869L507.516 520.97L513.153 515.096L518.791 509.221L524.429 503.347L530.066 497.472L535.704 491.573L541.342 485.698L546.979 479.824L552.617 473.949L558.254 468.075L563.892 462.176L569.53 456.301L575.167 450.427L580.805 444.552L586.443 438.653L592.08 432.778L597.718 426.904L603.355 421.029L608.993 415.155L614.657 409.256L620.294 403.381L625.932 397.507L631.569 391.632L637.207 385.758L642.845 379.858L648.482 373.984L654.12 368.109L659.758 362.235L665.395 356.36L671.033 350.461L676.67 344.587L682.308 338.712L687.946 332.838L693.583 326.963L693.609 326.988L693.635 327.013L693.661 327.038H693.687V327.062H693.713V327.087H693.739V327.112H693.765V327.137H693.791V327.162H693.817V327.186H693.843V327.211H693.869L693.895 327.236L693.921 327.261L693.947 327.285V327.31H693.973V327.335H693.999V327.36H694.025V327.385H694.051L694.077 327.409L694.103 327.434L694.129 327.459L694.155 327.484L694.181 327.509L694.207 327.533L694.233 327.558H694.259V327.583H694.285V327.608H694.311V327.632L694.337 327.657L694.363 327.682L694.389 327.707L694.415 327.732L694.441 327.756H694.467V327.781L688.829 333.656L683.191 339.53L677.554 345.405L671.916 351.304L666.279 357.178L660.641 363.053L655.003 368.927L649.366 374.802L643.728 380.701L638.09 386.576L632.453 392.45L626.815 398.325L621.178 404.199L615.54 410.098L609.902 415.973L604.265 421.847L598.627 427.722L592.989 433.596L587.352 439.496L581.714 445.37L576.077 451.245L570.439 457.119L564.801 462.994L559.164 468.893L553.526 474.767L547.888 480.642L542.251 486.516L536.613 492.416L530.976 498.29L525.338 504.165L519.7 510.039L514.037 515.914L508.399 521.813L502.762 527.687L497.124 533.562L491.486 539.436L485.849 545.311L480.211 551.21L474.573 557.085L468.936 562.959L463.298 568.834L457.661 574.708L452.023 580.607L446.386 586.482L440.748 592.356L435.11 598.231L429.473 604.105L423.835 610.005L418.198 615.879L412.56 621.754L406.922 627.628L401.285 633.527L395.647 639.402L390.009 645.276L384.372 651.151L378.734 657.025L373.097 662.925L367.459 668.799L361.821 674.673L356.184 680.548L350.546 686.423L344.909 692.322L339.271 698.196L333.633 704.071H333.607V704.046L333.581 704.021L333.555 703.996L333.529 703.972L333.503 703.947L333.477 703.922H333.451V703.897H333.425V703.872H333.399V703.848H333.373V703.823H333.347V703.798H333.321V703.773H333.296L333.27 703.749L333.244 703.724L333.218 703.699V703.674H333.192V703.649H333.166V703.625H333.14V703.6H333.114V703.575H333.088L333.062 703.55L333.036 703.525L333.01 703.501L332.984 703.476L332.958 703.451L332.932 703.426L332.906 703.402H332.88V703.377H332.854V703.352L332.828 703.327L332.802 703.302L332.776 703.278L332.75 703.253Z" fill="url(#paint6_linear_400_29)"/>
<path d="M294.767 706.153L301.028 699.659L307.263 693.14L313.498 686.646L319.733 680.127L325.994 673.608L332.23 667.114L338.465 660.595L344.7 654.1L350.935 647.582L357.196 641.087L363.431 634.568L369.667 628.049L375.902 621.555L382.163 615.036L388.398 608.542L394.633 602.023L400.868 595.504L407.129 589.01L413.365 582.491L419.6 575.997L425.835 569.478L432.07 562.984L438.331 556.465L444.566 549.946L450.802 543.452L457.037 536.933L463.298 530.439L469.533 523.92L475.768 517.426L482.003 510.907L488.264 504.388L494.5 497.894L500.735 491.375L506.97 484.88L513.205 478.362L519.466 471.843L525.701 465.348L531.937 458.829L538.172 452.335L544.433 445.816L550.668 439.322L556.903 432.803L563.138 426.284L569.399 419.79L575.635 413.271L581.87 406.777L588.105 400.258L594.34 393.739L600.601 387.245L606.836 380.726L613.072 374.232L619.307 367.713L625.568 361.219L631.803 354.7L638.038 348.181L644.273 341.687L650.534 335.168L656.77 328.674L663.005 322.155L669.24 315.66L675.475 309.141L681.736 302.623L687.971 296.128L694.206 289.609L694.232 289.634L694.258 289.659L694.284 289.684L694.31 289.709L694.336 289.733H694.362V289.758H694.388V289.783H694.414V289.808H694.44V289.832L694.466 289.857L694.492 289.882L694.518 289.907H694.544V289.932H694.57V289.956H694.596V289.981H694.622V290.006H694.648V290.031H694.674V290.056H694.7V290.08H694.726L694.752 290.105L694.778 290.13L694.804 290.155L694.83 290.179V290.204H694.856V290.229H694.882V290.254H694.908L694.934 290.279L694.96 290.303L694.986 290.328L695.012 290.353L695.038 290.378L695.064 290.403L695.09 290.427H695.116L688.855 296.946L682.619 303.465L676.384 309.959L670.149 316.478L663.888 322.973L657.653 329.492L651.418 335.986L645.183 342.505L638.921 349.024L632.686 355.518L626.451 362.037L620.216 368.531L613.955 375.05L607.72 381.544L601.484 388.063L595.249 394.582L589.014 401.076L582.753 407.595L576.518 414.089L570.283 420.608L564.048 427.127L557.786 433.621L551.551 440.14L545.316 446.634L539.081 453.153L532.82 459.647L526.585 466.166L520.35 472.685L514.114 479.179L507.879 485.698L501.618 492.193L495.383 498.712L489.148 505.23L482.913 511.725L476.651 518.244L470.416 524.738L464.181 531.257L457.946 537.751L451.685 544.27L445.45 550.789L439.214 557.283L432.979 563.802L426.744 570.296L420.483 576.815L414.248 583.309L408.013 589.828L401.777 596.347L395.516 602.841L389.281 609.36L383.046 615.854L376.811 622.373L370.55 628.892L364.315 635.386L358.079 641.905L351.844 648.399L345.609 654.918L339.348 661.413L333.113 667.932L326.878 674.45L320.643 680.945L314.381 687.464L308.146 693.958L301.911 700.477L295.676 706.996L295.65 706.971V706.946H295.624V706.921H295.598L295.572 706.896L295.546 706.872L295.52 706.847L295.494 706.822L295.468 706.797L295.442 706.773L295.416 706.748H295.39V706.723H295.364V706.698H295.338V706.673H295.312V706.649H295.286V706.624L295.26 706.599L295.234 706.574L295.208 706.549H295.182V706.525H295.156V706.5H295.13V706.475H295.104V706.45H295.078V706.426H295.052V706.401H295.026L295.001 706.376L294.975 706.351L294.949 706.326L294.923 706.302L294.897 706.277L294.871 706.252V706.227H294.845V706.202H294.819L294.793 706.178L294.767 706.153Z" fill="url(#paint7_linear_400_29)"/>
<path d="M247.717 709.772L254.706 702.484L261.694 695.197L268.683 687.91L275.671 680.622L282.66 673.335L289.648 666.048L296.637 658.76L303.626 651.473L310.614 644.186L317.603 636.898L324.591 629.611L331.58 622.324L338.568 615.036L345.557 607.749L352.546 600.462L359.534 593.174L366.523 585.862L373.511 578.575L380.5 571.288L387.488 564L394.477 556.713L401.466 549.426L408.454 542.138L415.443 534.851L422.431 527.563L429.42 520.276L436.408 512.989L443.397 505.701L450.386 498.414L457.374 491.127L464.363 483.839L471.351 476.552L478.34 469.265L485.329 461.977L492.317 454.69L499.306 447.403L506.294 440.115L513.283 432.828L520.271 425.541L527.26 418.253L534.249 410.966L541.237 403.679L548.226 396.391L555.214 389.104L562.203 381.817L569.191 374.529L576.18 367.242L583.169 359.955L590.157 352.642L597.146 345.355L604.134 338.068L611.123 330.78L618.111 323.493L625.1 316.206L632.089 308.918L639.077 301.631L646.066 294.344L653.054 287.056L660.043 279.769L667.031 272.482L674.02 265.194L681.009 257.907L687.997 250.62L694.986 243.332L695.012 243.357H695.038V243.382H695.064V243.407H695.09V243.431H695.116V243.456H695.142V243.481H695.168V243.506H695.193L695.219 243.531L695.245 243.555L695.271 243.58L695.297 243.605L695.323 243.63L695.349 243.655L695.375 243.679V243.704H695.401L695.427 243.729L695.453 243.754L695.479 243.778L695.505 243.803L695.531 243.828L695.557 243.853L695.583 243.878H695.609V243.902H695.635V243.927H695.661V243.952H695.687V243.977H695.713V244.002H695.739V244.026L695.765 244.051H695.791V244.076H695.817V244.101H695.843V244.125H695.869V244.15H695.895L688.906 251.438L681.918 258.725L674.929 266.012L667.941 273.3L660.952 280.587L653.964 287.874L646.975 295.162L639.986 302.449L632.998 309.736L626.009 317.049L619.021 324.336L612.032 331.623L605.044 338.911L598.055 346.198L591.066 353.485L584.078 360.773L577.089 368.06L570.101 375.347L563.112 382.635L556.124 389.922L549.135 397.209L542.146 404.497L535.158 411.784L528.169 419.071L521.181 426.359L514.192 433.646L507.204 440.933L500.215 448.221L493.226 455.508L486.238 462.795L479.249 470.083L472.261 477.37L465.272 484.657L458.284 491.945L451.295 499.232L444.306 506.519L437.318 513.807L430.329 521.094L423.34 528.381L416.352 535.669L409.363 542.956L402.375 550.268L395.386 557.556L388.398 564.843L381.409 572.13L374.42 579.418L367.432 586.705L360.443 593.992L353.455 601.28L346.466 608.567L339.478 615.854L332.489 623.142L325.501 630.429L318.512 637.716L311.523 645.004L304.535 652.291L297.52 659.578L290.532 666.866L283.543 674.153L276.555 681.44L269.566 688.728L262.577 696.015L255.589 703.302L248.601 710.59L248.575 710.565L248.549 710.54L248.523 710.515L248.497 710.491L248.471 710.466V710.441H248.445L248.419 710.416L248.393 710.391L248.367 710.367L248.341 710.342L248.315 710.317L248.289 710.292L248.263 710.268L248.237 710.243H248.211V710.218H248.185V710.193H248.159V710.168H248.133V710.144H248.107V710.119H248.081V710.094L248.055 710.069H248.029V710.044H248.003V710.02H247.977V709.995H247.951V709.97H247.925V709.945H247.899V709.921H247.873V709.896H247.847L247.821 709.871L247.795 709.846L247.769 709.821L247.743 709.797L247.717 709.772Z" fill="url(#paint8_linear_400_29)"/>
<path d="M187.859 714.357L195.809 706.079L203.733 697.8L211.683 689.521L219.607 681.242L227.557 672.963L235.506 664.684L243.43 656.406L251.38 648.127L259.304 639.848L267.254 631.569L275.204 623.29L283.128 615.011L291.078 606.733L299.001 598.454L306.951 590.175L314.901 581.896L322.825 573.617L330.775 565.339L338.725 557.06L346.648 548.756L354.598 540.477L362.522 532.199L370.472 523.92L378.422 515.641L386.346 507.362L394.295 499.083L402.219 490.804L410.169 482.526L418.119 474.247L426.043 465.968L433.993 457.689L441.916 449.41L449.866 441.132L457.816 432.853L465.74 424.574L473.689 416.295L481.613 408.016L489.563 399.737L497.513 391.459L505.437 383.18L513.387 374.901L521.336 366.622L529.26 358.343L537.21 350.04L545.134 341.761L553.084 333.482L561.033 325.203L568.957 316.925L576.907 308.646L584.831 300.367L592.781 292.088L600.731 283.809L608.654 275.53L616.604 267.252L624.528 258.973L632.478 250.694L640.428 242.415L648.352 234.136L656.301 225.857L664.251 217.579L672.175 209.3L680.125 201.021L688.049 192.742L695.999 184.463L696.025 184.488H696.051V184.513H696.077V184.538H696.102V184.563H696.129V184.587H696.155V184.612H696.18V184.637H696.206L696.232 184.662L696.258 184.687V184.711H696.284V184.736H696.31V184.761H696.336V184.786H696.362V184.81H696.388V184.835H696.414L696.44 184.86L696.466 184.885L696.492 184.91L696.518 184.934L696.544 184.959L696.57 184.984L696.596 185.009H696.622V185.034L696.648 185.058L696.674 185.083L696.7 185.108L696.726 185.133L696.752 185.157L696.778 185.182H696.804V185.207H696.83V185.232H696.856V185.257H696.882V185.281L688.958 193.56L681.008 201.839L673.058 210.118L665.135 218.397L657.185 226.675L649.261 234.954L641.311 243.233L633.361 251.512L625.437 259.791L617.488 268.07L609.564 276.348L601.614 284.627L593.664 292.906L585.74 301.185L577.79 309.464L569.867 317.767L561.917 326.046L553.967 334.325L546.043 342.604L538.093 350.883L530.143 359.161L522.22 367.44L514.27 375.719L506.346 383.998L498.396 392.277L490.446 400.555L482.522 408.834L474.573 417.113L466.649 425.392L458.699 433.671L450.749 441.95L442.826 450.228L434.876 458.507L426.952 466.786L419.002 475.065L411.052 483.344L403.129 491.622L395.179 499.901L387.229 508.18L379.305 516.459L371.355 524.763L363.431 533.041L355.482 541.32L347.532 549.599L339.608 557.878L331.658 566.157L323.734 574.435L315.784 582.714L307.835 590.993L299.911 599.272L291.961 607.551L284.037 615.829L276.087 624.108L268.137 632.387L260.214 640.666L252.264 648.945L244.34 657.224L236.39 665.502L228.44 673.781L220.516 682.06L212.566 690.339L204.616 698.618L196.693 706.896L188.743 715.175L188.717 715.15L188.691 715.126L188.665 715.101L188.639 715.076H188.613V715.051H188.587V715.027H188.561V715.002H188.535V714.977H188.509V714.952H188.483V714.927H188.457L188.431 714.903L188.405 714.878L188.379 714.853V714.828H188.353V714.803H188.327V714.779H188.301V714.754H188.275L188.249 714.729L188.223 714.704L188.197 714.68L188.171 714.655L188.145 714.63L188.119 714.605L188.093 714.58L188.067 714.556H188.041V714.531H188.015V714.506L187.989 714.481L187.963 714.456L187.937 714.432L187.911 714.407L187.885 714.382H187.859V714.357Z" fill="url(#paint9_linear_400_29)"/>
<path d="M109.142 720.405L118.338 710.813L127.509 701.245L136.706 691.653L145.903 682.06L155.1 672.492L164.271 662.9L173.468 653.307L182.664 643.74L191.861 634.147L201.032 624.555L210.229 614.987L219.426 605.394L228.623 595.802L237.794 586.234L246.99 576.642L256.187 567.049L265.384 557.481L274.555 547.889L283.751 538.321L292.948 528.729L302.145 519.136L311.316 509.568L320.513 499.976L329.71 490.383L338.907 480.815L348.077 471.223L357.274 461.63L366.471 452.063L375.668 442.47L384.839 432.878L394.036 423.31L403.233 413.717L412.43 404.125L421.6 394.557L430.797 384.965L439.994 375.372L449.165 365.804L458.362 356.212L467.559 346.619L476.756 337.052L485.927 327.459L495.124 317.867L504.32 308.299L513.517 298.706L522.688 289.139L531.885 279.546L541.082 269.953L550.279 260.386L559.45 250.793L568.646 241.201L577.843 231.633L587.04 222.04L596.211 212.448L605.408 202.88L614.605 193.288L623.802 183.695L632.972 174.127L642.169 164.535L651.366 154.942L660.563 145.375L669.734 135.782L678.931 126.19L688.128 116.622L697.324 107.029V107.054H697.35V107.079H697.376V107.104H697.402V107.128H697.428V107.153H697.454V107.178H697.48L697.506 107.203L697.532 107.228L697.558 107.252L697.584 107.277L697.61 107.302L697.636 107.327V107.352H697.662L697.688 107.376L697.714 107.401L697.74 107.426L697.766 107.451L697.792 107.475L697.818 107.5L697.844 107.525L697.87 107.55H697.896V107.575H697.922V107.599H697.948V107.624H697.974V107.649H698V107.674L698.026 107.699L698.052 107.723H698.078V107.748H698.104V107.773H698.13V107.798H698.156V107.823H698.182V107.847H698.208L689.011 117.44L679.814 127.032L670.643 136.6L661.446 146.193L652.25 155.785L643.053 165.353L633.882 174.945L624.685 184.513L615.488 194.106L606.291 203.698L597.12 213.266L587.923 222.858L578.727 232.451L569.53 242.019L560.359 251.611L551.162 261.204L541.965 270.771L532.768 280.364L523.597 289.956L514.401 299.524L505.204 309.117L496.033 318.709L486.836 328.277L477.639 337.87L468.442 347.462L459.271 357.03L450.075 366.622L440.877 376.215L431.681 385.783L422.51 395.375L413.313 404.968L404.116 414.535L394.919 424.128L385.748 433.696L376.551 443.288L367.354 452.881L358.158 462.448L348.987 472.041L339.79 481.633L330.593 491.201L321.396 500.794L312.225 510.386L303.029 519.954L293.832 529.546L284.635 539.139L275.464 548.707L266.267 558.299L257.07 567.892L247.874 577.459L238.703 587.052L229.506 596.645L220.309 606.212L211.112 615.805L201.941 625.397L192.745 634.965L183.548 644.558L174.351 654.15L165.18 663.718L155.983 673.31L146.786 682.878L137.589 692.471L128.419 702.063L119.222 711.631L110.025 721.223L109.999 721.199L109.973 721.174L109.947 721.149L109.921 721.124L109.895 721.099L109.869 721.075L109.843 721.05L109.817 721.025L109.791 721L109.765 720.975L109.739 720.951H109.713V720.926H109.687V720.901H109.661V720.876H109.635V720.852H109.609V720.827H109.583V720.802L109.557 720.777H109.531V720.752H109.505V720.728H109.479V720.703H109.453V720.678H109.427V720.653H109.401V720.628H109.375V720.604H109.349L109.323 720.579L109.297 720.554L109.271 720.529L109.245 720.505L109.219 720.48L109.193 720.455V720.43H109.168L109.142 720.405Z" fill="url(#paint10_linear_400_29)"/>
<path d="M655.418 46.376H655.444L655.47 46.401H655.496H655.522V46.425H655.548H655.574L655.6 46.45H655.626H655.652V46.475H655.678H655.704L655.73 46.5H655.756H655.782V46.525H655.808H655.834L655.86 46.549H655.886H655.912V46.574H655.938H655.964L655.99 46.599H656.016H656.042V46.624H656.068H656.094L656.12 46.648H656.146L656.172 46.673H656.198H656.224L656.25 46.698H656.276L656.302 46.723H656.328H656.354L656.38 46.748H656.406V46.772H656.432H656.458L656.795 53.39L657.133 60.009L657.471 66.627L657.808 73.27L658.146 79.888L658.484 86.506L658.822 93.1239L659.159 99.742L659.497 106.36L659.835 112.978L660.173 119.621L660.51 126.239L660.848 132.857L661.186 139.475L661.524 146.093L661.861 152.711L662.199 159.33L662.537 165.972L662.875 172.591L663.212 179.209L663.55 185.827L663.888 192.445L664.225 199.063L664.563 205.681L664.901 212.324L665.239 218.942L665.576 225.56L665.914 232.178L666.252 238.796L666.59 245.414L666.927 252.032L667.265 258.675L667.603 265.294L667.941 271.912L668.278 278.53L668.616 285.148L668.954 291.766L669.292 298.384L669.629 305.027L669.967 311.645L670.305 318.263L670.642 324.881L670.98 331.499L671.318 338.117L671.656 344.735L671.993 351.378L672.331 357.996L672.669 364.615L673.007 371.233L673.344 377.851L673.682 384.469L674.02 391.087L674.358 397.73L674.695 404.348L675.033 410.966L675.371 417.584L675.709 424.202L676.046 430.82L676.384 437.438L676.722 444.081L677.06 450.699L677.397 457.317L677.735 463.936L678.073 470.554H678.047V470.529H678.021H677.995L677.969 470.504H677.943H677.917V470.479H677.891H677.865L677.839 470.454H677.813H677.787V470.43H677.761H677.735L677.709 470.405H677.683H677.657V470.38H677.631H677.605L677.579 470.355H677.553H677.527V470.331H677.501H677.475L677.449 470.306H677.423L677.397 470.281H677.371H677.345L677.319 470.256H677.293L677.267 470.231H677.241H677.215L677.189 470.207H677.163L677.137 470.182H677.111H677.085V470.157H677.06L676.722 463.539L676.384 456.921L676.046 450.303L675.709 443.66L675.371 437.042L675.033 430.424L674.695 423.806L674.358 417.187L674.02 410.569L673.682 403.951L673.344 397.308L673.007 390.69L672.669 384.072L672.331 377.454L671.993 370.836L671.656 364.218L671.318 357.6L670.98 350.957L670.642 344.339L670.305 337.721L669.967 331.103L669.629 324.485L669.292 317.866L668.954 311.248L668.616 304.605L668.278 297.987L667.941 291.369L667.577 284.751L667.239 278.133L666.901 271.515L666.564 264.897L666.226 258.254L665.888 251.636L665.55 245.018L665.213 238.4L664.875 231.782L664.537 225.164L664.2 218.545L663.862 211.903L663.524 205.285L663.186 198.666L662.849 192.048L662.511 185.43L662.173 178.812L661.835 172.194L661.498 165.551L661.16 158.933L660.822 152.315L660.484 145.697L660.147 139.079L659.809 132.461L659.471 125.842L659.133 119.2L658.796 112.582L658.458 105.963L658.12 99.3454L657.782 92.7273L657.445 86.109L657.107 79.491L656.769 72.848L656.432 66.23L656.094 59.612L655.756 52.994L655.418 46.376Z" fill="url(#paint11_linear_400_29)"/>
<path d="M611.798 91.9094H611.824V91.9342H611.85H611.876H611.902L611.928 91.959H611.954H611.98L612.006 91.9837H612.032L612.058 92.0085H612.084H612.11H612.136V92.0333H612.162H612.188H612.214V92.0581H612.24H612.266H612.292V92.0829H612.318H612.344L612.37 92.1077H612.396H612.422L612.448 92.1325H612.474H612.5L612.526 92.1573H612.552H612.578L612.604 92.182H612.63H612.656V92.2068H612.682H612.708H612.734L612.76 92.2316H612.785H612.811L613.617 98.3788L614.396 104.526L615.202 110.673L616.007 116.82L616.786 122.967L617.592 129.114L618.397 135.237L619.177 141.384L619.982 147.531L620.787 153.678L621.567 159.825L622.372 165.973L623.177 172.095L623.957 178.242L624.762 184.389L625.568 190.536L626.347 196.684L627.152 202.831L627.958 208.953L628.737 215.1L629.542 221.247L630.348 227.394L631.127 233.542L631.933 239.689L632.738 245.836L633.517 251.958L634.323 258.105L635.128 264.253L635.907 270.4L636.713 276.547L637.518 282.694L638.298 288.816L639.103 294.963L639.908 301.111L640.688 307.258L641.493 313.405L642.299 319.552L643.078 325.699L643.883 331.822L644.689 337.969L645.468 344.116L646.273 350.263L647.079 356.41L647.858 362.557L648.664 368.68L649.469 374.827L650.248 380.974L651.054 387.121L651.859 393.268L652.639 399.415L653.444 405.562L654.249 411.685L655.029 417.832L655.834 423.979L656.639 430.126L657.445 436.273L658.224 442.421L659.03 448.543L659.835 454.69L660.614 460.837L661.42 466.984L662.225 473.132L663.004 479.279L663.81 485.401H663.784H663.758H663.732V485.376H663.706H663.68H663.654V485.351H663.628H663.602H663.576V485.327H663.55H663.524L663.498 485.302H663.472H663.446L663.42 485.277H663.394H663.368L663.342 485.252H663.316H663.29L663.264 485.228H663.238H663.212L663.186 485.203H663.16H663.134L663.108 485.178H663.082H663.056L663.03 485.153H663.004H662.978L662.953 485.128H662.926H662.901V485.104H662.875H662.849H662.823V485.079H662.797L661.991 478.932L661.186 472.785L660.38 466.637L659.601 460.515L658.796 454.368L657.99 448.221L657.211 442.074L656.406 435.926L655.6 429.779L654.821 423.657L654.015 417.51L653.21 411.363L652.431 405.215L651.625 399.068L650.82 392.921L650.041 386.774L649.235 380.652L648.43 374.505L647.65 368.357L646.845 362.21L646.04 356.063L645.26 349.916L644.455 343.794L643.649 337.646L642.87 331.499L642.065 325.352L641.259 319.205L640.48 313.058L639.675 306.911L638.869 300.788L638.09 294.641L637.284 288.494L636.479 282.347L635.7 276.2L634.894 270.053L634.089 263.93L633.31 257.783L632.504 251.636L631.699 245.489L630.919 239.342L630.114 233.195L629.309 227.047L628.529 220.925L627.724 214.778L626.919 208.631L626.139 202.484L625.334 196.336L624.528 190.189L623.749 184.067L622.944 177.92L622.138 171.773L621.359 165.626L620.553 159.478L619.748 153.331L618.969 147.209L618.163 141.062L617.358 134.915L616.579 128.767L615.773 122.62L614.968 116.473L614.188 110.326L613.383 104.204L612.578 98.0565L611.798 91.9094Z" fill="url(#paint12_linear_400_29)"/>
<path d="M568.152 137.443L568.178 137.468H568.204H568.23H568.256H568.282V137.492H568.308H568.334H568.36L568.386 137.517H568.412H568.438H568.464L568.49 137.542H568.516H568.542H568.568L568.594 137.567H568.62H568.646H568.672V137.591H568.698H568.724H568.75L568.776 137.616H568.802H568.828H568.854H568.88V137.641H568.906H568.932H568.958L568.984 137.666H569.01H569.036H569.062L569.088 137.691H569.114H569.14H569.166L570.439 143.367L571.686 149.043L572.933 154.694L574.206 160.371L575.453 166.022L576.7 171.698L577.947 177.35L579.22 183.026L580.467 188.677L581.714 194.353L582.987 200.005L584.234 205.681L585.481 211.357L586.754 217.009L588.001 222.685L589.248 228.336L590.521 234.012L591.768 239.664L593.015 245.34L594.288 250.991L595.535 256.668L596.782 262.319L598.055 267.995L599.302 273.671L600.549 279.323L601.822 284.999L603.069 290.65L604.316 296.327L605.589 301.978L606.836 307.654L608.083 313.306L609.356 318.982L610.604 324.633L611.851 330.309L613.124 335.986L614.371 341.637L615.618 347.313L616.891 352.965L618.138 358.641L619.385 364.292L620.658 369.968L621.905 375.62L623.152 381.296L624.425 386.948L625.672 392.624L626.919 398.3L628.192 403.951L629.439 409.627L630.686 415.279L631.959 420.955L633.206 426.606L634.453 432.283L635.726 437.934L636.973 443.61L638.22 449.262L639.493 454.938L640.74 460.614L641.987 466.265L643.234 471.942L644.507 477.593L645.754 483.269L647.001 488.921L648.274 494.597L649.521 500.248H649.495H649.469H649.443L649.417 500.224H649.391H649.365H649.339V500.199H649.313H649.287H649.261H649.235V500.174H649.209H649.184H649.158L649.132 500.149H649.106H649.08H649.054L649.028 500.124H649.002H648.976H648.95L648.924 500.1H648.898H648.872H648.846L648.82 500.075H648.794H648.768H648.742V500.05H648.716H648.69H648.664H648.638V500.025H648.612H648.586H648.56L648.534 500H648.508L647.261 494.349L646.014 488.673L644.741 483.021L643.494 477.345L642.247 471.694L640.974 466.018L639.727 460.341L638.48 454.69L637.207 449.014L635.96 443.362L634.713 437.686L633.44 432.035L632.193 426.359L630.946 420.707L629.673 415.031L628.426 409.38L627.179 403.703L625.906 398.027L624.659 392.376L623.412 386.7L622.139 381.048L620.891 375.372L619.645 369.721L618.371 364.044L617.124 358.393L615.877 352.717L614.604 347.065L613.357 341.389L612.11 335.713L610.837 330.062L609.59 324.385L608.343 318.734L607.096 313.058L605.823 307.406L604.576 301.73L603.329 296.079L602.056 290.403L600.809 284.751L599.562 279.075L598.289 273.399L597.042 267.747L595.795 262.071L594.522 256.42L593.275 250.744L592.028 245.092L590.755 239.416L589.508 233.765L588.261 228.088L586.988 222.437L585.741 216.761L584.494 211.085L583.221 205.433L581.974 199.757L580.727 194.106L579.454 188.429L578.207 182.778L576.96 177.102L575.687 171.45L574.44 165.774L573.193 160.123L571.92 154.447L570.673 148.77L569.426 143.119L568.152 137.443Z" fill="url(#paint13_linear_400_29)"/>
<path d="M524.532 183.001H524.558H524.584V183.026H524.61H524.636H524.662H524.688H524.714H524.74L524.766 183.051H524.792H524.818H524.844H524.87H524.896H524.922V183.075H524.948H524.974H525H525.026H525.052H525.078L525.104 183.1H525.13H525.156H525.182H525.208H525.234H525.26V183.125H525.286H525.312H525.338H525.364H525.39H525.416L525.442 183.15H525.468H525.494H525.52L527.234 188.33L528.949 193.535L530.664 198.716L532.378 203.896L534.093 209.077L535.808 214.282L537.522 219.463L539.237 224.643L540.952 229.823L542.666 235.029L544.381 240.209L546.096 245.39L547.81 250.57L549.525 255.775L551.24 260.956L552.954 266.136L554.669 271.317L556.384 276.522L558.098 281.702L559.813 286.883L561.528 292.063L563.242 297.244L564.957 302.449L566.672 307.629L568.386 312.81L570.101 317.99L571.816 323.196L573.53 328.376L575.245 333.557L576.96 338.737L578.674 343.942L580.389 349.123L582.104 354.303L583.818 359.484L585.533 364.689L587.222 369.869L588.936 375.05L590.651 380.23L592.366 385.435L594.08 390.616L595.795 395.796L597.51 400.977L599.224 406.182L600.939 411.363L602.654 416.543L604.368 421.723L606.083 426.929L607.798 432.109L609.512 437.29L611.227 442.47L612.942 447.675L614.656 452.856L616.371 458.036L618.086 463.217L619.8 468.422L621.515 473.602L623.23 478.783L624.944 483.963L626.659 489.169L628.374 494.349L630.088 499.529L631.803 504.71L633.518 509.915L635.232 515.096H635.206H635.18V515.071H635.154H635.128H635.103H635.077H635.05H635.025L634.999 515.046H634.973H634.947H634.921H634.895H634.869H634.843V515.021H634.817H634.791H634.765H634.739H634.713H634.687H634.661V514.996H634.635H634.609H634.583H634.557H634.531H634.505L634.479 514.972H634.453H634.427H634.401H634.375H634.349H634.323V514.947H634.297H634.271H634.245L632.53 509.766L630.816 504.586L629.101 499.381L627.386 494.2L625.672 489.02L623.957 483.839L622.268 478.634L620.554 473.454L618.839 468.273L617.124 463.093L615.41 457.888L613.695 452.707L611.98 447.527L610.266 442.346L608.551 437.141L606.836 431.96L605.122 426.78L603.407 421.6L601.692 416.394L599.978 411.214L598.263 406.033L596.548 400.853L594.834 395.648L593.119 390.467L591.404 385.287L589.69 380.106L587.975 374.901L586.26 369.721L584.546 364.54L582.831 359.36L581.116 354.154L579.402 348.974L577.687 343.794L575.972 338.613L574.258 333.408L572.543 328.227L570.828 323.047L569.114 317.866L567.399 312.661L565.684 307.481L563.97 302.3L562.255 297.12L560.54 291.915L558.826 286.734L557.111 281.554L555.396 276.373L553.682 271.193L551.967 265.987L550.252 260.807L548.538 255.627L546.823 250.446L545.108 245.241L543.394 240.06L541.679 234.88L539.964 229.699L538.25 224.494L536.535 219.314L534.82 214.133L533.106 208.953L531.391 203.748L529.676 198.567L527.962 193.387L526.247 188.206L524.532 183.001Z" fill="url(#paint14_linear_400_29)"/>
<path d="M480.938 228.584H480.964H480.99H481.016H481.042H481.067H481.093H481.119H481.145H481.171H481.197H481.223H481.249H481.275H481.301H481.327H481.354H481.38H481.406H481.432H481.457H481.483H481.509H481.535H481.561H481.587H481.613H481.639H481.665H481.691H481.717H481.743H481.77H481.796H481.822H481.848H481.873L484.029 233.294L486.212 238.003L488.368 242.713L490.55 247.422L492.732 252.132L494.889 256.841L497.072 261.551L499.253 266.26L501.41 270.97L503.592 275.679L505.774 280.389L507.93 285.073L510.113 289.783L512.296 294.492L514.451 299.202L516.634 303.911L518.79 308.621L520.973 313.331L523.156 318.04L525.311 322.75L527.493 327.459L529.676 332.169L531.832 336.878L534.014 341.588L536.197 346.297L538.354 351.007L540.535 355.716L542.691 360.426L544.874 365.135L547.057 369.845L549.212 374.529L551.395 379.239L553.577 383.948L555.733 388.658L557.917 393.367L560.098 398.077L562.255 402.786L564.438 407.496L566.619 412.205L568.775 416.915L570.957 421.624L573.115 426.334L575.296 431.043L577.479 435.753L579.635 440.462L581.817 445.172L583.999 449.881L586.156 454.591L588.339 459.3L590.52 463.985L592.677 468.695L594.859 473.404L597.016 478.114L599.197 482.823L601.38 487.533L603.536 492.242L605.718 496.952L607.902 501.661L610.058 506.371L612.239 511.08L614.423 515.79L616.579 520.499L618.76 525.209L620.943 529.918H620.917H620.891H620.865H620.839H620.813H620.787H620.761H620.735H620.709H620.683H620.657H620.631H620.605H620.579H620.553H620.528H620.502H620.476H620.45H620.424H620.398H620.372H620.346H620.32H620.294H620.268H620.242V529.893H620.215H620.189H620.163H620.137H620.111H620.085H620.059H620.033H620.007L617.825 525.184L615.67 520.499L613.486 515.79L611.304 511.08L609.148 506.371L606.965 501.661L604.783 496.952L602.628 492.242L600.445 487.533L598.262 482.823L596.106 478.114L593.924 473.404L591.768 468.695L589.585 463.985L587.404 459.276L585.246 454.566L583.064 449.857L580.882 445.147L578.725 440.438L576.544 435.728L574.361 431.043L572.204 426.334L570.022 421.624L567.867 416.915L565.684 412.205L563.501 407.496L561.345 402.786L559.163 398.077L556.98 393.367L554.824 388.658L552.643 383.948L550.46 379.239L548.303 374.529L546.121 369.82L543.964 365.11L541.783 360.401L539.6 355.691L537.443 350.982L535.261 346.272L533.079 341.588L530.923 336.878L528.74 332.169L526.559 327.459L524.402 322.75L522.219 318.04L520.037 313.331L517.882 308.621L515.699 303.911L513.542 299.202L511.36 294.492L509.177 289.783L507.021 285.073L504.839 280.364L502.658 275.654L500.501 270.945L498.318 266.235L496.136 261.526L493.979 256.816L491.798 252.132L489.641 247.422L487.458 242.713L485.276 238.003L483.12 233.294L480.938 228.584Z" fill="url(#paint15_linear_400_29)"/>
<path d="M437.345 274.167H437.371H437.397V274.142H437.423H437.449H437.475H437.501H437.527V274.118H437.553H437.579H437.605H437.631H437.657L437.682 274.093H437.709H437.734H437.76H437.786L437.812 274.068H437.838H437.864H437.89H437.916L437.942 274.043H437.968H437.994H438.02H438.046L438.072 274.018H438.098H438.124H438.15H438.176L440.826 278.232L443.45 282.471L446.074 286.685L448.724 290.923L451.348 295.162L453.972 299.375L456.596 303.614L459.246 307.853L461.87 312.066L464.494 316.305L467.144 320.543L469.768 324.757L472.391 328.996L475.015 333.234L477.665 337.448L480.289 341.687L482.913 345.925L485.563 350.139L488.187 354.378L490.811 358.591L493.461 362.83L496.085 367.068L498.709 371.282L501.333 375.521L503.983 379.759L506.607 383.973L509.231 388.212L511.881 392.45L514.505 396.664L517.129 400.903L519.779 405.141L522.403 409.355L525.027 413.593L527.651 417.832L530.3 422.046L532.924 426.284L535.548 430.523L538.198 434.737L540.822 438.975L543.446 443.189L546.07 447.427L548.72 451.666L551.344 455.88L553.968 460.118L556.618 464.357L559.242 468.571L561.866 472.809L564.516 477.048L567.14 481.262L569.764 485.5L572.388 489.739L575.038 493.952L577.662 498.191L580.286 502.43L582.936 506.643L585.56 510.882L588.184 515.096L590.833 519.334L593.457 523.573L596.081 527.787L598.705 532.025L601.355 536.264L603.979 540.477L606.603 544.716H606.577H606.551V544.741H606.525H606.499H606.473H606.447H606.421L606.395 544.766H606.369H606.343H606.317H606.291L606.265 544.79H606.239H606.213H606.188H606.162L606.136 544.815H606.11H606.084H606.058H606.032L606.006 544.84H605.98H605.954H605.928H605.902L605.876 544.865H605.85H605.824H605.798H605.772L603.148 540.651L600.524 536.412L597.874 532.174L595.25 527.96L592.626 523.721L589.976 519.483L587.352 515.269L584.728 511.031L582.078 506.817L579.454 502.578L576.83 498.34L574.206 494.126L571.556 489.887L568.932 485.649L566.309 481.435L563.659 477.197L561.035 472.958L558.411 468.744L555.787 464.506L553.137 460.267L550.513 456.053L547.889 451.815L545.239 447.576L542.615 443.362L539.991 439.124L537.341 434.91L534.717 430.672L532.093 426.433L529.469 422.219L526.819 417.981L524.195 413.742L521.571 409.528L518.921 405.29L516.297 401.051L513.673 396.837L511.023 392.599L508.4 388.36L505.776 384.147L503.152 379.908L500.502 375.669L497.878 371.456L495.254 367.217L492.604 362.979L489.98 358.765L487.356 354.526L484.732 350.313L482.082 346.074L479.458 341.835L476.834 337.622L474.184 333.383L471.56 329.145L468.936 324.931L466.286 320.692L463.662 316.454L461.038 312.24L458.414 308.001L455.764 303.763L453.14 299.549L450.516 295.31L447.867 291.072L445.243 286.858L442.619 282.619L439.969 278.406L437.345 274.167Z" fill="url(#paint16_linear_400_29)"/>
<path d="M393.775 319.75H393.801H393.827V319.726H393.853H393.879L393.905 319.701H393.931V319.676H393.957H393.983V319.651H394.009H394.035V319.626H394.061H394.087V319.602H394.113L394.139 319.577H394.165L394.191 319.552H394.217L394.243 319.527H394.269L394.295 319.502H394.321L394.347 319.478H394.373V319.453H394.399H394.425L394.451 319.428H394.477V319.403L397.568 323.171L400.66 326.914L403.752 330.657L406.843 334.424L409.935 338.167L413.026 341.935L416.118 345.677L419.21 349.42L422.301 353.188L425.393 356.931L428.484 360.673L431.576 364.441L434.668 368.184L437.759 371.927L440.825 375.694L443.916 379.437L447.008 383.18L450.1 386.948L453.192 390.69L456.283 394.433L459.375 398.201L462.466 401.944L465.558 405.686L468.65 409.454L471.741 413.197L474.833 416.964L477.924 420.707L481.016 424.45L484.108 428.218L487.199 431.96L490.291 435.703L493.382 439.471L496.474 443.214L499.566 446.957L502.657 450.724L505.723 454.467L508.814 458.21L511.906 461.977L514.998 465.72L518.089 469.463L521.181 473.231L524.272 476.973L527.364 480.716L530.456 484.484L533.547 488.227L536.639 491.97L539.73 495.737L542.822 499.48L545.913 503.248L549.005 506.99L552.097 510.733L555.188 514.501L558.28 518.244L561.371 521.986L564.463 525.754L567.555 529.497L570.62 533.24L573.712 537.007L576.803 540.75L579.895 544.493L582.987 548.26L586.078 552.003L589.17 555.746L592.261 559.514H592.236L592.21 559.539H592.184V559.563H592.158H592.132V559.588H592.106H592.08V559.613H592.054H592.028V559.638H592.002H591.976V559.662H591.95L591.924 559.687H591.898H591.872V559.712H591.846L591.82 559.737H591.794L591.768 559.762H591.742V559.786H591.716H591.69L591.664 559.811H591.638V559.836H591.612H591.586V559.861H591.56L588.468 556.093L585.377 552.35L582.285 548.608L579.194 544.84L576.128 541.097L573.036 537.354L569.945 533.587L566.853 529.844L563.762 526.101L560.67 522.333L557.578 518.591L554.487 514.848L551.395 511.08L548.304 507.337L545.212 503.595L542.12 499.827L539.029 496.084L535.937 492.341L532.846 488.574L529.754 484.831L526.662 481.063L523.571 477.32L520.479 473.578L517.388 469.81L514.296 466.067L511.23 462.324L508.139 458.557L505.047 454.814L501.956 451.071L498.864 447.304L495.772 443.561L492.681 439.818L489.589 436.05L486.498 432.308L483.406 428.565L480.314 424.797L477.223 421.054L474.131 417.311L471.04 413.544L467.948 409.801L464.856 406.058L461.765 402.291L458.673 398.548L455.582 394.78L452.49 391.037L449.398 387.295L446.333 383.527L443.241 379.784L440.149 376.041L437.058 372.274L433.966 368.531L430.875 364.788L427.783 361.02L424.691 357.278L421.6 353.535L418.508 349.767L415.417 346.024L412.325 342.282L409.233 338.514L406.142 334.771L403.05 331.028L399.959 327.261L396.867 323.518L393.775 319.75Z" fill="url(#paint17_linear_400_29)"/>
<path d="M350.234 365.358H350.26V365.333H350.286V365.309L350.312 365.284L350.338 365.259L350.364 365.234L350.39 365.209L350.416 365.185V365.16H350.442V365.135H350.468V365.11H350.494V365.085H350.52V365.061H350.546V365.036H350.572V365.011L350.598 364.986L350.624 364.962L350.65 364.937V364.912H350.676V364.887H350.702V364.862H350.728V364.838H350.754V364.813L354.313 368.085L357.846 371.357L361.406 374.628L364.965 377.925L368.498 381.197L372.057 384.469L375.591 387.741L379.15 391.013L382.709 394.284L386.242 397.556L389.802 400.828L393.361 404.1L396.894 407.372L400.453 410.644L403.987 413.916L407.546 417.187L411.105 420.459L414.638 423.731L418.198 427.003L421.731 430.275L425.29 433.547L428.849 436.819L432.383 440.091L435.942 443.387L439.475 446.659L443.034 449.931L446.594 453.203L450.126 456.475L453.686 459.747L457.219 463.018L460.778 466.29L464.337 469.562L467.871 472.834L471.43 476.106L474.989 479.378L478.522 482.65L482.082 485.921L485.615 489.193L489.174 492.465L492.733 495.737L496.267 499.009L499.826 502.281L503.359 505.553L506.918 508.849L510.478 512.121L514.011 515.393L517.57 518.665L521.103 521.937L524.663 525.209L528.222 528.481L531.755 531.752L535.314 535.024L538.848 538.296L542.407 541.568L545.966 544.84L549.499 548.112L553.058 551.384L556.618 554.655L560.151 557.927L563.71 561.199L567.243 564.471L570.803 567.743L574.362 571.015L577.895 574.311L577.869 574.336L577.843 574.361L577.817 574.386L577.791 574.411L577.765 574.435V574.46H577.739V574.485H577.713V574.51H577.687V574.535H577.661V574.559H577.635V574.584H577.609V574.609H577.583V574.634H577.557V574.658L577.531 574.683V574.708H577.505V574.733H577.479V574.758H577.453V574.782H577.428V574.807H577.402V574.832H577.376L573.842 571.56L570.283 568.288L566.724 565.016L563.191 561.745L559.631 558.473L556.098 555.201L552.539 551.929L548.98 548.657L545.446 545.385L541.887 542.113L538.354 538.841L534.795 535.57L531.235 532.298L527.702 529.026L524.143 525.754L520.61 522.482L517.05 519.186L513.491 515.914L509.958 512.642L506.399 509.37L502.839 506.098L499.306 502.826L495.747 499.554L492.214 496.282L488.655 493.011L485.095 489.739L481.562 486.467L478.003 483.195L474.47 479.923L470.91 476.651L467.351 473.379L463.818 470.107L460.259 466.836L456.725 463.564L453.166 460.292L449.607 457.02L446.074 453.723L442.515 450.451L438.981 447.18L435.422 443.908L431.863 440.636L428.33 437.364L424.771 434.092L421.211 430.82L417.678 427.548L414.119 424.277L410.586 421.005L407.026 417.733L403.467 414.461L399.934 411.189L396.375 407.917L392.841 404.645L389.282 401.373L385.723 398.102L382.19 394.83L378.63 391.558L375.097 388.261L371.538 384.989L367.979 381.717L364.445 378.446L360.886 375.174L357.353 371.902L353.794 368.63L350.234 365.358Z" fill="url(#paint18_linear_400_29)"/>
<path d="M307.03 410.247L311.03 413.048L315.031 415.824L319.058 418.625L323.059 421.426L327.06 424.227L331.061 427.003L335.088 429.804L339.089 432.605L343.09 435.406L347.09 438.182L351.117 440.983L355.118 443.784L359.119 446.585L363.12 449.361L367.147 452.162L371.148 454.963L375.149 457.764L379.175 460.54L383.176 463.341L387.177 466.142L391.178 468.942L395.205 471.719L399.206 474.52L403.207 477.32L407.208 480.121L411.235 482.897L415.235 485.698L419.236 488.499L423.237 491.3L427.264 494.076L431.265 496.877L435.266 499.678L439.267 502.479L443.294 505.255L447.295 508.056L451.295 510.857L455.322 513.658L459.323 516.434L463.324 519.235L467.325 522.036L471.352 524.837L475.352 527.613L479.353 530.414L483.354 533.215L487.381 536.016L491.382 538.792L495.383 541.593L499.384 544.394L503.411 547.195L507.412 549.971L511.412 552.772L515.439 555.573L519.44 558.374L523.441 561.15L527.442 563.951L531.469 566.751L535.47 569.552L539.471 572.329L543.472 575.129L547.498 577.93L551.499 580.731L555.5 583.507L559.501 586.308L563.528 589.109L563.502 589.134V589.159L563.476 589.184V589.208V589.233H563.45V589.258V589.283L563.424 589.308V589.332V589.357H563.398V589.382V589.407H563.372V589.431V589.456L563.346 589.481V589.506V589.531H563.32V589.555V589.58H563.294V589.605V589.63V589.655H563.268V589.679V589.704H563.242V589.729V589.754H563.216V589.778V589.803L559.189 587.027L555.188 584.226L551.188 581.425L547.187 578.624L543.16 575.824L539.159 573.047L535.158 570.246L531.157 567.446L527.13 564.645L523.129 561.868L519.128 559.068L515.128 556.267L511.101 553.466L507.1 550.69L503.099 547.889L499.072 545.088L495.071 542.287L491.07 539.511L487.069 536.71L483.043 533.909L479.042 531.108L475.041 528.332L471.04 525.531L467.013 522.73L463.012 519.929L459.011 517.153L455.01 514.352L450.983 511.551L446.983 508.75L442.982 505.974L438.981 503.173L434.954 500.372L430.953 497.571L426.952 494.795L422.925 491.994L418.925 489.193L414.924 486.392L410.923 483.616L406.896 480.815L402.895 478.014L398.894 475.214L394.893 472.437L390.866 469.636L386.865 466.836L382.865 464.035L378.864 461.259L374.837 458.458L370.836 455.657L366.835 452.856L362.808 450.08L358.807 447.279L354.806 444.478L350.806 441.677L346.779 438.901L342.778 436.1L338.777 433.299L334.776 430.498L330.749 427.722L326.748 424.921L322.747 422.12L318.746 419.319L314.72 416.543L310.719 413.742L306.718 410.941V410.916V410.892H306.744V410.867V410.842H306.77V410.817V410.792H306.796V410.768V410.743V410.718H306.822V410.693V410.669H306.848V410.644V410.619L306.874 410.594V410.569V410.545H306.9V410.52V410.495H306.926V410.47V410.445L306.952 410.421V410.396V410.371H306.978V410.346V410.322L307.004 410.297V410.272L307.03 410.247Z" fill="url(#paint19_linear_400_29)"/>
<path d="M263.279 455.681L267.747 458.011L272.216 460.317L276.684 462.622L281.153 464.952L285.621 467.257L290.09 469.587L294.558 471.892L299.027 474.222L303.495 476.527L307.964 478.857L312.407 481.162L316.875 483.468L321.344 485.798L325.812 488.103L330.281 490.433L334.749 492.738L339.218 495.068L343.686 497.373L348.155 499.703L352.623 502.008L357.092 504.338L361.56 506.643L366.029 508.948L370.471 511.278L374.94 513.584L379.409 515.914L383.877 518.219L388.346 520.549L392.814 522.854L397.283 525.184L401.751 527.489L406.22 529.819L410.688 532.124L415.157 534.429L419.625 536.759L424.094 539.065L428.536 541.394L433.005 543.7L437.473 546.03L441.942 548.335L446.41 550.665L450.879 552.97L455.348 555.275L459.816 557.605L464.285 559.91L468.753 562.24L473.222 564.545L477.69 566.875L482.133 569.181L486.602 571.511L491.07 573.816L495.539 576.146L500.007 578.451L504.476 580.756L508.944 583.086L513.413 585.391L517.881 587.721L522.35 590.026L526.818 592.356L531.287 594.662L535.755 596.991L540.198 599.297L544.666 601.627L549.135 603.932V603.957V603.981V604.006V604.031V604.056V604.081L549.109 604.105V604.13V604.155V604.18V604.204V604.229V604.254V604.279L549.083 604.304V604.328V604.353V604.378V604.403V604.428V604.452V604.477L549.057 604.502V604.527V604.551V604.576V604.601V604.626V604.651V604.675L549.031 604.7V604.725V604.75L544.563 602.445L540.094 600.115L535.625 597.809L531.157 595.504L526.714 593.174L522.246 590.869L517.777 588.539L513.309 586.234L508.84 583.904L504.372 581.599L499.903 579.269L495.435 576.964L490.966 574.634L486.498 572.329L482.029 570.023L477.561 567.693L473.092 565.388L468.65 563.058L464.181 560.753L459.712 558.423L455.244 556.118L450.775 553.788L446.307 551.483L441.838 549.153L437.369 546.848L432.901 544.542L428.432 542.212L423.964 539.907L419.495 537.577L415.027 535.272L410.584 532.942L406.116 530.637L401.647 528.307L397.179 526.002L392.71 523.697L388.242 521.367L383.773 519.062L379.305 516.732L374.836 514.426L370.368 512.096L365.899 509.791L361.43 507.461L356.962 505.156L352.519 502.826L348.051 500.521L343.582 498.216L339.114 495.886L334.645 493.581L330.177 491.251L325.708 488.945L321.24 486.615L316.771 484.31L312.303 481.98L307.834 479.675L303.366 477.345L298.923 475.04L294.455 472.735L289.986 470.405L285.517 468.1L281.049 465.77L276.58 463.465L272.112 461.135L267.643 458.829L263.175 456.499V456.475V456.45L263.201 456.425V456.4V456.375V456.351V456.326V456.301V456.276V456.252L263.227 456.227V456.202V456.177V456.152V456.128V456.103V456.078V456.053L263.253 456.029V456.004V455.979V455.954V455.929V455.905V455.88V455.855L263.279 455.83V455.805V455.781V455.756V455.731V455.706V455.681Z" fill="url(#paint20_linear_400_29)"/>
<path d="M219.582 501.141L224.492 502.975L229.428 504.834L234.338 506.668L239.274 508.502L244.185 510.336L249.121 512.171L254.057 514.005L258.967 515.839L263.903 517.698L268.814 519.532L273.75 521.367L278.66 523.201L283.596 525.035L288.532 526.869L293.442 528.728L298.379 530.563L303.289 532.397L308.225 534.231L313.135 536.065L318.071 537.9L323.007 539.734L327.918 541.593L332.854 543.427L337.764 545.261L342.7 547.095L347.636 548.93L352.546 550.764L357.483 552.623L362.393 554.457L367.329 556.291L372.239 558.126L377.175 559.96L382.112 561.794L387.022 563.628L391.958 565.487L396.868 567.322L401.804 569.156L406.714 570.99L411.651 572.824L416.587 574.658L421.497 576.517L426.433 578.352L431.343 580.186L436.279 582.02L441.19 583.854L446.126 585.689L451.062 587.523L455.972 589.382L460.908 591.216L465.818 593.05L470.755 594.885L475.691 596.719L480.601 598.553L485.537 600.387L490.447 602.246L495.383 604.08L500.294 605.915L505.23 607.749L510.166 609.583L515.076 611.417L520.012 613.276L524.922 615.111L529.859 616.945L534.769 618.779L534.795 618.804V618.829V618.853V618.878V618.903V618.928V618.953V618.977V619.002V619.027V619.052V619.077V619.101V619.126V619.151H534.821V619.176V619.2V619.225V619.25V619.275V619.3V619.324V619.349V619.374V619.399V619.424V619.448V619.473V619.498L534.847 619.523V619.547V619.572V619.597V619.622V619.647V619.671V619.696L529.911 617.837L525 616.003L520.064 614.169L515.154 612.334L510.218 610.5L505.308 608.666L500.372 606.807L495.435 604.973L490.525 603.139L485.589 601.304L480.679 599.47L475.743 597.636L470.807 595.802L465.896 593.943L460.96 592.108L456.05 590.274L451.114 588.44L446.204 586.606L441.268 584.771L436.331 582.912L431.421 581.078L426.485 579.244L421.575 577.41L416.639 575.576L411.729 573.741L406.792 571.907L401.856 570.048L396.946 568.214L392.01 566.38L387.1 564.545L382.163 562.711L377.227 560.877L372.317 559.018L367.381 557.184L362.471 555.349L357.535 553.515L352.624 551.681L347.688 549.847L342.752 548.013L337.842 546.154L332.906 544.319L327.996 542.485L323.059 540.651L318.149 538.817L313.213 536.982L308.277 535.123L303.367 533.289L298.431 531.455L293.52 529.621L288.584 527.786L283.648 525.952L278.738 524.118L273.802 522.259L268.891 520.425L263.955 518.591L259.045 516.756L254.109 514.922L249.173 513.088L244.263 511.254L239.326 509.395L234.416 507.56L229.48 505.726L224.57 503.892L219.634 502.058V502.033V502.008V501.983V501.959V501.934V501.909V501.884H219.608V501.859V501.835V501.81V501.785V501.76V501.735V501.711V501.686V501.661V501.636V501.612V501.587V501.562V501.537L219.582 501.512V501.488V501.463V501.438V501.413V501.388V501.364V501.339V501.314V501.289V501.265V501.24V501.215V501.19V501.165V501.141Z" fill="url(#paint21_linear_400_29)"/>
<path d="M175.857 546.625L181.261 547.988L186.639 549.351L192.017 550.714L197.395 552.078L202.772 553.416L208.176 554.779L213.554 556.143L218.932 557.506L224.31 558.869L229.714 560.233L235.091 561.571L240.469 562.934L245.847 564.298L251.251 565.661L256.629 567.024L262.007 568.387L267.385 569.751L272.789 571.089L278.166 572.453L283.544 573.816L288.922 575.179L294.3 576.542L299.704 577.906L305.081 579.269L310.459 580.607L315.837 581.971L321.241 583.334L326.619 584.697L331.997 586.06L337.374 587.424L342.778 588.787L348.156 590.126L353.534 591.489L358.912 592.852L364.289 594.215L369.693 595.579L375.071 596.942L380.449 598.305L385.827 599.644L391.231 601.007L396.608 602.37L401.986 603.734L407.364 605.097L412.768 606.46L418.146 607.823L423.523 609.162L428.901 610.525L434.305 611.888L439.683 613.252L445.061 614.615L450.438 615.978L455.816 617.342L461.22 618.68L466.597 620.043L471.975 621.407L477.353 622.77L482.757 624.133L488.135 625.496L493.513 626.835L498.89 628.198L504.294 629.561L509.672 630.925L515.05 632.288L520.428 633.651L520.454 633.676V633.701V633.726V633.75V633.775L520.48 633.8V633.825V633.85V633.874V633.899L520.506 633.924V633.949V633.974V633.998V634.023H520.532V634.048V634.073V634.097V634.122V634.147L520.558 634.172V634.197V634.221V634.246V634.271H520.584V634.296V634.321V634.345V634.37V634.395H520.61V634.42V634.445V634.469V634.494L520.635 634.519V634.544V634.568V634.593L515.258 633.23L509.88 631.867L504.476 630.503L499.098 629.165L493.72 627.802L488.343 626.438L482.965 625.075L477.561 623.712L472.183 622.349L466.805 620.985L461.427 619.647L456.024 618.283L450.646 616.92L445.269 615.557L439.891 614.194L434.487 612.83L429.109 611.467L423.731 610.129L418.353 608.765L412.976 607.402L407.572 606.039L402.194 604.675L396.816 603.312L391.438 601.974L386.035 600.61L380.657 599.247L375.279 597.884L369.901 596.521L364.497 595.157L359.119 593.794L353.742 592.456L348.364 591.092L342.96 589.729L337.582 588.366L332.204 587.002L326.827 585.639L321.449 584.276L316.045 582.937L310.667 581.574L305.289 580.211L299.911 578.848L294.508 577.484L289.13 576.121L283.752 574.758L278.374 573.419L272.97 572.056L267.593 570.693L262.215 569.329L256.837 567.966L251.433 566.603L246.055 565.24L240.677 563.901L235.299 562.538L229.921 561.174L224.518 559.811L219.14 558.448L213.762 557.085L208.384 555.721L202.98 554.383L197.603 553.02L192.225 551.656L186.847 550.293L181.443 548.93L176.065 547.567V547.542V547.517V547.492H176.039V547.467V547.443V547.418V547.393L176.013 547.368V547.343V547.319V547.294V547.269L175.987 547.244V547.219V547.195V547.17V547.145L175.961 547.12V547.096V547.071V547.046V547.021H175.935V546.996V546.972V546.947V546.922V546.897L175.909 546.872V546.848V546.823V546.798V546.773L175.883 546.749V546.724V546.699V546.674V546.649H175.857V546.625Z" fill="url(#paint22_linear_400_29)"/>
<path d="M132.185 592.108L138.03 593.001L143.85 593.868L149.695 594.761L155.541 595.653L161.386 596.521L167.232 597.413L173.077 598.28L178.923 599.173L184.768 600.04L190.614 600.933L196.433 601.8L202.278 602.692L208.124 603.585L213.969 604.452L219.815 605.345L225.66 606.212L231.506 607.105L237.351 607.972L243.197 608.864L249.016 609.732L254.861 610.624L260.707 611.517L266.552 612.384L272.397 613.276L278.243 614.144L284.088 615.036L289.934 615.904L295.779 616.796L301.599 617.664L307.444 618.556L313.29 619.448L319.135 620.316L324.981 621.208L330.826 622.076L336.672 622.968L342.517 623.836L348.362 624.728L354.182 625.596L360.027 626.488L365.873 627.38L371.718 628.248L377.564 629.14L383.409 630.008L389.255 630.9L395.1 631.767L400.946 632.66L406.765 633.527L412.611 634.42L418.456 635.312L424.301 636.18L430.147 637.072L435.992 637.939L441.838 638.832L447.683 639.699L453.529 640.592L459.375 641.459L465.194 642.351L471.04 643.244L476.885 644.111L482.73 645.004L488.576 645.871L494.421 646.764L500.267 647.631L506.112 648.523V648.548V648.573L506.138 648.598V648.623V648.647L506.164 648.672V648.697V648.722V648.746L506.19 648.771V648.796V648.821L506.216 648.846V648.87V648.895L506.242 648.92V648.945V648.97L506.268 648.994V649.019V649.044L506.294 649.069V649.093V649.118V649.143L506.32 649.168V649.193V649.217L506.346 649.242V649.267V649.292L506.372 649.317V649.341V649.366L506.398 649.391V649.416V649.441V649.465L506.424 649.49L500.579 648.623L494.733 647.73L488.888 646.838L483.042 645.97L477.197 645.078L471.351 644.21L465.532 643.318L459.686 642.451L453.841 641.558L447.995 640.691L442.15 639.798L436.304 638.906L430.459 638.039L424.613 637.146L418.768 636.279L412.948 635.386L407.103 634.519L401.257 633.626L395.412 632.759L389.566 631.867L383.721 630.974L377.876 630.107L372.03 629.214L366.185 628.347L360.365 627.455L354.52 626.587L348.674 625.695L342.829 624.827L336.983 623.935L331.138 623.043L325.292 622.175L319.447 621.283L313.601 620.415L307.782 619.523L301.937 618.655L296.091 617.763L290.246 616.895L284.4 616.003L278.555 615.111L272.709 614.243L266.864 613.351L261.018 612.483L255.199 611.591L249.354 610.723L243.508 609.831L237.663 608.964L231.817 608.071L225.972 607.179L220.127 606.311L214.281 605.419L208.436 604.551L202.616 603.659L196.771 602.792L190.925 601.899L185.08 601.032L179.234 600.139L173.389 599.247L167.543 598.38L161.698 597.487L155.853 596.62L150.033 595.727L144.188 594.86L138.342 593.967L132.497 593.1V593.075L132.471 593.05V593.026V593.001L132.445 592.976V592.951V592.926V592.902H132.419V592.877V592.852V592.827H132.393V592.803V592.778V592.753L132.367 592.728V592.703V592.679L132.341 592.654V592.629V592.604V592.579H132.315V592.555V592.53V592.505H132.289V592.48V592.455V592.431H132.263V592.406V592.381V592.356H132.237V592.332V592.307V592.282V592.257H132.211V592.232V592.208V592.183H132.185V592.158V592.133V592.108Z" fill="url(#paint23_linear_400_29)"/>
<path d="M88.4873 637.617L94.8003 638.014L101.113 638.41L107.4 638.832L113.714 639.228L120.001 639.625L126.314 640.046L132.601 640.443L138.914 640.839L145.201 641.236L151.514 641.657L157.801 642.054L164.114 642.451L170.427 642.847L176.715 643.269L183.028 643.665L189.315 644.062L195.628 644.458L201.915 644.88L208.228 645.276L214.515 645.673L220.828 646.069L227.115 646.491L233.428 646.887L239.742 647.284L246.029 647.681L252.342 648.102L258.629 648.499L264.942 648.895L271.229 649.292L277.543 649.713L283.83 650.11L290.143 650.506L296.456 650.903L302.743 651.324L309.056 651.721L315.343 652.117L321.656 652.514L327.943 652.935L334.256 653.332L340.544 653.729L346.857 654.125L353.144 654.547L359.457 654.943L365.77 655.34L372.057 655.736L378.37 656.158L384.657 656.554L390.97 656.951L397.258 657.372L403.571 657.769L409.858 658.166L416.171 658.562L422.458 658.983L428.771 659.38L435.084 659.777L441.371 660.173L447.684 660.595L453.971 660.991L460.284 661.388L466.571 661.784L472.884 662.206L479.172 662.602L485.485 662.999L491.772 663.395L491.798 663.42V663.445V663.47H491.824V663.495V663.519L491.85 663.544V663.569V663.594H491.876V663.619V663.643L491.902 663.668V663.693V663.718H491.928V663.743V663.767L491.954 663.792V663.817V663.842H491.98V663.866V663.891V663.916H492.006V663.941V663.966L492.032 663.99V664.015V664.04H492.058V664.065V664.09L492.083 664.114V664.139V664.164H492.109V664.189V664.213L492.135 664.238V664.263V664.288H492.161V664.313V664.337L492.187 664.362V664.387L485.874 663.99L479.587 663.569L473.274 663.172L466.987 662.776L460.674 662.379L454.387 661.958L448.074 661.561L441.787 661.165L435.474 660.768L429.187 660.347L422.874 659.95L416.561 659.554L410.273 659.157L403.96 658.736L397.673 658.339L391.36 657.942L385.073 657.546L378.76 657.124L372.473 656.728L366.16 656.331L359.873 655.935L353.559 655.513L347.246 655.117L340.959 654.72L334.646 654.324L328.359 653.902L322.046 653.506L315.759 653.109L309.446 652.688L303.159 652.291L296.846 651.894L290.532 651.498L284.245 651.076L277.932 650.68L271.645 650.283L265.332 649.887L259.045 649.465L252.732 649.069L246.444 648.672L240.131 648.276L233.844 647.854L227.531 647.458L221.218 647.061L214.931 646.664L208.618 646.243L202.331 645.846L196.018 645.45L189.73 645.053L183.417 644.632L177.13 644.235L170.817 643.839L164.53 643.442L158.217 643.021L151.904 642.624L145.617 642.228L139.304 641.831L133.017 641.41L126.703 641.013L120.416 640.616L114.103 640.22L107.816 639.798L101.503 639.402L95.2163 639.005L88.9033 638.609V638.584V638.559H88.8773V638.534V638.509L88.8513 638.485V638.46V638.435H88.8253V638.41V638.386L88.7993 638.361V638.336V638.311H88.7733V638.286V638.262L88.7473 638.237V638.212V638.187H88.7213V638.163V638.138L88.6953 638.113V638.088L88.6693 638.063V638.039V638.014V637.989H88.6433V637.964V637.939L88.6173 637.915V637.89V637.865H88.5913V637.84V637.815L88.5653 637.791V637.766L88.5393 637.741V637.716V637.692L88.5133 637.667V637.642L88.4873 637.617Z" fill="url(#paint24_linear_400_29)"/>
<path d="M44.8408 683.127L51.5958 683.052L58.3508 682.978L65.1048 682.903L71.8598 682.829L78.6408 682.73L85.3958 682.656L92.1498 682.581L98.9048 682.507L105.66 682.432L112.441 682.358L119.195 682.284L125.95 682.209L132.705 682.135L139.46 682.061L146.24 681.986L152.995 681.912L159.75 681.838L166.505 681.763L173.285 681.689L180.04 681.614L186.795 681.54L193.55 681.466L200.304 681.391L207.085 681.317L213.84 681.243L220.594 681.168L227.349 681.094L234.104 680.995L240.885 680.92L247.639 680.846L254.394 680.772L261.149 680.697L267.904 680.623L274.684 680.548L281.439 680.474L288.194 680.4L294.949 680.325L301.703 680.251L308.484 680.177L315.239 680.102L321.994 680.028L328.748 679.953L335.503 679.879L342.284 679.805L349.038 679.73L355.793 679.656L362.548 679.582L369.303 679.507L376.083 679.433L382.838 679.359L389.593 679.259L396.348 679.185L403.103 679.111L409.883 679.036L416.638 678.962L423.393 678.887L430.147 678.813L436.902 678.739L443.683 678.664L450.438 678.59L457.193 678.516L463.947 678.441L470.702 678.367L477.483 678.293V678.317L477.509 678.342V678.367V678.392H477.535V678.417L477.561 678.441V678.466V678.491L477.587 678.516V678.54H477.613V678.565V678.59L477.639 678.615V678.64V678.664H477.665V678.689V678.714H477.691V678.739V678.764L477.717 678.788V678.813L477.743 678.838V678.863L477.769 678.887V678.912L477.795 678.937V678.962V678.987H477.821V679.011V679.036H477.847V679.061V679.086L477.873 679.111V679.135L477.899 679.16V679.185L477.924 679.21V679.235L477.951 679.259V679.284L471.196 679.359L464.415 679.433L457.66 679.507L450.906 679.582L444.151 679.656L437.396 679.73L430.615 679.805L423.86 679.879L417.106 679.953L410.351 680.028L403.596 680.102L396.815 680.177L390.061 680.251L383.306 680.325L376.551 680.4L369.796 680.474L363.016 680.548L356.261 680.623L349.506 680.697L342.751 680.772L335.997 680.846L329.216 680.945L322.461 681.019L315.706 681.094L308.952 681.168L302.197 681.243L295.416 681.317L288.661 681.391L281.907 681.466L275.152 681.54L268.397 681.614L261.616 681.689L254.862 681.763L248.107 681.838L241.352 681.912L234.572 681.986L227.817 682.061L221.062 682.135L214.307 682.209L207.553 682.284L200.772 682.358L194.017 682.432L187.262 682.507L180.508 682.581L173.753 682.656L166.972 682.755L160.217 682.829L153.463 682.903L146.708 682.978L139.953 683.052L133.172 683.127L126.418 683.201L119.663 683.275L112.908 683.35L106.153 683.424L99.3728 683.498L92.6178 683.573L85.8628 683.647L79.1078 683.721L72.3538 683.796L65.5728 683.87L58.8178 683.945L52.0628 684.019L45.3088 684.093H45.2828V684.069V684.044L45.2568 684.019V683.994V683.969H45.2308V683.945L45.2048 683.92V683.895V683.87L45.1788 683.845V683.821H45.1528V683.796V683.771L45.1268 683.746V683.721L45.1008 683.697V683.672V683.647H45.0748V683.622V683.598H45.0488V683.573V683.548L45.0228 683.523V683.498H44.9968V683.474V683.449L44.9708 683.424V683.399L44.9448 683.374V683.35V683.325H44.9188V683.3V683.275H44.8928V683.251V683.226L44.8668 683.201V683.176H44.8408V683.151V683.127Z" fill="url(#paint25_linear_400_29)"/>
</g>
<defs>
<linearGradient id="paint0_linear_400_29" x1="353.695" y1="367.967" x2="716.242" y2="727.61" gradientUnits="userSpaceOnUse">
<stop offset="0.1449" stop-color="#CCCCCC"/>
<stop offset="0.1781" stop-color="#B3B3B3"/>
<stop offset="0.2402" stop-color="#898989"/>
<stop offset="0.3077" stop-color="#646464"/>
<stop offset="0.3801" stop-color="#454545"/>
<stop offset="0.4586" stop-color="#2C2C2C"/>
<stop offset="0.5457" stop-color="#181818"/>
<stop offset="0.6459" stop-color="#0A0A0A"/>
<stop offset="0.7713" stop-color="#020202"/>
<stop offset="1"/>
</linearGradient>
<linearGradient id="paint1_linear_400_29" x1="-689.4" y1="-569.683" x2="1379.54" y2="1482.69" gradientUnits="userSpaceOnUse">
<stop offset="0.1449" stop-color="#CCCCCC"/>
<stop offset="0.1781" stop-color="#B3B3B3"/>
<stop offset="0.2402" stop-color="#898989"/>
<stop offset="0.3077" stop-color="#646464"/>
<stop offset="0.3801" stop-color="#454545"/>
<stop offset="0.4586" stop-color="#2C2C2C"/>
<stop offset="0.5457" stop-color="#181818"/>
<stop offset="0.6459" stop-color="#0A0A0A"/>
<stop offset="0.7713" stop-color="#020202"/>
<stop offset="1"/>
</linearGradient>
<linearGradient id="paint2_linear_400_29" x1="-718.75" y1="-596.343" x2="1470.04" y2="1574.92" gradientUnits="userSpaceOnUse">
<stop offset="0.1449" stop-color="#CCCCCC"/>
<stop offset="0.1781" stop-color="#B3B3B3"/>
<stop offset="0.2402" stop-color="#898989"/>
<stop offset="0.3077" stop-color="#646464"/>
<stop offset="0.3801" stop-color="#454545"/>
<stop offset="0.4586" stop-color="#2C2C2C"/>
<stop offset="0.5457" stop-color="#181818"/>
<stop offset="0.6459" stop-color="#0A0A0A"/>
<stop offset="0.7713" stop-color="#020202"/>
<stop offset="1"/>
</linearGradient>
<linearGradient id="paint3_linear_400_29" x1="-745.45" y1="-620.633" x2="1581.11" y2="1687.29" gradientUnits="userSpaceOnUse">
<stop offset="0.1449" stop-color="#CCCCCC"/>
<stop offset="0.1781" stop-color="#B3B3B3"/>
<stop offset="0.2402" stop-color="#898989"/>
<stop offset="0.3077" stop-color="#646464"/>
<stop offset="0.3801" stop-color="#454545"/>
<stop offset="0.4586" stop-color="#2C2C2C"/>
<stop offset="0.5457" stop-color="#181818"/>
<stop offset="0.6459" stop-color="#0A0A0A"/>
<stop offset="0.7713" stop-color="#020202"/>
<stop offset="1"/>
</linearGradient>
<linearGradient id="paint4_linear_400_29" x1="-767.07" y1="-640.37" x2="1719.59" y2="1826.38" gradientUnits="userSpaceOnUse">
<stop offset="0.1449" stop-color="#CCCCCC"/>
<stop offset="0.1781" stop-color="#B3B3B3"/>
<stop offset="0.2402" stop-color="#898989"/>
<stop offset="0.3077" stop-color="#646464"/>
<stop offset="0.3801" stop-color="#454545"/>
<stop offset="0.4586" stop-color="#2C2C2C"/>
<stop offset="0.5457" stop-color="#181818"/>
<stop offset="0.6459" stop-color="#0A0A0A"/>
<stop offset="0.7713" stop-color="#020202"/>
<stop offset="1"/>
</linearGradient>
<linearGradient id="paint5_linear_400_29" x1="-779.53" y1="-651.87" x2="1895.43" y2="2001.67" gradientUnits="userSpaceOnUse">
<stop offset="0.1449" stop-color="#CCCCCC"/>
<stop offset="0.1781" stop-color="#B3B3B3"/>
<stop offset="0.2402" stop-color="#898989"/>
<stop offset="0.3077" stop-color="#646464"/>
<stop offset="0.3801" stop-color="#454545"/>
<stop offset="0.4586" stop-color="#2C2C2C"/>
<stop offset="0.5457" stop-color="#181818"/>
<stop offset="0.6459" stop-color="#0A0A0A"/>
<stop offset="0.7713" stop-color="#020202"/>
<stop offset="1"/>
</linearGradient>
<linearGradient id="paint6_linear_400_29" x1="-776.05" y1="-649.026" x2="2123.61" y2="2227.42" gradientUnits="userSpaceOnUse">
<stop offset="0.1449" stop-color="#CCCCCC"/>
<stop offset="0.1781" stop-color="#B3B3B3"/>
<stop offset="0.2402" stop-color="#898989"/>
<stop offset="0.3077" stop-color="#646464"/>
<stop offset="0.3801" stop-color="#454545"/>
<stop offset="0.4586" stop-color="#2C2C2C"/>
<stop offset="0.5457" stop-color="#181818"/>
<stop offset="0.6459" stop-color="#0A0A0A"/>
<stop offset="0.7713" stop-color="#020202"/>
<stop offset="1"/>
</linearGradient>
<linearGradient id="paint7_linear_400_29" x1="-744.99" y1="-621.336" x2="2427.36" y2="2525.61" gradientUnits="userSpaceOnUse">
<stop offset="0.1449" stop-color="#CCCCCC"/>
<stop offset="0.1781" stop-color="#B3B3B3"/>
<stop offset="0.2402" stop-color="#898989"/>
<stop offset="0.3077" stop-color="#646464"/>
<stop offset="0.3801" stop-color="#454545"/>
<stop offset="0.4586" stop-color="#2C2C2C"/>
<stop offset="0.5457" stop-color="#181818"/>
<stop offset="0.6459" stop-color="#0A0A0A"/>
<stop offset="0.7713" stop-color="#020202"/>
<stop offset="1"/>
</linearGradient>
<linearGradient id="paint8_linear_400_29" x1="-665.71" y1="-550.191" x2="2844.72" y2="2932.13" gradientUnits="userSpaceOnUse">
<stop offset="0.1449" stop-color="#CCCCCC"/>
<stop offset="0.1781" stop-color="#B3B3B3"/>
<stop offset="0.2402" stop-color="#898989"/>
<stop offset="0.3077" stop-color="#646464"/>
<stop offset="0.3801" stop-color="#454545"/>
<stop offset="0.4586" stop-color="#2C2C2C"/>
<stop offset="0.5457" stop-color="#181818"/>
<stop offset="0.6459" stop-color="#0A0A0A"/>
<stop offset="0.7713" stop-color="#020202"/>
<stop offset="1"/>
</linearGradient>
<linearGradient id="paint9_linear_400_29" x1="-499.553" y1="-400.721" x2="3441.01" y2="3508.28" gradientUnits="userSpaceOnUse">
<stop offset="0.1449" stop-color="#CCCCCC"/>
<stop offset="0.1781" stop-color="#B3B3B3"/>
<stop offset="0.2402" stop-color="#898989"/>
<stop offset="0.3077" stop-color="#646464"/>
<stop offset="0.3801" stop-color="#454545"/>
<stop offset="0.4586" stop-color="#2C2C2C"/>
<stop offset="0.5457" stop-color="#181818"/>
<stop offset="0.6459" stop-color="#0A0A0A"/>
<stop offset="0.7713" stop-color="#020202"/>
<stop offset="1"/>
</linearGradient>
<linearGradient id="paint10_linear_400_29" x1="-169.746" y1="-103.658" x2="4336.39" y2="4366.39" gradientUnits="userSpaceOnUse">
<stop offset="0.1449" stop-color="#CCCCCC"/>
<stop offset="0.1781" stop-color="#B3B3B3"/>
<stop offset="0.2402" stop-color="#898989"/>
<stop offset="0.3077" stop-color="#646464"/>
<stop offset="0.3801" stop-color="#454545"/>
<stop offset="0.4586" stop-color="#2C2C2C"/>
<stop offset="0.5457" stop-color="#181818"/>
<stop offset="0.6459" stop-color="#0A0A0A"/>
<stop offset="0.7713" stop-color="#020202"/>
<stop offset="1"/>
</linearGradient>
<linearGradient id="paint11_linear_400_29" x1="559.53" y1="161.646" x2="914.925" y2="514.193" gradientUnits="userSpaceOnUse">
<stop offset="0.1449" stop-color="#CCCCCC"/>
<stop offset="0.1781" stop-color="#B3B3B3"/>
<stop offset="0.2402" stop-color="#898989"/>
<stop offset="0.3077" stop-color="#646464"/>
<stop offset="0.3801" stop-color="#454545"/>
<stop offset="0.4586" stop-color="#2C2C2C"/>
<stop offset="0.5457" stop-color="#181818"/>
<stop offset="0.6459" stop-color="#0A0A0A"/>
<stop offset="0.7713" stop-color="#020202"/>
<stop offset="1"/>
</linearGradient>
<linearGradient id="paint12_linear_400_29" x1="530.821" y1="192.062" x2="885.403" y2="543.805" gradientUnits="userSpaceOnUse">
<stop offset="0.1449" stop-color="#CCCCCC"/>
<stop offset="0.1781" stop-color="#B3B3B3"/>
<stop offset="0.2402" stop-color="#898989"/>
<stop offset="0.3077" stop-color="#646464"/>
<stop offset="0.3801" stop-color="#454545"/>
<stop offset="0.4586" stop-color="#2C2C2C"/>
<stop offset="0.5457" stop-color="#181818"/>
<stop offset="0.6459" stop-color="#0A0A0A"/>
<stop offset="0.7713" stop-color="#020202"/>
<stop offset="1"/>
</linearGradient>
<linearGradient id="paint13_linear_400_29" x1="502.111" y1="222.478" x2="855.883" y2="573.416" gradientUnits="userSpaceOnUse">
<stop offset="0.1449" stop-color="#CCCCCC"/>
<stop offset="0.1781" stop-color="#B3B3B3"/>
<stop offset="0.2402" stop-color="#898989"/>
<stop offset="0.3077" stop-color="#646464"/>
<stop offset="0.3801" stop-color="#454545"/>
<stop offset="0.4586" stop-color="#2C2C2C"/>
<stop offset="0.5457" stop-color="#181818"/>
<stop offset="0.6459" stop-color="#0A0A0A"/>
<stop offset="0.7713" stop-color="#020202"/>
<stop offset="1"/>
</linearGradient>
<linearGradient id="paint14_linear_400_29" x1="473.402" y1="252.894" x2="826.361" y2="603.027" gradientUnits="userSpaceOnUse">
<stop offset="0.1449" stop-color="#CCCCCC"/>
<stop offset="0.1781" stop-color="#B3B3B3"/>
<stop offset="0.2402" stop-color="#898989"/>
<stop offset="0.3077" stop-color="#646464"/>
<stop offset="0.3801" stop-color="#454545"/>
<stop offset="0.4586" stop-color="#2C2C2C"/>
<stop offset="0.5457" stop-color="#181818"/>
<stop offset="0.6459" stop-color="#0A0A0A"/>
<stop offset="0.7713" stop-color="#020202"/>
<stop offset="1"/>
</linearGradient>
<linearGradient id="paint15_linear_400_29" x1="444.692" y1="283.311" x2="796.838" y2="632.636" gradientUnits="userSpaceOnUse">
<stop offset="0.1449" stop-color="#CCCCCC"/>
<stop offset="0.1781" stop-color="#B3B3B3"/>
<stop offset="0.2402" stop-color="#898989"/>
<stop offset="0.3077" stop-color="#646464"/>
<stop offset="0.3801" stop-color="#454545"/>
<stop offset="0.4586" stop-color="#2C2C2C"/>
<stop offset="0.5457" stop-color="#181818"/>
<stop offset="0.6459" stop-color="#0A0A0A"/>
<stop offset="0.7713" stop-color="#020202"/>
<stop offset="1"/>
</linearGradient>
<linearGradient id="paint16_linear_400_29" x1="415.984" y1="313.727" x2="767.317" y2="662.246" gradientUnits="userSpaceOnUse">
<stop offset="0.1449" stop-color="#CCCCCC"/>
<stop offset="0.1781" stop-color="#B3B3B3"/>
<stop offset="0.2402" stop-color="#898989"/>
<stop offset="0.3077" stop-color="#646464"/>
<stop offset="0.3801" stop-color="#454545"/>
<stop offset="0.4586" stop-color="#2C2C2C"/>
<stop offset="0.5457" stop-color="#181818"/>
<stop offset="0.6459" stop-color="#0A0A0A"/>
<stop offset="0.7713" stop-color="#020202"/>
<stop offset="1"/>
</linearGradient>
<linearGradient id="paint17_linear_400_29" x1="387.273" y1="344.144" x2="737.793" y2="691.857" gradientUnits="userSpaceOnUse">
<stop offset="0.1449" stop-color="#CCCCCC"/>
<stop offset="0.1781" stop-color="#B3B3B3"/>
<stop offset="0.2402" stop-color="#898989"/>
<stop offset="0.3077" stop-color="#646464"/>
<stop offset="0.3801" stop-color="#454545"/>
<stop offset="0.4586" stop-color="#2C2C2C"/>
<stop offset="0.5457" stop-color="#181818"/>
<stop offset="0.6459" stop-color="#0A0A0A"/>
<stop offset="0.7713" stop-color="#020202"/>
<stop offset="1"/>
</linearGradient>
<linearGradient id="paint18_linear_400_29" x1="358.556" y1="374.553" x2="708.292" y2="721.487" gradientUnits="userSpaceOnUse">
<stop offset="0.1449" stop-color="#CCCCCC"/>
<stop offset="0.1781" stop-color="#B3B3B3"/>
<stop offset="0.2402" stop-color="#898989"/>
<stop offset="0.3077" stop-color="#646464"/>
<stop offset="0.3801" stop-color="#454545"/>
<stop offset="0.4586" stop-color="#2C2C2C"/>
<stop offset="0.5457" stop-color="#181818"/>
<stop offset="0.6459" stop-color="#0A0A0A"/>
<stop offset="0.7713" stop-color="#020202"/>
<stop offset="1"/>
</linearGradient>
<linearGradient id="paint19_linear_400_29" x1="329.847" y1="404.969" x2="678.768" y2="751.096" gradientUnits="userSpaceOnUse">
<stop offset="0.1449" stop-color="#CCCCCC"/>
<stop offset="0.1781" stop-color="#B3B3B3"/>
<stop offset="0.2402" stop-color="#898989"/>
<stop offset="0.3077" stop-color="#646464"/>
<stop offset="0.3801" stop-color="#454545"/>
<stop offset="0.4586" stop-color="#2C2C2C"/>
<stop offset="0.5457" stop-color="#181818"/>
<stop offset="0.6459" stop-color="#0A0A0A"/>
<stop offset="0.7713" stop-color="#020202"/>
<stop offset="1"/>
</linearGradient>
<linearGradient id="paint20_linear_400_29" x1="301.137" y1="435.386" x2="649.245" y2="780.706" gradientUnits="userSpaceOnUse">
<stop offset="0.1449" stop-color="#CCCCCC"/>
<stop offset="0.1781" stop-color="#B3B3B3"/>
<stop offset="0.2402" stop-color="#898989"/>
<stop offset="0.3077" stop-color="#646464"/>
<stop offset="0.3801" stop-color="#454545"/>
<stop offset="0.4586" stop-color="#2C2C2C"/>
<stop offset="0.5457" stop-color="#181818"/>
<stop offset="0.6459" stop-color="#0A0A0A"/>
<stop offset="0.7713" stop-color="#020202"/>
<stop offset="1"/>
</linearGradient>
<linearGradient id="paint21_linear_400_29" x1="272.429" y1="465.803" x2="619.724" y2="810.316" gradientUnits="userSpaceOnUse">
<stop offset="0.1449" stop-color="#CCCCCC"/>
<stop offset="0.1781" stop-color="#B3B3B3"/>
<stop offset="0.2402" stop-color="#898989"/>
<stop offset="0.3077" stop-color="#646464"/>
<stop offset="0.3801" stop-color="#454545"/>
<stop offset="0.4586" stop-color="#2C2C2C"/>
<stop offset="0.5457" stop-color="#181818"/>
<stop offset="0.6459" stop-color="#0A0A0A"/>
<stop offset="0.7713" stop-color="#020202"/>
<stop offset="1"/>
</linearGradient>
<linearGradient id="paint22_linear_400_29" x1="243.719" y1="496.218" x2="590.203" y2="839.928" gradientUnits="userSpaceOnUse">
<stop offset="0.1449" stop-color="#CCCCCC"/>
<stop offset="0.1781" stop-color="#B3B3B3"/>
<stop offset="0.2402" stop-color="#898989"/>
<stop offset="0.3077" stop-color="#646464"/>
<stop offset="0.3801" stop-color="#454545"/>
<stop offset="0.4586" stop-color="#2C2C2C"/>
<stop offset="0.5457" stop-color="#181818"/>
<stop offset="0.6459" stop-color="#0A0A0A"/>
<stop offset="0.7713" stop-color="#020202"/>
<stop offset="1"/>
</linearGradient>
<linearGradient id="paint23_linear_400_29" x1="215.009" y1="526.635" x2="560.682" y2="869.539" gradientUnits="userSpaceOnUse">
<stop offset="0.1449" stop-color="#CCCCCC"/>
<stop offset="0.1781" stop-color="#B3B3B3"/>
<stop offset="0.2402" stop-color="#898989"/>
<stop offset="0.3077" stop-color="#646464"/>
<stop offset="0.3801" stop-color="#454545"/>
<stop offset="0.4586" stop-color="#2C2C2C"/>
<stop offset="0.5457" stop-color="#181818"/>
<stop offset="0.6459" stop-color="#0A0A0A"/>
<stop offset="0.7713" stop-color="#020202"/>
<stop offset="1"/>
</linearGradient>
<linearGradient id="paint24_linear_400_29" x1="186.3" y1="557.051" x2="531.161" y2="899.15" gradientUnits="userSpaceOnUse">
<stop offset="0.1449" stop-color="#CCCCCC"/>
<stop offset="0.1781" stop-color="#B3B3B3"/>
<stop offset="0.2402" stop-color="#898989"/>
<stop offset="0.3077" stop-color="#646464"/>
<stop offset="0.3801" stop-color="#454545"/>
<stop offset="0.4586" stop-color="#2C2C2C"/>
<stop offset="0.5457" stop-color="#181818"/>
<stop offset="0.6459" stop-color="#0A0A0A"/>
<stop offset="0.7713" stop-color="#020202"/>
<stop offset="1"/>
</linearGradient>
<linearGradient id="paint25_linear_400_29" x1="157.59" y1="587.457" x2="501.677" y2="928.75" gradientUnits="userSpaceOnUse">
<stop offset="0.1449" stop-color="#CCCCCC"/>
<stop offset="0.1781" stop-color="#B3B3B3"/>
<stop offset="0.2402" stop-color="#898989"/>
<stop offset="0.3077" stop-color="#646464"/>
<stop offset="0.3801" stop-color="#454545"/>
<stop offset="0.4586" stop-color="#2C2C2C"/>
<stop offset="0.5457" stop-color="#181818"/>
<stop offset="0.6459" stop-color="#0A0A0A"/>
<stop offset="0.7713" stop-color="#020202"/>
<stop offset="1"/>
</linearGradient>
</defs>
</svg>
