<svg width="480" height="486" viewBox="0 0 480 486" fill="none" xmlns="http://www.w3.org/2000/svg">
<path d="M32.2788 187.723L296.617 367.125" stroke="#454545"/>
<path d="M75.8242 124.566L310.723 341.495M119.369 63.2405L327.896 321.358M161.688 2.8299L344.455 297.56M232.832 2.82989L361.015 276.508M289.257 2.82989L376.347 251.795M335.255 2.82989L392.294 230.742M372.668 2.82989L409.466 206.944M405.786 2.82989L424.186 188.638M432.159 2.82989L440.132 163.009M457.305 2.82988L457.305 141.042" stroke="#454545"/>
<path d="M1.61328 251.795L280.671 389.091" stroke="#454545"/>
<path d="M0.999999 441.264L234.059 458.655M0.999997 388.176L248.778 435.772M0.999994 325.935L264.724 412.889" stroke="#454545"/>
<path d="M1 485.199L218.113 482.453L473.864 117.244L478.77 5.57603" stroke="#454545"/>
<path d="M200.327 481.538L475.091 88.8695M179.474 481.538L475.091 60.4948M156.781 481.538L476.93 22.0517M127.342 481.538L461.598 4.6608M89.9303 481.538L426.639 4.6608M50.0649 481.538L383.707 4.6608" stroke="#454545"/>
<path d="M2.22655 229.828L161.688 0.999909M2.22656 370.786L257.365 6.49177M2.22656 472.385L331.575 0.999901" stroke="#454545"/>
</svg>
